<svg width="148" height="148" viewBox="0 0 148 148" fill="none" xmlns="http://www.w3.org/2000/svg">
<g clip-path="url(#clip0_4525_6182)">
<path d="M99.3968 3.0784L144.922 48.6032V144.922H48.1296L3.1376 99.9296V3.0784H99.3968ZM100.64 0H0V101.114L46.8864 148H148V47.36L100.64 0Z" fill="#FF9900"/>
<path d="M24.0354 83.3559V88.8023H20.957V74.0023H26.6402C28.0018 73.8839 29.245 74.3575 30.3698 75.2455C32.205 77.1991 32.205 80.1591 30.3698 82.1719C29.3634 83.0599 28.0018 83.5335 26.6402 83.4151H24.0354V83.3559ZM24.0354 81.0471H26.285C26.877 81.0471 27.5282 80.9287 27.8834 80.4551C28.5938 79.4487 28.5938 77.9687 27.8834 77.0215C27.4098 76.6663 26.877 76.4295 26.285 76.4295H24.0354V81.0471ZM44.637 88.8023L43.6306 85.4871H38.5986L37.5922 88.8023H34.277L39.4274 74.0023H42.9794L48.0114 88.8023H44.637ZM39.2498 83.1191H42.9794L41.085 76.9623L39.2498 83.1191ZM52.5106 88.8023V74.0023H58.1938C59.5554 73.8839 60.7986 74.3575 61.9234 75.2455C62.8114 76.1335 63.285 77.3175 63.285 78.5607C63.285 79.4487 63.0482 80.1591 62.5154 80.9287C62.0418 81.6391 61.2722 82.1719 60.5618 82.5271L64.2914 88.9207H60.9762L57.7794 83.1191H55.6482V88.8023H52.5106ZM55.6482 80.8103H57.8978C59.0226 80.9287 59.9698 80.2183 60.0882 79.0935C60.0882 78.8567 60.0882 78.7383 60.0882 78.5015C60.2066 77.3767 59.4962 76.4295 58.4898 76.3111C58.3714 76.3111 58.1346 76.3111 58.0162 76.3111H55.7666V80.8695H55.6482V80.8103ZM71.7506 88.8023V76.6071H67.1922V74.0023H79.3874V76.6071H74.829V88.8023H71.7506ZM87.2018 78.5607V88.8023H84.3602V74.0023H87.7938L93.8322 84.3623V74.0023H96.6738V88.8023H93.2402L87.2018 78.5607ZM102.357 88.8023V74.0023H112.125V76.4887H105.613V79.9223H110.941V82.4087H105.613V86.3751H112.125V88.8615H102.357V88.8023ZM117.808 88.8023V74.0023H123.491C124.853 73.8839 126.096 74.3575 127.221 75.2455C128.109 76.1335 128.583 77.3175 128.583 78.5607C128.583 79.4487 128.346 80.1591 127.872 80.9287C127.399 81.6391 126.629 82.1719 125.919 82.5271L129.648 88.9207H126.333L123.136 83.1191H121.064V88.8023H117.808ZM120.887 80.8103H123.136C124.261 80.9287 125.208 80.2183 125.327 79.0935C125.327 78.8567 125.327 78.7383 125.327 78.5015C125.445 77.3767 124.735 76.4295 123.728 76.3111C123.61 76.3111 123.373 76.3111 123.255 76.3111H120.887V80.8103Z" fill="#242E3D"/>
<path d="M32.916 33.9209C32.916 34.3945 32.916 34.9273 33.1528 35.4009C33.2712 35.7561 33.508 36.2889 33.6264 36.6441C33.7448 36.7625 33.7448 36.8809 33.7448 36.9993C33.7448 37.2361 33.6264 37.3545 33.3896 37.4729L32.2648 38.1833C32.2648 38.1833 32.1464 38.1833 31.9096 38.1833C31.6728 38.1833 31.5544 38.0649 31.436 37.9465C31.1992 37.7097 30.9624 37.4729 30.844 37.1769C30.7256 36.9401 30.4888 36.5849 30.3704 36.1705C29.1272 37.6505 27.4104 38.5385 25.4568 38.5385C24.2136 38.6569 22.9704 38.1833 22.1416 37.2953C21.2536 36.4073 20.8984 35.3417 20.8984 34.0985C20.8984 32.7369 21.372 31.4937 22.3784 30.6649C23.5032 29.7769 24.9832 29.3033 26.4632 29.3033C27.0552 29.3033 27.7064 29.3033 28.18 29.4217C28.772 29.5401 29.4232 29.6585 30.0152 29.7769V28.5337C30.1336 27.5273 29.8968 26.5801 29.2456 25.8105C28.5352 25.2185 27.5288 24.9225 26.5224 25.1001C25.9304 25.1001 25.2792 25.2185 24.6872 25.3369C24.0952 25.4553 23.444 25.6921 22.852 25.9289C22.6152 26.0473 22.4968 26.0473 22.26 26.1657C22.1416 26.1657 22.1416 26.1657 22.0232 26.1657C21.7864 26.1657 21.668 26.0473 21.668 25.6921V24.8041C21.668 24.5673 21.668 24.4489 21.7864 24.2121C21.9048 24.0937 22.0232 23.9753 22.26 23.8569C22.852 23.5017 23.6216 23.2649 24.332 23.1465C25.22 22.9097 26.0488 22.7913 26.9368 22.7913C28.5352 22.6729 30.0152 23.1465 31.2584 24.1529C32.2648 25.2777 32.7384 26.7577 32.62 28.2377L32.916 33.9209ZM26.1672 36.4073C26.7592 36.4073 27.292 36.2889 27.884 36.1705C28.476 35.9337 29.0088 35.5785 29.4824 35.0457C29.7192 34.8089 29.956 34.4537 30.0744 33.9209C30.1928 33.4473 30.1928 32.9145 30.1928 32.4409V31.6713C29.7192 31.5529 29.1864 31.4345 28.7128 31.4345C28.2392 31.3161 27.7064 31.3161 27.1144 31.3161C26.2264 31.1977 25.3976 31.4345 24.628 31.9081C23.6216 32.9145 23.5032 34.5129 24.3912 35.6377C24.924 36.2889 25.516 36.5257 26.1672 36.4073ZM39.6056 38.2425C39.3688 38.2425 39.132 38.2425 39.0136 38.1241C38.8952 38.0057 38.7768 37.7689 38.6584 37.5321L34.692 24.5673C34.5736 24.3305 34.5736 24.0937 34.5736 23.9753C34.5736 23.7385 34.692 23.6201 34.8104 23.6201H34.9288H36.5272C36.764 23.6201 37.0008 23.6201 37.1192 23.7385C37.2376 23.8569 37.356 24.0937 37.4744 24.3305L40.316 35.2825L42.9208 24.2713C42.9208 24.0345 43.0392 23.7977 43.276 23.6793C43.5128 23.5609 43.7496 23.5609 43.868 23.5609H45.2296C45.4664 23.5609 45.7032 23.5609 45.8216 23.6793C45.94 23.7977 46.0584 24.0345 46.1768 24.2713L48.7816 35.5193L51.6232 24.2713C51.6232 24.0345 51.7416 23.7977 51.9784 23.6793C52.2152 23.5609 52.3336 23.5609 52.5704 23.5609H54.1688C54.4056 23.5609 54.524 23.6793 54.524 23.7977V23.9161C54.524 24.0345 54.524 24.0345 54.524 24.1529C54.524 24.2713 54.4056 24.3897 54.4056 24.5081L50.4392 37.3545C50.4392 37.5913 50.3208 37.8281 50.084 37.9465C49.9656 38.1833 49.7288 38.1833 49.492 38.1833H48.012C47.7752 38.1833 47.5384 38.1833 47.42 38.0649C47.3016 37.8281 47.1832 37.7097 47.0648 37.4729L44.46 26.7577L41.8552 37.4729C41.8552 37.7097 41.7368 37.9465 41.5 38.0649C41.3816 38.1833 41.1448 38.1833 41.0264 38.1833H39.6056V38.2425ZM61.036 38.7161C60.148 38.7161 59.3192 38.5977 58.4312 38.4793C57.8392 38.3609 57.0696 38.1241 56.4776 37.8873C56.1224 37.7689 55.8856 37.4137 55.8856 36.8809V35.9929C55.8856 35.6377 56.004 35.5193 56.2408 35.5193C56.3592 35.5193 56.4776 35.5193 56.4776 35.5193C56.596 35.5193 56.7144 35.6377 56.8328 35.6377C57.4248 35.8745 58.076 36.1113 58.668 36.2297C59.26 36.3481 60.0296 36.4665 60.6216 36.4665C61.5096 36.4665 62.3384 36.3481 63.108 35.8745C63.5816 35.5193 63.996 34.8681 63.996 34.2761C63.996 33.8025 63.8776 33.3881 63.5224 33.1513C63.0488 32.7961 62.3976 32.4409 61.8056 32.2633L59.3192 31.5529C58.3128 31.3161 57.3656 30.6649 56.596 29.8361C56.1224 29.1257 55.708 28.2377 55.708 27.3497C55.708 26.7577 55.8264 26.1065 56.1816 25.5145C56.4184 25.0409 56.892 24.5081 57.4248 24.1529C57.8984 23.7977 58.5496 23.4425 59.1416 23.2649C59.852 23.0281 60.5032 23.0281 61.2136 23.0281C61.5688 23.0281 61.9832 23.0281 62.3384 23.1465C62.6936 23.1465 63.0488 23.2649 63.4632 23.3833C63.8184 23.5017 64.0552 23.5017 64.4696 23.6201C64.7064 23.7385 64.9432 23.7385 65.18 23.8569C65.4168 23.9753 65.5352 24.0937 65.6536 24.2121C65.772 24.3305 65.772 24.5673 65.772 24.8041V25.5737C65.772 25.9289 65.6536 26.0473 65.4168 26.0473C65.18 26.0473 64.9432 25.9289 64.8248 25.8105C63.8184 25.3369 62.7528 25.2185 61.628 25.2185C60.9176 25.2185 60.148 25.3369 59.3784 25.6921C58.964 26.0473 58.6088 26.6393 58.7272 27.2313C58.7272 27.7049 58.8456 28.1193 59.2008 28.4745C59.6744 28.9481 60.3256 29.1849 61.036 29.3625L63.404 30.0729C64.4104 30.3097 65.2392 30.9609 66.0088 31.6713C66.4824 32.2633 66.7192 33.1513 66.7192 34.0393C66.7192 34.6313 66.6008 35.4009 66.2456 35.9929C66.0088 36.5849 65.5352 37.1177 65.0024 37.4729C64.5288 37.8281 63.7592 38.1833 63.1672 38.4793C62.6344 38.5977 61.8056 38.7161 61.036 38.7161Z" fill="#242E3D"/>
<path d="M64.1123 46.7674C58.6067 50.793 50.6739 52.9242 43.8067 52.9242C34.6899 52.9242 25.8099 49.609 19.0019 43.4522C18.5283 42.9786 19.0019 42.3273 19.5939 42.7417C27.1123 47.1225 35.7555 49.313 44.3987 49.313C50.9107 49.313 57.3635 47.9514 63.4019 45.465C64.2307 45.1098 65.1187 46.1162 64.1123 46.7674ZM65.0003 50.4377C64.7635 50.9113 65.2371 51.1482 65.7699 50.793C68.7299 48.3066 69.4995 43.1561 68.8483 42.3865C68.2563 41.6761 63.0467 41.0249 59.9683 43.2745C59.4947 43.6297 59.6131 44.1626 60.0867 43.985C61.8035 43.7482 65.7699 43.2745 66.4803 44.2217C67.1907 45.2873 65.5923 48.8393 65.0003 50.4377Z" fill="#FF9900"/>
<path d="M73.3487 98.4515C72.6383 98.1555 72.1647 97.8594 71.8095 97.5042C71.5135 97.149 71.3359 96.6754 71.3359 96.1426C71.3359 95.373 71.6319 94.7811 72.1647 94.3075C72.6975 93.8339 73.4079 93.6562 74.3551 93.6562C75.1247 93.6562 75.8943 93.7746 76.6639 94.0706V95.2546C75.8351 95.0178 75.1247 94.8995 74.4735 94.8995C73.4079 94.8995 72.8159 95.2546 72.8159 96.0242C72.8159 96.3202 72.9343 96.557 73.1119 96.7346C73.2895 96.9122 73.6447 97.0899 74.1775 97.2675L75.2431 97.6226C75.9535 97.8594 76.4271 98.2147 76.7231 98.5699C77.0191 98.9251 77.1967 99.3987 77.1967 99.9315C77.1967 100.76 76.9007 101.411 76.3087 101.885C75.7167 102.359 74.9471 102.595 73.9407 102.595C73.5263 102.595 73.0527 102.536 72.6383 102.477C72.2239 102.359 71.8095 102.24 71.5135 102.122V100.938C71.9279 101.056 72.3423 101.175 72.7567 101.234C73.2303 101.293 73.5855 101.352 73.9407 101.352C74.5327 101.352 74.9471 101.234 75.2431 101.056C75.5391 100.819 75.7167 100.523 75.7167 100.168C75.7167 99.8722 75.5983 99.6355 75.4207 99.4579C75.2431 99.2803 74.8879 99.1027 74.4143 98.9251L73.3487 98.4515Z" fill="#242E3D"/>
<path d="M79.6819 99.5779C79.6819 100.229 79.8595 100.643 80.2147 100.939C80.5699 101.235 81.0435 101.354 81.6947 101.354C82.2867 101.354 82.9971 101.235 83.7075 100.999V102.005C83.4115 102.123 83.1155 102.242 82.7011 102.36C82.2867 102.479 81.9315 102.479 81.5171 102.479C80.5107 102.479 79.6819 102.183 79.1491 101.65C78.6163 101.058 78.3203 100.288 78.3203 99.1635C78.3203 98.0979 78.5571 97.2691 79.0899 96.6771C79.6227 96.0851 80.3331 95.7891 81.2803 95.7891C82.0499 95.7891 82.7011 96.0259 83.1155 96.4403C83.5299 96.8547 83.7667 97.5059 83.7667 98.3347C83.7667 98.7491 83.7075 99.1635 83.6483 99.4595H79.6819V99.5779ZM81.2803 96.9731C80.8659 96.9731 80.4515 97.1507 80.2147 97.3875C79.9187 97.6835 79.8003 98.0979 79.7411 98.5715H82.5827V98.4531C82.5827 97.9795 82.4643 97.5651 82.2275 97.3283C81.9907 97.0915 81.6947 96.9731 81.2803 96.9731Z" fill="#242E3D"/>
<path d="M87.6772 102.3C87.3812 102.418 87.0852 102.477 86.73 102.477C86.2564 102.477 85.842 102.359 85.6052 102.063C85.3684 101.767 85.25 101.353 85.25 100.82V93.2422H86.73V100.701C86.73 100.879 86.7892 101.057 86.8484 101.116C86.9076 101.175 87.026 101.234 87.2628 101.234C87.3812 101.234 87.5588 101.234 87.7364 101.175V102.3H87.6772Z" fill="#242E3D"/>
<path d="M89.9827 99.5779C89.9827 100.229 90.1603 100.643 90.5155 100.939C90.8707 101.235 91.3443 101.354 91.9955 101.354C92.5875 101.354 93.2979 101.235 94.0083 100.999V102.005C93.7123 102.123 93.4163 102.242 93.0019 102.36C92.5875 102.479 92.2323 102.479 91.8179 102.479C90.8115 102.479 89.9827 102.183 89.4499 101.65C88.9171 101.058 88.6211 100.288 88.6211 99.1635C88.6211 98.0979 88.8579 97.2691 89.3907 96.6771C89.9235 96.0851 90.6339 95.7891 91.5811 95.7891C92.3507 95.7891 93.0019 96.0259 93.4163 96.4403C93.8307 96.8547 94.0675 97.5059 94.0675 98.3347C94.0675 98.7491 94.0083 99.1635 93.9491 99.4595H89.9827V99.5779ZM91.5219 96.9731C91.1075 96.9731 90.6931 97.1507 90.4563 97.3875C90.1603 97.6835 89.9827 98.0979 89.9827 98.5715H92.8243V98.4531C92.8243 97.9795 92.7059 97.5651 92.4691 97.3283C92.2915 97.0915 91.9955 96.9731 91.5219 96.9731Z" fill="#242E3D"/>
<path d="M99.9313 102.121C99.4577 102.358 98.8657 102.535 98.2145 102.535C97.2673 102.535 96.4977 102.239 95.9649 101.707C95.4321 101.115 95.1953 100.345 95.1953 99.3386C95.1953 98.273 95.4913 97.4442 96.0241 96.9114C96.5569 96.3194 97.3265 96.0234 98.2737 96.0234C98.8657 96.0234 99.3985 96.1418 99.9313 96.3786V97.4442C99.3985 97.2666 98.9249 97.2074 98.5105 97.2074C97.9185 97.2074 97.4449 97.385 97.1489 97.681C96.8529 98.0362 96.7345 98.569 96.7345 99.2202V99.3978C96.7345 100.108 96.9121 100.582 97.1489 100.937C97.4449 101.233 97.9185 101.411 98.5105 101.411C98.9249 101.411 99.4577 101.351 99.9313 101.174V102.121Z" fill="#242E3D"/>
<path d="M104.904 102.241C104.49 102.418 104.016 102.478 103.543 102.478C102.891 102.478 102.418 102.359 102.063 102.063C101.767 101.767 101.589 101.294 101.589 100.642V97.268H100.523V96.3208L101.648 96.1432L101.885 94.3672H103.069V96.084H104.845V97.2088H103.069V100.524C103.069 100.82 103.128 100.998 103.247 101.116C103.365 101.234 103.602 101.294 103.957 101.294C104.312 101.294 104.608 101.294 104.904 101.175V102.241Z" fill="#242E3D"/>
<path d="M111.238 102.357V95.0166H108.574V93.7734H115.441V95.0166H112.777V102.357H111.238Z" fill="#242E3D"/>
<path d="M116.564 102.358V96.0826H117.985V102.358H116.564ZM117.275 95.017C116.979 95.017 116.801 94.9578 116.624 94.7802C116.446 94.6026 116.387 94.425 116.387 94.1882C116.387 93.8922 116.446 93.7146 116.624 93.5962C116.801 93.4186 116.979 93.3594 117.275 93.3594C117.571 93.3594 117.748 93.4186 117.926 93.5962C118.104 93.7146 118.163 93.9514 118.163 94.1882C118.163 94.425 118.104 94.6618 117.926 94.7802C117.748 94.9578 117.571 95.017 117.275 95.017Z" fill="#242E3D"/>
<path d="M120.826 99.5779C120.826 100.229 121.004 100.643 121.359 100.939C121.714 101.235 122.188 101.354 122.839 101.354C123.431 101.354 124.142 101.235 124.852 100.999V102.005C124.556 102.123 124.26 102.242 123.846 102.36C123.431 102.479 123.076 102.479 122.662 102.479C121.655 102.479 120.826 102.183 120.294 101.65C119.761 101.058 119.465 100.288 119.465 99.1635C119.465 98.0979 119.702 97.2691 120.234 96.6771C120.767 96.0851 121.478 95.7891 122.425 95.7891C123.194 95.7891 123.846 96.0259 124.26 96.4403C124.674 96.8547 124.911 97.5059 124.911 98.3347C124.911 98.7491 124.852 99.1635 124.793 99.4595H120.826V99.5779ZM122.425 96.9731C122.01 96.9731 121.596 97.1507 121.359 97.3875C121.063 97.6835 120.945 98.0979 120.886 98.5715H123.727V98.4531C123.727 97.9795 123.609 97.5651 123.372 97.3283C123.135 97.0915 122.839 96.9731 122.425 96.9731Z" fill="#242E3D"/>
<path d="M126.391 102.358V96.0826H127.575L127.752 97.0298C128.107 96.6746 128.403 96.4378 128.699 96.2602C128.995 96.0826 129.291 96.0234 129.647 96.0234C129.824 96.0234 129.943 96.0234 130.12 96.0826V97.385C129.883 97.3258 129.647 97.3258 129.41 97.3258C128.818 97.3258 128.285 97.5034 127.811 97.7994V102.358H126.391Z" fill="#242E3D"/>
<path d="M87.2628 110.764C86.5524 110.468 86.0788 110.172 85.7236 109.817C85.4276 109.462 85.25 108.988 85.25 108.455C85.25 107.686 85.546 107.094 86.0788 106.62C86.6116 106.146 87.322 105.969 88.2692 105.969C89.0388 105.969 89.8084 106.087 90.578 106.383V107.567C89.7492 107.33 89.0388 107.212 88.3876 107.212C87.322 107.212 86.73 107.567 86.73 108.337C86.73 108.633 86.8484 108.87 87.026 109.047C87.2036 109.225 87.5588 109.402 88.0916 109.58L89.1572 109.935C89.8084 110.172 90.3412 110.527 90.6372 110.882C90.9332 111.238 91.1108 111.711 91.1108 112.244C91.1108 113.073 90.8148 113.724 90.2228 114.198C89.6308 114.671 88.8612 114.908 87.8548 114.908C87.4404 114.908 86.9668 114.849 86.5524 114.79C86.138 114.671 85.7236 114.553 85.4276 114.434V113.25C85.842 113.369 86.2564 113.487 86.6708 113.546C87.1444 113.606 87.4996 113.665 87.8548 113.665C88.4468 113.665 88.8612 113.546 89.1572 113.369C89.4532 113.132 89.6308 112.836 89.6308 112.481C89.6308 112.185 89.5124 111.948 89.3348 111.77C89.1572 111.593 88.802 111.415 88.3284 111.238L87.2628 110.764Z" fill="#242E3D"/>
<path d="M93.6546 111.89C93.6546 112.542 93.8322 112.956 94.1874 113.252C94.5426 113.548 95.0162 113.666 95.6674 113.666C96.2594 113.666 96.9698 113.548 97.6802 113.311V114.318C97.3842 114.436 97.0882 114.554 96.6738 114.673C96.2594 114.791 95.9042 114.791 95.4898 114.791C94.4834 114.791 93.6546 114.495 93.1218 113.962C92.589 113.37 92.293 112.601 92.293 111.476C92.293 110.41 92.5298 109.582 93.0626 108.99C93.5954 108.398 94.3058 108.102 95.253 108.102C96.0226 108.102 96.6738 108.338 97.0882 108.753C97.5026 109.167 97.7394 109.818 97.7394 110.647C97.7394 111.062 97.6802 111.476 97.621 111.772H93.6546V111.89ZM95.1938 109.286C94.7794 109.286 94.365 109.404 94.1282 109.7C93.8322 109.996 93.7138 110.41 93.6546 110.884H96.4962V110.766C96.4962 110.292 96.3778 109.878 96.141 109.641C95.9042 109.463 95.6082 109.286 95.1938 109.286Z" fill="#242E3D"/>
<path d="M99.1602 114.67V108.395H100.403L100.581 109.342C100.936 108.987 101.232 108.75 101.528 108.573C101.824 108.395 102.12 108.336 102.475 108.336C102.653 108.336 102.771 108.336 102.949 108.395V109.698C102.712 109.638 102.475 109.638 102.239 109.638C101.647 109.638 101.114 109.816 100.64 110.112V114.67H99.1602Z" fill="#242E3D"/>
<path d="M105.615 114.674L103.188 108.398H104.727L106.325 113.371L107.924 108.398H109.404L106.976 114.674H105.615Z" fill="#242E3D"/>
<path d="M110.408 114.674V108.398H111.829V114.674H110.408ZM111.118 107.392C110.822 107.392 110.645 107.333 110.467 107.155C110.29 106.978 110.23 106.8 110.23 106.563C110.23 106.267 110.29 106.09 110.467 105.971C110.645 105.794 110.822 105.734 111.118 105.734C111.414 105.734 111.592 105.794 111.77 105.971C111.947 106.09 112.006 106.326 112.006 106.563C112.006 106.8 111.947 107.037 111.77 107.155C111.651 107.333 111.414 107.392 111.118 107.392Z" fill="#242E3D"/>
<path d="M118.103 114.434C117.63 114.67 117.038 114.848 116.386 114.848C115.439 114.848 114.67 114.552 114.137 114.019C113.604 113.427 113.367 112.658 113.367 111.651C113.367 110.586 113.663 109.757 114.196 109.224C114.729 108.632 115.498 108.336 116.446 108.336C117.038 108.336 117.57 108.454 118.103 108.691V109.757C117.57 109.579 117.097 109.52 116.682 109.52C116.09 109.52 115.617 109.698 115.321 109.994C115.025 110.349 114.906 110.882 114.906 111.533V111.71C114.906 112.421 115.025 112.894 115.321 113.25C115.617 113.546 116.09 113.723 116.682 113.723C117.097 113.723 117.63 113.664 118.103 113.486V114.434Z" fill="#242E3D"/>
<path d="M120.412 111.89C120.412 112.542 120.59 112.956 120.945 113.252C121.3 113.548 121.774 113.666 122.425 113.666C123.017 113.666 123.728 113.548 124.438 113.311V114.318C124.142 114.436 123.846 114.554 123.432 114.673C123.076 114.791 122.662 114.791 122.248 114.791C121.241 114.791 120.412 114.495 119.88 113.962C119.347 113.37 119.051 112.601 119.051 111.476C119.051 110.41 119.288 109.582 119.82 108.99C120.353 108.398 121.064 108.102 122.011 108.102C122.78 108.102 123.432 108.338 123.846 108.753C124.26 109.167 124.497 109.818 124.497 110.647C124.497 111.062 124.438 111.476 124.379 111.772H120.412V111.89ZM122.011 109.286C121.596 109.286 121.182 109.404 120.945 109.7C120.649 109.996 120.531 110.41 120.472 110.884H123.313V110.766C123.313 110.292 123.195 109.878 122.958 109.641C122.721 109.463 122.425 109.286 122.011 109.286Z" fill="#242E3D"/>
<path d="M128.819 113.009C128.819 112.832 128.759 112.654 128.641 112.595C128.522 112.477 128.286 112.358 127.99 112.24L126.983 111.825C126.036 111.47 125.622 110.878 125.622 110.109C125.622 109.517 125.858 109.102 126.273 108.747C126.687 108.392 127.279 108.273 127.99 108.273C128.7 108.273 129.292 108.392 129.825 108.688V109.694C129.174 109.517 128.582 109.398 128.049 109.398C127.694 109.398 127.398 109.457 127.22 109.576C127.042 109.694 126.924 109.872 126.924 110.109C126.924 110.286 126.983 110.464 127.102 110.523C127.22 110.641 127.457 110.76 127.753 110.878L128.7 111.233C129.174 111.411 129.529 111.648 129.766 111.944C130.002 112.181 130.121 112.536 130.121 112.95C130.121 113.542 129.884 114.075 129.47 114.43C129.055 114.785 128.404 114.963 127.635 114.963C127.22 114.963 126.865 114.904 126.51 114.845C126.154 114.785 125.799 114.667 125.562 114.489V113.483C126.332 113.72 127.043 113.897 127.635 113.897C128.049 113.897 128.345 113.838 128.523 113.72C128.759 113.483 128.819 113.246 128.819 113.009Z" fill="#242E3D"/>
</g>
<defs>
<clipPath id="clip0_4525_6182">
<rect width="148" height="148" fill="white"/>
</clipPath>
</defs>
</svg>
