<svg width="20" height="20" viewBox="0 0 20 20" fill="none" xmlns="http://www.w3.org/2000/svg">
<path d="M15.5451 8.17391C15.4288 8.31939 15.3131 8.46556 15.1989 8.61097V15.6316C15.1989 16.233 14.7095 16.7225 14.1081 16.7225H3.27251C2.67034 16.7225 2.18167 16.233 2.18167 15.6316V4.79595C2.18167 4.19378 2.67034 3.70511 3.27251 3.70511H13.5023C13.911 3.21644 14.2899 2.76842 14.6884 2.32117L15.0288 1.93358L15.2251 1.71976C14.8768 1.59253 14.5001 1.52344 14.1081 1.52344H3.27251C1.46754 1.52344 0 2.99098 0 4.79595V15.6316C0 17.4358 1.46754 18.9041 3.27251 18.9041H14.1082C15.9124 18.9041 17.3807 17.4359 17.3807 15.6316V5.95734C16.8127 6.61549 16.2164 7.33615 15.5451 8.17391Z" fill="#248B04"/>
<path d="M19.843 0.548054C19.5281 0.0168226 18.8422 -0.158414 18.3109 0.156551C18.0135 0.332861 17.7373 0.534173 17.4686 0.74415C17.3327 0.848218 17.2078 0.961029 17.0811 1.07323C16.9554 1.18619 16.832 1.30161 16.7098 1.41833C16.4628 1.65009 16.2411 1.90232 16.0125 2.14926L15.6716 2.52121L15.3395 2.89898C14.893 3.40031 14.4634 3.91282 14.0347 4.42588L13.401 5.2016L12.7839 5.98859C11.969 7.04308 11.1755 8.11068 10.4162 9.20113C10.0346 9.74502 9.66092 10.294 9.2902 10.8451C9.154 11.051 9.0191 11.258 8.88413 11.4648C8.59355 11.2228 8.33173 10.9545 8.09583 10.6549C7.61583 10.053 7.24158 9.3167 6.92999 8.5189L6.92293 8.5008C6.7148 7.97133 6.12873 7.6865 5.57833 7.8609C5.00384 8.04288 4.68566 8.6561 4.86764 9.23058C5.01957 9.71028 5.19542 10.192 5.4159 10.6674C5.63677 11.1419 5.9002 11.6118 6.21723 12.0564C6.53458 12.5 6.90483 12.9162 7.31114 13.2846C7.71667 13.6546 8.1571 13.9743 8.60605 14.2501C9.15361 14.5852 9.87618 14.436 10.2412 13.8995L10.2632 13.8672C10.6263 13.3336 10.9987 12.8043 11.3726 12.2766C11.7471 11.749 12.1244 11.2234 12.509 10.7034C13.2791 9.66426 14.0579 8.63286 14.8636 7.6263C15.6697 6.6199 16.4905 5.6296 17.3432 4.67443L17.662 4.31529L17.9873 3.96413C18.2049 3.73099 18.4197 3.49394 18.6339 3.25966C18.8471 3.02399 19.0488 2.77528 19.2485 2.5265C19.4485 2.27825 19.6409 2.02134 19.8122 1.73943L19.8377 1.69787C20.0443 1.35644 20.0608 0.915245 19.843 0.548054Z" fill="#248B04"/>
</svg>
