<svg width="20" height="20" viewBox="0 0 20 20" fill="none" xmlns="http://www.w3.org/2000/svg">
<path d="M19.1916 4.63256C19.1376 4.67292 16.8765 6.44694 16.8765 6.44694V15.6652C16.8765 16.333 16.3331 16.8765 15.6653 16.8765H3.6337C2.96507 16.8765 2.42247 16.333 2.42247 15.6652V3.6337C2.42247 2.96507 2.96507 2.42247 3.6337 2.42247H14.5179C15.4683 1.73851 16.4518 1.08529 17.4547 0.472351C16.9265 0.17116 16.3153 0 15.6652 0H3.6337C1.62951 0 0 1.62951 0 3.6337V15.6653C0 17.6686 1.62951 19.299 3.6337 19.299H15.6653C17.6686 19.299 19.299 17.6687 19.299 15.6653V4.55269L19.1916 4.63256Z" fill="#DD2A37"/>
<path d="M18.1607 1.17548C16.8478 1.97056 15.5759 2.82772 14.3546 3.74126C13.1353 4.65701 11.9446 5.60801 10.7965 6.60218C10.4767 6.88115 10.1587 7.16199 9.84208 7.44436C9.74237 7.32651 9.64282 7.20857 9.54745 7.08697L9.10873 6.51677L8.88887 6.23227L8.68254 5.93653L8.26698 5.34727C8.19545 5.25079 8.13253 5.14783 8.06849 5.04573C8.00394 4.94398 7.93122 4.84758 7.84811 4.75749C7.76423 4.6679 7.6709 4.58403 7.5637 4.5079C7.45529 4.43245 7.33727 4.36237 7.18553 4.31102L7.01317 4.25235C6.89072 4.21165 6.76069 4.18678 6.62547 4.18023C5.82621 4.14148 5.14693 4.758 5.10819 5.55726C5.07702 6.20136 5.37506 6.66196 5.68562 7.10434L6.15848 7.76718L6.3964 8.09741L6.6511 8.41631L7.1627 9.0519C7.30065 9.21522 7.44542 9.37336 7.58916 9.53225C7.53926 9.58062 7.48833 9.62797 7.43852 9.67651L6.62666 10.4736C6.35927 10.7431 6.08891 11.0087 5.82408 11.2812C5.5578 11.5519 5.3026 11.8341 5.07157 12.1398C4.95474 12.2907 4.84404 12.4496 4.73973 12.6131C4.68778 12.6947 4.63694 12.7786 4.58866 12.8654C4.53995 12.9511 4.49508 13.0395 4.44961 13.1368C4.29267 13.4782 4.28594 13.8916 4.47132 14.2516C4.79141 14.8726 5.55431 15.1167 6.17543 14.7967L6.24908 14.7587C6.32896 14.7176 6.41079 14.6688 6.48871 14.6173C6.56679 14.5667 6.64284 14.5136 6.71888 14.4592C6.87028 14.3505 7.01326 14.2354 7.15521 14.117C7.43767 13.8805 7.70173 13.6259 7.95702 13.3619C8.21095 13.0971 8.47161 12.8376 8.72861 12.5752L9.51032 11.7974C9.57572 11.7335 9.64154 11.6701 9.70703 11.6063C9.83033 11.7118 9.95482 11.816 10.0826 11.9168C10.1881 12.004 10.2948 12.0899 10.402 12.1751L10.7343 12.4192L11.0665 12.6624C11.177 12.7437 11.2942 12.8176 11.4077 12.8952C11.5219 12.9722 11.6364 13.0487 11.7518 13.1236C11.8675 13.1984 11.9883 13.2675 12.1062 13.3393C12.2253 13.4099 12.342 13.4828 12.4629 13.5511L12.8289 13.7516C12.95 13.8186 13.0767 13.8801 13.2029 13.9419C13.3291 14.0036 13.453 14.0665 13.5847 14.1239C13.7152 14.1819 13.8431 14.2392 13.9813 14.2933C14.0507 14.3207 14.1136 14.3476 14.1882 14.375L14.4295 14.4611C14.9291 14.6395 15.506 14.4691 15.8208 14.0113C16.1958 13.4657 16.0575 12.7193 15.5119 12.3443L15.3059 12.2027L15.2896 12.1915C15.2863 12.189 15.2698 12.1798 15.2606 12.1743L15.195 12.1367C15.152 12.1134 15.1011 12.0817 15.0547 12.0549C14.9604 12.0016 14.8632 11.9372 14.7665 11.8777C14.6693 11.8203 14.5724 11.7539 14.4756 11.6902C14.3788 11.6265 14.2818 11.5637 14.1866 11.4935L13.8986 11.2922C13.8029 11.2243 13.7096 11.1507 13.6151 11.0805C13.5213 11.0087 13.4257 10.9408 13.3336 10.8663C13.2421 10.7906 13.1496 10.7166 13.0569 10.643C12.965 10.5682 12.8703 10.4981 12.7808 10.4197L12.5117 10.1859L12.2427 9.95283C12.1563 9.87049 12.0697 9.78874 11.982 9.70835C11.9324 9.66441 11.8843 9.61852 11.8356 9.57338C12.1265 9.30276 12.4188 9.03376 12.7136 8.76765L13.529 8.02766L14.357 7.30394C14.6317 7.06057 14.9123 6.82631 15.1911 6.58898L15.6098 6.23364L15.8192 6.05583L16.0323 5.88374L16.8823 5.19126C17.1651 4.95947 17.4573 4.74318 17.7442 4.51744L18.1748 4.17955C18.3183 4.06663 18.4669 3.96308 18.6127 3.85426L19.4882 3.20163L19.517 3.18018C20.009 2.81086 20.1503 2.12145 19.8249 1.58413C19.4783 1.01181 18.7332 0.828727 18.1607 1.17548Z" fill="#DD2A37"/>
</svg>
