<svg width="324" height="213" viewBox="0 0 324 213" fill="none" xmlns="http://www.w3.org/2000/svg">
<g filter="url(#filter0_d_5614_3432)">
<path d="M307.301 166.558C302.49 165.968 297.378 164.741 291.967 162.872C267.058 154.27 245.728 159.931 227.977 179.855C210.225 199.78 190.612 207.002 169.14 201.522C147.667 196.043 131.653 182.492 121.099 160.87C110.544 139.248 91.3555 126.967 63.5322 124.027C35.7092 121.087 20.5325 107.683 18.0029 83.8145C15.4734 59.9459 11.9346 37.2946 7.38672 15.8604C6.4849 11.6101 5.69079 7.32295 5 3H307.301V166.558Z" fill="white"/>
</g>
<g filter="url(#filter1_d_5614_3432)">
<path d="M219.79 56.2706H207.763L232.155 91.7781L191.265 149.84H183.988L224.285 91.7781L196.527 49.9375H224.285L240.807 72.895L253.574 55.1956C253.578 55.1984 253.583 55.2015 253.588 55.2043C253.282 55.866 253.093 56.561 253.023 57.2803C252.921 58.3351 253.075 59.4032 253.492 60.5454C253.611 60.8717 253.816 61.1604 254.087 61.3809C254.357 61.6014 254.683 61.7445 255.027 61.7946C255.121 61.808 255.214 61.8149 255.307 61.8149C255.561 61.8149 255.814 61.7648 256.05 61.6665C256.365 61.5356 256.639 61.3232 256.846 61.0524C256.922 60.9556 257.239 60.6233 258.226 60.2597C258.564 60.1348 258.912 60.0321 259.234 59.9497L240.807 86.2208L219.79 56.2706Z" fill="url(#paint0_linear_5614_3432)"/>
<path d="M251.464 117.356H230.039L240.751 101.359L251.464 117.356Z" fill="url(#paint1_linear_5614_3432)"/>
<path d="M259.826 112.13V75.6172L247.633 93.8739L259.826 112.13Z" fill="url(#paint2_linear_5614_3432)"/>
<path d="M255.749 43.6661L259.415 44.7074C259.136 45.7468 258.941 46.8068 258.831 47.8772L258.768 48.4945L264.366 52.9198L264.954 52.7203C265.972 52.3674 266.961 51.9346 267.911 51.4251L269.768 54.7474C269.786 54.7806 269.812 54.8085 269.844 54.8289C269.876 54.8492 269.912 54.8614 269.95 54.8643C269.987 54.8671 270.025 54.8605 270.059 54.8455C270.094 54.8301 270.124 54.8066 270.147 54.7769L272.084 52.3342C272.4 51.9356 272.629 51.4755 272.756 50.9829C272.883 50.4906 272.904 49.9773 272.82 49.4759L272.578 48.0795C276.287 44.6166 279.782 38.8941 279.833 29.6094C279.838 29.3761 279.789 29.145 279.69 28.934C279.591 28.7229 279.444 28.5372 279.261 28.3922C279.078 28.2469 278.865 28.1457 278.636 28.0966C278.407 28.0474 278.171 28.0515 277.944 28.1088C268.907 30.2993 264.127 35.0122 261.601 39.399L260.188 39.4901C259.68 39.5211 259.185 39.6579 258.734 39.8919C258.283 40.1255 257.886 40.4509 257.568 40.8467L255.631 43.2891C255.604 43.3185 255.585 43.3542 255.576 43.3934C255.567 43.4325 255.569 43.4732 255.581 43.5114C255.592 43.5496 255.614 43.5841 255.644 43.6113C255.673 43.6386 255.709 43.6574 255.749 43.6658V43.6661ZM269.189 36.6998C269.524 36.2776 269.978 35.9645 270.492 35.7998C271.006 35.635 271.557 35.6257 272.076 35.7735C272.596 35.9213 273.059 36.2191 273.409 36.63C273.759 37.0405 273.979 37.5454 274.041 38.0808C274.103 38.616 274.006 39.1578 273.76 39.6376C273.514 40.1174 273.131 40.5138 272.66 40.7766C272.188 41.0393 271.65 41.1567 271.111 41.1142C270.573 41.0716 270.06 40.8705 269.636 40.537C269.353 40.3146 269.118 40.0391 268.943 39.7256C268.768 39.4124 268.656 39.0676 268.614 38.7109C268.573 38.3546 268.602 37.9932 268.7 37.648C268.799 37.303 268.965 36.9807 269.189 36.6995V36.6998Z" fill="url(#paint3_linear_5614_3432)"/>
<path d="M262.257 56.7897L262.254 56.7947C261.835 57.3672 261.26 57.7868 260.6 58.0101C260.424 58.0699 260.241 58.1154 260.055 58.1463L260.049 58.1473C259.448 58.2513 258.548 58.4429 257.674 58.7655C256.676 59.1331 255.972 59.5759 255.58 60.0823L255.574 60.0898C255.539 60.1368 255.491 60.1738 255.438 60.1963C255.382 60.2192 255.321 60.227 255.261 60.2182C255.203 60.2095 255.147 60.185 255.101 60.1477C255.055 60.1098 255.019 60.0601 254.999 60.0028C254.875 59.6667 254.502 58.6446 254.618 57.4373C254.697 56.6241 254.982 55.8477 255.465 55.1303L256.443 53.6794L256.509 53.5805L256.403 53.5986H256.403L254.666 53.8977C254.622 53.9052 254.578 53.9039 254.535 53.8939C254.53 53.8927 254.525 53.8914 254.52 53.8898C254.473 53.8767 254.428 53.8523 254.39 53.8187C254.339 53.7733 254.304 53.7148 254.287 53.649C254.271 53.5851 254.275 53.5188 254.298 53.4567L254.3 53.4511C254.729 52.3481 255.302 51.5045 255.957 51.0116C256.428 50.6564 256.95 50.4739 257.507 50.4689C258.159 50.4623 258.875 50.7019 259.63 51.1785L259.63 51.1791C259.648 51.1926 259.662 51.2095 259.672 51.2289C259.682 51.248 259.688 51.2687 259.689 51.2893C259.691 51.3119 259.688 51.3338 259.68 51.3545C259.673 51.3742 259.661 51.3921 259.646 51.4074L259.643 51.4109C259.252 51.7619 258.945 52.2057 258.755 52.6948C258.656 52.9491 258.589 53.215 258.554 53.4846L258.404 54.6508L259.545 54.3599C259.808 54.2926 260.063 54.1939 260.302 54.0662C260.763 53.8197 261.167 53.4633 261.467 53.0358L261.47 53.0321C261.484 53.0139 261.5 52.9992 261.521 52.9883C261.54 52.9773 261.563 52.9707 261.585 52.9691C261.608 52.9676 261.631 52.971 261.653 52.9798C261.674 52.988 261.692 53.0008 261.707 53.0167L261.71 53.0199C261.948 53.2685 262.381 53.7843 262.609 54.4488C262.893 55.2756 262.775 56.0632 262.257 56.7897Z" fill="url(#paint4_linear_5614_3432)"/>
</g>
<path d="M84.2573 71.3984V75.9688H68.7365V83.6857H82.6517V88.0188H68.7365V95.7948H84.733V100.425H63.8008V71.3984H84.2573Z" fill="url(#paint5_linear_5614_3432)"/>
<path d="M94.9933 100.424H90.3549V69.6172H94.9933V100.424Z" fill="url(#paint6_linear_5614_3432)"/>
<path d="M122.366 91.4017H105.001C105.12 92.9845 105.854 94.2706 107.202 95.2599C108.55 96.2492 110.115 96.7441 111.899 96.7441C114.714 96.7441 116.815 95.8734 118.203 94.1324L120.879 97.0408C118.5 99.5339 115.388 100.78 111.543 100.78C108.371 100.78 105.715 99.7316 103.574 97.6344C101.433 95.5371 100.363 92.7668 100.363 89.3244C100.363 85.9606 101.453 83.2299 103.634 81.1326C105.814 79.0353 108.45 77.9865 111.543 77.9865C114.635 77.9865 117.212 78.9167 119.273 80.7763C121.335 82.6364 122.366 85.1099 122.366 88.1965V91.4017ZM117.727 87.7216C117.727 85.9406 117.152 84.5359 116.003 83.5071C114.892 82.4782 113.446 81.9638 111.661 81.9638C109.878 81.9638 108.312 82.4978 106.963 83.5662C105.655 84.635 105.001 86.0197 105.001 87.7216H117.727Z" fill="url(#paint7_linear_5614_3432)"/>
<path d="M133.362 100.424L124.501 78.343H129.317L136.037 95.0229L142.817 78.343H147.633L138.713 100.424H133.362Z" fill="url(#paint8_linear_5614_3432)"/>
<path d="M169.204 100.424H164.982V97.4562C163.119 99.6725 160.661 100.78 157.608 100.78C155.269 100.78 153.346 100.127 151.84 98.8218C150.373 97.4762 149.64 95.7348 149.64 93.598C149.64 91.4612 150.433 89.8388 152.018 88.7305C153.604 87.6225 155.785 87.0685 158.56 87.0685H164.625V86.2374C164.625 83.309 162.98 81.8451 159.69 81.8451C157.628 81.8451 155.488 82.5968 153.267 84.1006L151.186 81.1921C153.921 79.0549 156.974 77.9865 160.344 77.9865C163.079 77.9865 165.24 78.6791 166.826 80.0642C168.412 81.4098 169.204 83.4476 169.204 86.1783V100.424ZM164.566 90.3333H159.333C155.963 90.3333 154.278 91.3821 154.278 93.4794C154.278 94.5478 154.694 95.3789 155.527 95.9724C156.359 96.5264 157.529 96.8036 159.036 96.8036C160.582 96.8036 161.89 96.3878 162.96 95.5571C164.031 94.6864 164.566 93.5585 164.566 92.1733V90.3333Z" fill="url(#paint9_linear_5614_3432)"/>
<path d="M181.462 82.0829V93.3017C181.462 94.3701 181.739 95.2208 182.294 95.8543C182.889 96.4478 183.682 96.7446 184.673 96.7446C185.585 96.7446 186.536 96.2497 187.527 95.2604L189.43 98.5846C187.765 100.049 185.961 100.781 184.019 100.781C181.997 100.781 180.292 100.088 178.905 98.7032C177.517 97.2786 176.823 95.4385 176.823 93.1831V82.0829H174.028V78.3433H176.823V71.3984H181.462V78.3433H187.289V82.0829H181.462Z" fill="url(#paint10_linear_5614_3432)"/>
<path d="M197.797 90.9267V100.424H193.159V78.3428H197.797V82.7354C198.55 81.3503 199.561 80.2224 200.83 79.3521C202.138 78.4814 203.506 78.0261 204.933 77.9865L204.993 82.6759H204.754C202.495 82.6759 200.77 83.408 199.581 84.8722C198.392 86.3364 197.797 88.3546 197.797 90.9267Z" fill="url(#paint11_linear_5614_3432)"/>
<path d="M64.6873 107.488L64.3702 108.205H63.8008L65.1985 105.047H65.7679L67.1591 108.205H66.5897L66.2726 107.488H64.6873ZM66.0591 106.991L65.4832 105.693L64.9073 106.991H66.0591Z" fill="#0E1C29"/>
<path d="M68.1016 105.047H68.6387V108.205H68.1016V105.047Z" fill="#0E1C29"/>
<path d="M69.8984 107.096V106.617H71.4061V107.096H69.8984Z" fill="#0E1C29"/>
<path d="M73.759 105.047C74.2335 105.047 74.5808 105.14 74.8008 105.325C75.0251 105.505 75.1372 105.788 75.1372 106.171C75.1372 106.55 75.0251 106.83 74.8008 107.01C74.5764 107.187 74.2313 107.275 73.7655 107.275H73.209V108.205H72.6719V105.047H73.759ZM73.8237 106.797C74.1084 106.797 74.3068 106.744 74.419 106.636C74.5355 106.528 74.5937 106.358 74.5937 106.126C74.5937 105.91 74.5268 105.757 74.3931 105.667C74.2594 105.576 74.0437 105.531 73.746 105.531H73.209V106.797H73.8237Z" fill="#0E1C29"/>
<path d="M77.3113 107.786C77.5313 107.786 77.7124 107.713 77.8548 107.566C78.0015 107.42 78.0748 107.23 78.0748 106.998C78.0748 106.766 78.0015 106.576 77.8548 106.43C77.7124 106.283 77.5313 106.21 77.3113 106.21C77.0912 106.21 76.9101 106.283 76.7677 106.43C76.6254 106.576 76.5542 106.766 76.5542 106.998C76.5542 107.23 76.6254 107.418 76.7677 107.56C76.9101 107.711 77.0912 107.786 77.3113 107.786ZM77.3113 108.238C76.9489 108.238 76.6469 108.12 76.4053 107.883C76.1638 107.642 76.043 107.347 76.043 106.998C76.043 106.649 76.1638 106.357 76.4053 106.12C76.6469 105.878 76.9489 105.758 77.3113 105.758C77.6736 105.758 77.9756 105.878 78.2172 106.12C78.4588 106.357 78.5795 106.649 78.5795 106.998C78.5795 107.334 78.4588 107.627 78.2172 107.877C77.9756 108.117 77.6736 108.238 77.3113 108.238Z" fill="#0E1C29"/>
<path d="M80.7817 108.2H80.1993L79.3711 105.797H79.8952L80.4905 107.612L81.0923 105.797H81.6164L82.2117 107.612L82.8135 105.797H83.3376L82.5029 108.2H81.9205L81.3511 106.553L80.7817 108.2Z" fill="#0E1C29"/>
<path d="M86.527 107.218H84.6375C84.6505 107.39 84.7303 107.53 84.877 107.637C85.0237 107.745 85.194 107.799 85.3882 107.799C85.6944 107.799 85.9231 107.704 86.074 107.515L86.3653 107.831C86.1064 108.103 85.7678 108.238 85.3493 108.238C85.0042 108.238 84.7152 108.124 84.4822 107.896C84.2493 107.668 84.1328 107.366 84.1328 106.992C84.1328 106.626 84.2515 106.329 84.4887 106.1C84.726 105.872 85.0129 105.758 85.3493 105.758C85.6858 105.758 85.9662 105.859 86.1905 106.061C86.4149 106.264 86.527 106.533 86.527 106.869V107.218ZM86.0223 106.817C86.0223 106.623 85.9597 106.471 85.8346 106.359C85.7138 106.247 85.5564 106.191 85.3623 106.191C85.1682 106.191 84.9978 106.249 84.8511 106.365C84.7087 106.481 84.6375 106.632 84.6375 106.817H86.0223Z" fill="#0E1C29"/>
<path d="M88.0985 107.166V108.199H87.5938V105.797H88.0985V106.275C88.1804 106.124 88.2905 106.001 88.4285 105.906C88.5708 105.812 88.7197 105.762 88.875 105.758L88.8814 106.268H88.8556C88.6097 106.268 88.422 106.348 88.2926 106.507C88.1632 106.666 88.0985 106.886 88.0985 107.166Z" fill="#0E1C29"/>
<path d="M92.1285 107.218H90.2391C90.252 107.39 90.3318 107.53 90.4785 107.637C90.6252 107.745 90.7956 107.799 90.9897 107.799C91.296 107.799 91.5246 107.704 91.6756 107.515L91.9668 107.831C91.7079 108.103 91.3693 108.238 90.9508 108.238C90.6057 108.238 90.3167 108.124 90.0838 107.896C89.8508 107.668 89.7344 107.366 89.7344 106.992C89.7344 106.626 89.853 106.329 90.0902 106.1C90.3275 105.872 90.6144 105.758 90.9508 105.758C91.2873 105.758 91.5677 105.859 91.792 106.061C92.0164 106.264 92.1285 106.533 92.1285 106.869V107.218ZM91.6238 106.817C91.6238 106.623 91.5613 106.471 91.4362 106.359C91.3154 106.247 91.1579 106.191 90.9638 106.191C90.7697 106.191 90.5993 106.249 90.4526 106.365C90.3102 106.481 90.2391 106.632 90.2391 106.817H91.6238Z" fill="#0E1C29"/>
<path d="M93.0391 106.997C93.0391 106.636 93.1534 106.341 93.382 106.112C93.6106 105.884 93.8911 105.77 94.2232 105.77C94.5424 105.77 94.7991 105.906 94.9932 106.177V104.859H95.5044V108.212H94.9932V107.85C94.812 108.117 94.5403 108.25 94.1779 108.25C93.863 108.25 93.5934 108.134 93.3691 107.902C93.1491 107.665 93.0391 107.363 93.0391 106.997ZM94.2879 107.798C94.4907 107.798 94.6611 107.725 94.7991 107.579C94.9372 107.432 95.0062 107.245 95.0062 107.017C95.0062 106.793 94.935 106.603 94.7926 106.448C94.6546 106.293 94.4842 106.216 94.2815 106.216C94.0787 106.216 93.904 106.293 93.7573 106.448C93.615 106.599 93.5438 106.789 93.5438 107.017C93.5438 107.245 93.6171 107.432 93.7638 107.579C93.9105 107.725 94.0852 107.798 94.2879 107.798Z" fill="#0E1C29"/>
<path d="M98.9828 105.841C98.9828 105.974 99.0324 106.071 99.1316 106.131C99.2308 106.205 99.4422 106.28 99.7658 106.357C100.107 106.439 100.355 106.551 100.51 106.693C100.669 106.836 100.749 107.04 100.749 107.307C100.749 107.587 100.644 107.813 100.432 107.985C100.225 108.158 99.9534 108.243 99.6169 108.243C99.1294 108.243 98.6894 108.071 98.2969 107.727L98.6333 107.326C98.9612 107.606 99.2934 107.746 99.6298 107.746C99.7981 107.746 99.934 107.709 100.038 107.636C100.141 107.559 100.193 107.46 100.193 107.339C100.193 107.219 100.145 107.124 100.05 107.055C99.9599 106.986 99.7959 106.924 99.5587 106.868C99.1488 106.773 98.8641 106.661 98.7045 106.532C98.519 106.39 98.4263 106.172 98.4263 105.879C98.4263 105.595 98.5298 105.374 98.7369 105.214C98.9439 105.051 99.2093 104.969 99.5328 104.969C99.9685 104.969 100.342 105.096 100.652 105.35L100.368 105.75C100.273 105.664 100.145 105.595 99.9857 105.543C99.8261 105.488 99.6687 105.46 99.5134 105.46C99.3538 105.46 99.2243 105.494 99.1251 105.563C99.0302 105.628 98.9828 105.72 98.9828 105.841Z" fill="#0E1C29"/>
<path d="M102.948 107.786C103.168 107.786 103.349 107.713 103.492 107.566C103.638 107.42 103.712 107.23 103.712 106.998C103.712 106.766 103.638 106.576 103.492 106.43C103.349 106.283 103.168 106.21 102.948 106.21C102.728 106.21 102.547 106.283 102.404 106.43C102.262 106.576 102.191 106.766 102.191 106.998C102.191 107.23 102.262 107.418 102.404 107.56C102.547 107.711 102.728 107.786 102.948 107.786ZM102.948 108.238C102.586 108.238 102.284 108.12 102.042 107.883C101.8 107.642 101.68 107.347 101.68 106.998C101.68 106.649 101.8 106.357 102.042 106.12C102.284 105.878 102.586 105.758 102.948 105.758C103.31 105.758 103.612 105.878 103.854 106.12C104.095 106.357 104.216 106.649 104.216 106.998C104.216 107.334 104.095 107.627 103.854 107.877C103.612 108.117 103.31 108.238 102.948 108.238Z" fill="#0E1C29"/>
<path d="M105.129 106.998C105.129 106.637 105.254 106.339 105.504 106.107C105.755 105.874 106.063 105.758 106.43 105.758C106.792 105.758 107.098 105.883 107.348 106.132L107.051 106.501C106.844 106.32 106.635 106.23 106.423 106.23C106.208 106.23 106.022 106.301 105.867 106.442C105.716 106.58 105.64 106.759 105.64 106.979C105.64 107.202 105.716 107.392 105.867 107.547C106.022 107.698 106.212 107.773 106.436 107.773C106.661 107.773 106.874 107.672 107.077 107.47L107.374 107.792C107.068 108.09 106.729 108.238 106.359 108.238C106.013 108.238 105.722 108.124 105.485 107.896C105.248 107.663 105.129 107.364 105.129 106.998Z" fill="#0E1C29"/>
<path d="M108.905 108.203H108.401V105.8H108.905V108.203ZM108.336 105.09C108.336 105.004 108.366 104.93 108.427 104.87C108.491 104.806 108.569 104.773 108.66 104.773C108.746 104.773 108.819 104.806 108.88 104.87C108.944 104.93 108.977 105.004 108.977 105.09C108.977 105.18 108.944 105.258 108.88 105.323C108.819 105.383 108.746 105.413 108.66 105.413C108.569 105.413 108.494 105.381 108.433 105.316C108.368 105.256 108.336 105.18 108.336 105.09Z" fill="#0E1C29"/>
<path d="M112.094 108.199H111.634V107.877C111.431 108.117 111.164 108.238 110.832 108.238C110.577 108.238 110.368 108.167 110.204 108.025C110.044 107.879 109.965 107.689 109.965 107.456C109.965 107.224 110.051 107.047 110.224 106.927C110.396 106.806 110.633 106.746 110.936 106.746H111.595V106.656C111.595 106.337 111.417 106.178 111.058 106.178C110.834 106.178 110.601 106.259 110.359 106.423L110.133 106.107C110.431 105.874 110.763 105.758 111.13 105.758C111.427 105.758 111.662 105.833 111.835 105.984C112.007 106.13 112.094 106.352 112.094 106.649V108.199ZM111.589 107.101H111.02C110.653 107.101 110.469 107.216 110.469 107.444C110.469 107.56 110.515 107.651 110.605 107.715C110.696 107.775 110.823 107.806 110.987 107.806C111.155 107.806 111.298 107.76 111.414 107.67C111.531 107.575 111.589 107.452 111.589 107.302V107.101Z" fill="#0E1C29"/>
<path d="M113.813 108.212H113.309V104.859H113.813V108.212Z" fill="#0E1C29"/>
<path d="M119.064 106.667H119.595V107.746C119.298 108.078 118.87 108.243 118.314 108.243C117.844 108.243 117.451 108.088 117.136 107.779C116.821 107.469 116.664 107.081 116.664 106.616C116.664 106.151 116.824 105.761 117.143 105.447C117.466 105.128 117.857 104.969 118.314 104.969C118.771 104.969 119.151 105.1 119.453 105.363L119.168 105.77C118.948 105.585 118.678 105.492 118.359 105.492C118.036 105.492 117.764 105.597 117.544 105.808C117.328 106.015 117.22 106.284 117.22 106.616C117.22 106.947 117.324 107.217 117.531 107.423C117.742 107.626 118.003 107.727 118.314 107.727C118.616 107.727 118.866 107.662 119.064 107.533V106.667Z" fill="#0E1C29"/>
<path d="M121.239 107.166V108.199H120.734V105.797H121.239V106.275C121.321 106.124 121.431 106.001 121.569 105.906C121.711 105.812 121.86 105.762 122.016 105.758L122.022 106.268H121.996C121.75 106.268 121.563 106.348 121.433 106.507C121.304 106.666 121.239 106.886 121.239 107.166Z" fill="#0E1C29"/>
<path d="M124.139 107.786C124.359 107.786 124.54 107.713 124.683 107.566C124.829 107.42 124.903 107.23 124.903 106.998C124.903 106.766 124.829 106.576 124.683 106.43C124.54 106.283 124.359 106.21 124.139 106.21C123.919 106.21 123.738 106.283 123.596 106.43C123.453 106.576 123.382 106.766 123.382 106.998C123.382 107.23 123.453 107.418 123.596 107.56C123.738 107.711 123.919 107.786 124.139 107.786ZM124.139 108.238C123.777 108.238 123.475 108.12 123.233 107.883C122.992 107.642 122.871 107.347 122.871 106.998C122.871 106.649 122.992 106.357 123.233 106.12C123.475 105.878 123.777 105.758 124.139 105.758C124.502 105.758 124.804 105.878 125.045 106.12C125.287 106.357 125.408 106.649 125.408 106.998C125.408 107.334 125.287 107.627 125.045 107.877C124.804 108.117 124.502 108.238 124.139 108.238Z" fill="#0E1C29"/>
<path d="M127.61 108.2H127.027L126.199 105.797H126.723L127.319 107.612L127.921 105.797H128.444L129.04 107.612L129.642 105.797H130.166L129.331 108.2H128.749L128.179 106.553L127.61 108.2Z" fill="#0E1C29"/>
<path d="M131.739 106.21V107.431C131.739 107.547 131.769 107.639 131.829 107.708C131.894 107.773 131.98 107.805 132.088 107.805C132.187 107.805 132.291 107.751 132.399 107.643L132.606 108.005C132.425 108.165 132.228 108.244 132.017 108.244C131.797 108.244 131.612 108.169 131.46 108.018C131.309 107.863 131.234 107.663 131.234 107.417V106.21H130.93V105.803H131.234V105.047H131.739V105.803H132.373V106.21H131.739Z" fill="#0E1C29"/>
<path d="M134.02 108.212H133.516V104.859H134.02V106.242C134.093 106.095 134.203 105.981 134.35 105.899C134.497 105.813 134.654 105.77 134.822 105.77C135.103 105.77 135.325 105.854 135.489 106.022C135.653 106.19 135.735 106.429 135.735 106.739V108.212H135.224V106.894C135.224 106.451 135.041 106.229 134.674 106.229C134.488 106.229 134.333 106.289 134.208 106.409C134.083 106.526 134.02 106.691 134.02 106.907V108.212Z" fill="#0E1C29"/>
<path d="M138.539 107.32C138.539 106.98 138.787 106.676 139.283 106.409C139.15 106.254 139.059 106.133 139.012 106.048C138.968 105.961 138.947 105.851 138.947 105.718C138.947 105.486 139.033 105.303 139.206 105.169C139.378 105.035 139.592 104.969 139.846 104.969C140.096 104.969 140.304 105.033 140.468 105.162C140.631 105.287 140.713 105.458 140.713 105.673C140.713 105.974 140.472 106.256 139.989 106.519C140.192 106.764 140.388 106.991 140.578 107.197C140.673 107.055 140.746 106.893 140.797 106.713L141.166 106.978C141.093 107.175 141.005 107.356 140.901 107.52C140.935 107.554 141.005 107.624 141.108 107.727C141.212 107.826 141.296 107.908 141.36 107.972L141.024 108.289L140.61 107.875C140.338 108.121 140.006 108.243 139.613 108.243C139.307 108.243 139.05 108.16 138.844 107.991C138.641 107.824 138.539 107.6 138.539 107.32ZM139.672 107.804C139.861 107.804 140.064 107.716 140.28 107.539C139.93 107.165 139.689 106.898 139.555 106.739C139.214 106.924 139.044 107.124 139.044 107.339C139.044 107.477 139.102 107.589 139.218 107.675C139.335 107.761 139.486 107.804 139.672 107.804ZM139.452 105.686C139.452 105.768 139.469 105.841 139.503 105.905C139.542 105.97 139.615 106.067 139.723 106.196C140.064 106.028 140.234 105.871 140.234 105.724C140.234 105.613 140.196 105.526 140.118 105.466C140.045 105.402 139.954 105.369 139.846 105.369C139.743 105.369 139.65 105.402 139.568 105.466C139.491 105.531 139.452 105.604 139.452 105.686Z" fill="#0E1C29"/>
<path d="M145.993 107.056L146.821 108.205H146.141L145.384 107.14H144.686V108.205H144.148V105.047H145.326C145.805 105.047 146.148 105.129 146.355 105.293C146.566 105.452 146.672 105.712 146.672 106.074C146.672 106.595 146.446 106.922 145.993 107.056ZM145.346 106.662C145.643 106.662 145.848 106.617 145.961 106.526C146.073 106.436 146.129 106.283 146.129 106.067C146.129 105.861 146.073 105.721 145.961 105.648C145.848 105.57 145.648 105.531 145.359 105.531H144.686V106.662H145.346Z" fill="#0E1C29"/>
<path d="M150.117 107.218H148.227C148.24 107.39 148.32 107.53 148.467 107.637C148.613 107.745 148.784 107.799 148.978 107.799C149.284 107.799 149.513 107.704 149.664 107.515L149.955 107.831C149.696 108.103 149.358 108.238 148.939 108.238C148.594 108.238 148.305 108.124 148.072 107.896C147.839 107.668 147.723 107.366 147.723 106.992C147.723 106.626 147.841 106.329 148.078 106.1C148.316 105.872 148.603 105.758 148.939 105.758C149.276 105.758 149.556 105.859 149.781 106.061C150.005 106.264 150.117 106.533 150.117 106.869V107.218ZM149.612 106.817C149.612 106.623 149.55 106.471 149.424 106.359C149.304 106.247 149.146 106.191 148.952 106.191C148.758 106.191 148.588 106.249 148.441 106.365C148.298 106.481 148.227 106.632 148.227 106.817H149.612Z" fill="#0E1C29"/>
<path d="M151.816 108.2L150.852 105.797H151.376L152.107 107.612L152.845 105.797H153.369L152.398 108.2H151.816Z" fill="#0E1C29"/>
<path d="M156.512 107.218H154.622C154.635 107.39 154.715 107.53 154.861 107.637C155.008 107.745 155.178 107.799 155.372 107.799C155.679 107.799 155.907 107.704 156.059 107.515L156.349 107.831C156.091 108.103 155.752 108.238 155.334 108.238C154.989 108.238 154.7 108.124 154.466 107.896C154.234 107.668 154.117 107.366 154.117 106.992C154.117 106.626 154.236 106.329 154.473 106.1C154.71 105.872 154.997 105.758 155.334 105.758C155.67 105.758 155.951 105.859 156.175 106.061C156.399 106.264 156.512 106.533 156.512 106.869V107.218ZM156.007 106.817C156.007 106.623 155.944 106.471 155.819 106.359C155.698 106.247 155.541 106.191 155.347 106.191C155.153 106.191 154.982 106.249 154.835 106.365C154.693 106.481 154.622 106.632 154.622 106.817H156.007Z" fill="#0E1C29"/>
<path d="M158.079 108.199H157.574V105.797H158.079V106.23C158.161 106.083 158.273 105.969 158.415 105.887C158.562 105.801 158.717 105.758 158.881 105.758C159.162 105.758 159.384 105.842 159.548 106.01C159.712 106.178 159.794 106.417 159.794 106.727V108.199H159.282V106.882C159.282 106.438 159.099 106.216 158.733 106.216C158.547 106.216 158.392 106.277 158.266 106.397C158.142 106.513 158.079 106.679 158.079 106.895V108.199Z" fill="#0E1C29"/>
<path d="M162.681 105.797H163.192V108.2H162.681V107.76C162.599 107.907 162.485 108.023 162.338 108.109C162.196 108.195 162.043 108.238 161.879 108.238C161.602 108.238 161.382 108.155 161.219 107.986C161.055 107.819 160.973 107.58 160.973 107.269V105.797H161.478V107.115C161.478 107.558 161.661 107.78 162.027 107.78C162.213 107.78 162.368 107.72 162.494 107.599C162.618 107.478 162.681 107.311 162.681 107.095V105.797Z" fill="#0E1C29"/>
<path d="M166.664 107.218H164.774C164.787 107.39 164.867 107.53 165.014 107.637C165.16 107.745 165.331 107.799 165.525 107.799C165.831 107.799 166.06 107.704 166.211 107.515L166.502 107.831C166.243 108.103 165.904 108.238 165.486 108.238C165.141 108.238 164.852 108.124 164.619 107.896C164.386 107.668 164.27 107.366 164.27 106.992C164.27 106.626 164.388 106.329 164.625 106.1C164.863 105.872 165.149 105.758 165.486 105.758C165.822 105.758 166.103 105.859 166.327 106.061C166.551 106.264 166.664 106.533 166.664 106.869V107.218ZM166.159 106.817C166.159 106.623 166.097 106.471 165.971 106.359C165.85 106.247 165.693 106.191 165.499 106.191C165.305 106.191 165.134 106.249 164.988 106.365C164.845 106.481 164.774 106.632 164.774 106.817H166.159Z" fill="#0E1C29"/>
<path d="M169.992 107.488L169.675 108.205H169.105L170.503 105.047H171.073L172.464 108.205H171.894L171.577 107.488H169.992ZM171.364 106.991L170.788 105.693L170.212 106.991H171.364Z" fill="#0E1C29"/>
<path d="M173.176 106.998C173.176 106.637 173.301 106.339 173.551 106.107C173.801 105.874 174.11 105.758 174.476 105.758C174.839 105.758 175.145 105.883 175.395 106.132L175.098 106.501C174.89 106.32 174.681 106.23 174.47 106.23C174.254 106.23 174.068 106.301 173.913 106.442C173.762 106.58 173.687 106.759 173.687 106.979C173.687 107.202 173.762 107.392 173.913 107.547C174.068 107.698 174.259 107.773 174.483 107.773C174.707 107.773 174.921 107.672 175.123 107.47L175.421 107.792C175.115 108.09 174.776 108.238 174.405 108.238C174.06 108.238 173.769 108.124 173.531 107.896C173.294 107.663 173.176 107.364 173.176 106.998Z" fill="#0E1C29"/>
<path d="M176.281 106.998C176.281 106.637 176.406 106.339 176.657 106.107C176.907 105.874 177.215 105.758 177.582 105.758C177.944 105.758 178.251 105.883 178.501 106.132L178.203 106.501C177.996 106.32 177.787 106.23 177.575 106.23C177.36 106.23 177.174 106.301 177.019 106.442C176.868 106.58 176.793 106.759 176.793 106.979C176.793 107.202 176.868 107.392 177.019 107.547C177.174 107.698 177.364 107.773 177.588 107.773C177.813 107.773 178.026 107.672 178.229 107.47L178.527 107.792C178.22 108.09 177.882 108.238 177.511 108.238C177.166 108.238 176.874 108.124 176.637 107.896C176.4 107.663 176.281 107.364 176.281 106.998Z" fill="#0E1C29"/>
<path d="M181.789 107.218H179.899C179.912 107.39 179.992 107.53 180.138 107.637C180.285 107.745 180.456 107.799 180.65 107.799C180.956 107.799 181.185 107.704 181.336 107.515L181.627 107.831C181.368 108.103 181.029 108.238 180.611 108.238C180.266 108.238 179.977 108.124 179.744 107.896C179.511 107.668 179.395 107.366 179.395 106.992C179.395 106.626 179.513 106.329 179.75 106.1C179.988 105.872 180.274 105.758 180.611 105.758C180.947 105.758 181.228 105.859 181.452 106.061C181.676 106.264 181.789 106.533 181.789 106.869V107.218ZM181.284 106.817C181.284 106.623 181.221 106.471 181.096 106.359C180.975 106.247 180.818 106.191 180.624 106.191C180.43 106.191 180.259 106.249 180.113 106.365C179.97 106.481 179.899 106.632 179.899 106.817H181.284Z" fill="#0E1C29"/>
<path d="M183.36 108.212H182.855V104.859H183.36V108.212Z" fill="#0E1C29"/>
<path d="M186.839 107.218H184.95C184.963 107.39 185.043 107.53 185.19 107.637C185.336 107.745 185.506 107.799 185.701 107.799C186.007 107.799 186.236 107.704 186.386 107.515L186.678 107.831C186.419 108.103 186.08 108.238 185.662 108.238C185.317 108.238 185.028 108.124 184.795 107.896C184.562 107.668 184.445 107.366 184.445 106.992C184.445 106.626 184.564 106.329 184.801 106.1C185.038 105.872 185.325 105.758 185.662 105.758C185.998 105.758 186.279 105.859 186.503 106.061C186.727 106.264 186.839 106.533 186.839 106.869V107.218ZM186.335 106.817C186.335 106.623 186.272 106.471 186.147 106.359C186.026 106.247 185.869 106.191 185.675 106.191C185.48 106.191 185.31 106.249 185.164 106.365C185.021 106.481 184.95 106.632 184.95 106.817H186.335Z" fill="#0E1C29"/>
<path d="M188.407 107.166V108.199H187.902V105.797H188.407V106.275C188.489 106.124 188.599 106.001 188.737 105.906C188.879 105.812 189.028 105.762 189.184 105.758L189.19 106.268H189.164C188.918 106.268 188.731 106.348 188.601 106.507C188.472 106.666 188.407 106.886 188.407 107.166Z" fill="#0E1C29"/>
<path d="M192.149 108.199H191.689V107.877C191.486 108.117 191.219 108.238 190.887 108.238C190.632 108.238 190.423 108.167 190.259 108.025C190.1 107.879 190.02 107.689 190.02 107.456C190.02 107.224 190.106 107.047 190.278 106.927C190.451 106.806 190.688 106.746 190.99 106.746H191.65V106.656C191.65 106.337 191.471 106.178 191.113 106.178C190.889 106.178 190.656 106.259 190.414 106.423L190.188 106.107C190.486 105.874 190.818 105.758 191.184 105.758C191.482 105.758 191.717 105.833 191.89 105.984C192.062 106.13 192.149 106.352 192.149 106.649V108.199ZM191.644 107.101H191.074C190.708 107.101 190.524 107.216 190.524 107.444C190.524 107.56 190.57 107.651 190.66 107.715C190.751 107.775 190.878 107.806 191.042 107.806C191.21 107.806 191.353 107.76 191.469 107.67C191.586 107.575 191.644 107.452 191.644 107.302V107.101Z" fill="#0E1C29"/>
<path d="M193.985 106.21V107.431C193.985 107.547 194.015 107.639 194.075 107.708C194.14 107.773 194.227 107.805 194.334 107.805C194.433 107.805 194.537 107.751 194.645 107.643L194.852 108.005C194.671 108.165 194.474 108.244 194.263 108.244C194.043 108.244 193.858 108.169 193.706 108.018C193.556 107.863 193.48 107.663 193.48 107.417V106.21H193.176V105.803H193.48V105.047H193.985V105.803H194.619V106.21H193.985Z" fill="#0E1C29"/>
<path d="M196.265 108.203H195.76V105.8H196.265V108.203ZM195.695 105.09C195.695 105.004 195.726 104.93 195.786 104.87C195.851 104.806 195.928 104.773 196.019 104.773C196.105 104.773 196.179 104.806 196.239 104.87C196.303 104.93 196.336 105.004 196.336 105.09C196.336 105.18 196.303 105.258 196.239 105.323C196.179 105.383 196.105 105.413 196.019 105.413C195.928 105.413 195.853 105.381 195.793 105.316C195.728 105.256 195.695 105.18 195.695 105.09Z" fill="#0E1C29"/>
<path d="M198.616 107.786C198.836 107.786 199.017 107.713 199.159 107.566C199.306 107.42 199.38 107.23 199.38 106.998C199.38 106.766 199.306 106.576 199.159 106.43C199.017 106.283 198.836 106.21 198.616 106.21C198.396 106.21 198.215 106.283 198.072 106.43C197.93 106.576 197.859 106.766 197.859 106.998C197.859 107.23 197.93 107.418 198.072 107.56C198.215 107.711 198.396 107.786 198.616 107.786ZM198.616 108.238C198.254 108.238 197.952 108.12 197.71 107.883C197.468 107.642 197.348 107.347 197.348 106.998C197.348 106.649 197.468 106.357 197.71 106.12C197.952 105.878 198.254 105.758 198.616 105.758C198.978 105.758 199.28 105.878 199.522 106.12C199.764 106.357 199.884 106.649 199.884 106.998C199.884 107.334 199.764 107.627 199.522 107.877C199.28 108.117 198.978 108.238 198.616 108.238Z" fill="#0E1C29"/>
<path d="M201.462 108.199H200.957V105.797H201.462V106.23C201.544 106.083 201.656 105.969 201.798 105.887C201.945 105.801 202.1 105.758 202.264 105.758C202.544 105.758 202.766 105.842 202.93 106.01C203.095 106.178 203.177 106.417 203.177 106.727V108.199H202.665V106.882C202.665 106.438 202.482 106.216 202.115 106.216C201.93 106.216 201.774 106.277 201.649 106.397C201.524 106.513 201.462 106.679 201.462 106.895V108.199Z" fill="#0E1C29"/>
<path d="M204.312 107.914C204.312 107.819 204.345 107.739 204.409 107.675C204.474 107.61 204.554 107.578 204.649 107.578C204.744 107.578 204.823 107.61 204.888 107.675C204.958 107.739 204.992 107.819 204.992 107.914C204.992 108.009 204.958 108.091 204.888 108.16C204.823 108.224 204.744 108.256 204.649 108.256C204.55 108.256 204.472 108.222 204.416 108.153C204.347 108.089 204.312 108.009 204.312 107.914Z" fill="#0E1C29"/>
<defs>
<filter id="filter0_d_5614_3432" x="0" y="0" width="312.301" height="210.295" filterUnits="userSpaceOnUse" color-interpolation-filters="sRGB">
<feFlood flood-opacity="0" result="BackgroundImageFix"/>
<feColorMatrix in="SourceAlpha" type="matrix" values="0 0 0 0 0 0 0 0 0 0 0 0 0 0 0 0 0 0 127 0" result="hardAlpha"/>
<feOffset dy="2"/>
<feGaussianBlur stdDeviation="2.5"/>
<feColorMatrix type="matrix" values="0 0 0 0 0 0 0 0 0 0 0 0 0 0 0 0 0 0 0.03 0"/>
<feBlend mode="normal" in2="BackgroundImageFix" result="effect1_dropShadow_5614_3432"/>
<feBlend mode="normal" in="SourceGraphic" in2="effect1_dropShadow_5614_3432" result="shape"/>
</filter>
<filter id="filter1_d_5614_3432" x="140.288" y="3.3625" width="183.244" height="209.177" filterUnits="userSpaceOnUse" color-interpolation-filters="sRGB">
<feFlood flood-opacity="0" result="BackgroundImageFix"/>
<feColorMatrix in="SourceAlpha" type="matrix" values="0 0 0 0 0 0 0 0 0 0 0 0 0 0 0 0 0 0 127 0" result="hardAlpha"/>
<feOffset dy="19"/>
<feGaussianBlur stdDeviation="21.85"/>
<feComposite in2="hardAlpha" operator="out"/>
<feColorMatrix type="matrix" values="0 0 0 0 0 0 0 0 0 0 0 0 0 0 0 0 0 0 0.05 0"/>
<feBlend mode="normal" in2="BackgroundImageFix" result="effect1_dropShadow_5614_3432"/>
<feBlend mode="normal" in="SourceGraphic" in2="effect1_dropShadow_5614_3432" result="shape"/>
</filter>
<linearGradient id="paint0_linear_5614_3432" x1="192.117" y1="2.83289" x2="281.928" y2="18.331" gradientUnits="userSpaceOnUse">
<stop stop-color="#0E1C29"/>
<stop offset="1" stop-color="#323D68"/>
</linearGradient>
<linearGradient id="paint1_linear_5614_3432" x1="232.354" y1="93.8171" x2="256.421" y2="101.202" gradientUnits="userSpaceOnUse">
<stop stop-color="#0E1C29"/>
<stop offset="1" stop-color="#323D68"/>
</linearGradient>
<linearGradient id="paint2_linear_5614_3432" x1="248.95" y1="58.4011" x2="263.849" y2="59.541" gradientUnits="userSpaceOnUse">
<stop stop-color="#0E1C29"/>
<stop offset="1" stop-color="#323D68"/>
</linearGradient>
<linearGradient id="paint3_linear_5614_3432" x1="279.45" y1="28.1935" x2="307.794" y2="101.673" gradientUnits="userSpaceOnUse">
<stop stop-color="#323D68"/>
<stop offset="1" stop-color="#0E1C29"/>
</linearGradient>
<linearGradient id="paint4_linear_5614_3432" x1="284.677" y1="24.3987" x2="296.926" y2="59.7404" gradientUnits="userSpaceOnUse">
<stop stop-color="#323D68"/>
<stop offset="1" stop-color="#0E1C29"/>
</linearGradient>
<linearGradient id="paint5_linear_5614_3432" x1="-188.424" y1="-4.10407" x2="136.706" y2="206.008" gradientUnits="userSpaceOnUse">
<stop stop-color="#0E1C29"/>
<stop offset="1" stop-color="#323D68"/>
</linearGradient>
<linearGradient id="paint6_linear_5614_3432" x1="-188.424" y1="-4.10407" x2="136.706" y2="206.008" gradientUnits="userSpaceOnUse">
<stop stop-color="#0E1C29"/>
<stop offset="1" stop-color="#323D68"/>
</linearGradient>
<linearGradient id="paint7_linear_5614_3432" x1="-188.424" y1="-4.10407" x2="136.706" y2="206.008" gradientUnits="userSpaceOnUse">
<stop stop-color="#0E1C29"/>
<stop offset="1" stop-color="#323D68"/>
</linearGradient>
<linearGradient id="paint8_linear_5614_3432" x1="-188.424" y1="-4.10407" x2="136.706" y2="206.008" gradientUnits="userSpaceOnUse">
<stop stop-color="#0E1C29"/>
<stop offset="1" stop-color="#323D68"/>
</linearGradient>
<linearGradient id="paint9_linear_5614_3432" x1="-188.424" y1="-4.10407" x2="136.706" y2="206.008" gradientUnits="userSpaceOnUse">
<stop stop-color="#0E1C29"/>
<stop offset="1" stop-color="#323D68"/>
</linearGradient>
<linearGradient id="paint10_linear_5614_3432" x1="-188.424" y1="-4.10407" x2="136.706" y2="206.008" gradientUnits="userSpaceOnUse">
<stop stop-color="#0E1C29"/>
<stop offset="1" stop-color="#323D68"/>
</linearGradient>
<linearGradient id="paint11_linear_5614_3432" x1="-188.424" y1="-4.10407" x2="136.706" y2="206.008" gradientUnits="userSpaceOnUse">
<stop stop-color="#0E1C29"/>
<stop offset="1" stop-color="#323D68"/>
</linearGradient>
</defs>
</svg>
