<svg width="1374" height="653" viewBox="0 0 1374 653" fill="none" xmlns="http://www.w3.org/2000/svg">
<mask id="mask0_5186_7608" style="mask-type:alpha" maskUnits="userSpaceOnUse" x="0" y="0" width="1374" height="653">
<path d="M1357 0C1366.39 0 1374 7.61116 1374 17V447C1374 458.046 1365.05 467 1354 467H1061C1049.95 467 1041 475.954 1041 487V508C1041 519.046 1032.05 528 1021 528H953C941.954 528 933 536.954 933 548V633C933 644.046 924.046 653 913 653H17C7.61116 653 0 645.389 0 636V17C3.12485e-06 7.61116 7.61116 0 17 0H1357Z" fill="#161616"/>
</mask>
<g mask="url(#mask0_5186_7608)">
<path d="M815.867 25.3359V607.396" stroke="#727272" stroke-width="0.417252" stroke-miterlimit="10" stroke-linecap="round"/>
<path d="M878.172 25.3359V607.396" stroke="#727272" stroke-width="0.417252" stroke-miterlimit="10" stroke-linecap="round"/>
<path d="M940.477 25.3359V607.396" stroke="#727272" stroke-width="0.417252" stroke-miterlimit="10" stroke-linecap="round"/>
<path d="M1002.76 25.3359V607.396" stroke="#727272" stroke-width="0.417252" stroke-miterlimit="10" stroke-linecap="round"/>
<path d="M1065.07 25.3359V607.396" stroke="#727272" stroke-width="0.417252" stroke-miterlimit="10" stroke-linecap="round"/>
<path d="M1127.36 25.3359V607.396" stroke="#727272" stroke-width="0.417252" stroke-miterlimit="10" stroke-linecap="round"/>
<path d="M1189.66 25.3359V607.396" stroke="#727272" stroke-width="0.417252" stroke-miterlimit="10" stroke-linecap="round"/>
<path d="M1251.96 25.3359V607.396" stroke="#727272" stroke-width="0.417252" stroke-miterlimit="10" stroke-linecap="round"/>
<path d="M1314.25 25.3359V607.396" stroke="#727272" stroke-width="0.417252" stroke-miterlimit="10" stroke-linecap="round"/>
<path d="M1340.3 169.617H794.922" stroke="#727272" stroke-width="0.417252" stroke-miterlimit="10" stroke-linecap="round"/>
<path d="M1340.3 113.617H794.922" stroke="#727272" stroke-width="0.417252" stroke-miterlimit="10" stroke-linecap="round"/>
<path d="M1340.3 57.6172H794.922" stroke="#727272" stroke-width="0.417252" stroke-miterlimit="10" stroke-linecap="round"/>
<path d="M1340.3 225.125H794.922" stroke="#727272" stroke-width="0.417252" stroke-miterlimit="10" stroke-linecap="round"/>
<path d="M1340.3 280.625H794.922" stroke="#727272" stroke-width="0.417252" stroke-miterlimit="10" stroke-linecap="round"/>
<path d="M1340.3 336.133H914.805" stroke="#727272" stroke-width="0.417252" stroke-miterlimit="10" stroke-linecap="round"/>
<path d="M1340.3 391.625H794.922" stroke="#727272" stroke-width="0.417252" stroke-miterlimit="10" stroke-linecap="round"/>
<path d="M1340.3 447.117H794.922" stroke="#727272" stroke-width="0.417252" stroke-miterlimit="10" stroke-linecap="round"/>
<path d="M1340.3 502.625H794.922" stroke="#727272" stroke-width="0.417252" stroke-miterlimit="10" stroke-linecap="round"/>
<path d="M1340.3 558.125H794.922" stroke="#727272" stroke-width="0.417252" stroke-miterlimit="10" stroke-linecap="round"/>
<path d="M1029 300.992L1020 308.492L1025 312.992L1034 306.992L1036 303.992L1032.5 299.992L1029 300.992Z" fill="white"/>
<path d="M1341.44 259.669L1248.56 406.909L1181.73 392.188L1131.9 457.88L1040.15 431.827L994.202 534.471L935.937 509.987L863.452 588.146L756.969 579.084L637.668 652.987H753.981L773.959 632.308L875.902 645.911L952.927 570.021L1017.48 599.462L1062.8 490.726L1137.55 516.779L1195.32 430.692L1253.08 451.087L1357.29 268.731L1372.02 278.912L1373.15 225.688L1325.58 253.994L1341.44 259.669Z" fill="#333333"/>
<path d="M987.5 335.989L983 330.989L988 323.992L997.5 319.992L1008 315.492C1009 315.492 1009.5 317.487 1009 317.989C1010 317.49 1011.5 318.488 1010.5 319.989C1012.1 319.589 1013 321.489 1012 322.489L1005 325.489L1004 326.989L995 332.489L989.5 335.489L987.5 335.989Z" fill="white"/>
<path d="M881 326.984L881.5 323.984L899 331.484L901 342.984L895 352.984L881 326.984Z" fill="white"/>
<path d="M1254.35 128.753C1254.35 128.753 1266.05 122.327 1266.64 122.027C1267.22 121.727 1273.95 117.938 1274.68 118.522C1275.41 119.106 1270.74 121.877 1269.12 123.195C1267.52 124.514 1266.35 126.55 1266.35 128.019C1266.35 129.487 1269.42 130.072 1270.59 129.771C1271.76 129.471 1272.49 130.205 1272.78 130.789C1273.08 131.373 1272.78 132.542 1271.31 132.542C1269.84 132.542 1267.22 132.108 1266.18 132.542C1265.17 132.976 1263.11 135.179 1261.65 134.878C1260.18 134.578 1257.99 132.542 1257.99 132.542L1256.52 133.126" fill="white"/>
<path d="M1254.35 128.753C1254.35 128.753 1266.05 122.327 1266.64 122.027C1267.22 121.727 1273.95 117.938 1274.68 118.522C1275.41 119.106 1270.74 121.877 1269.12 123.195C1267.52 124.514 1266.35 126.55 1266.35 128.019C1266.35 129.487 1269.42 130.072 1270.59 129.771C1271.76 129.471 1272.49 130.205 1272.78 130.789C1273.08 131.373 1272.78 132.542 1271.31 132.542C1269.84 132.542 1267.22 132.108 1266.18 132.542C1265.17 132.976 1263.11 135.179 1261.65 134.878C1260.18 134.578 1257.99 132.542 1257.99 132.542L1256.52 133.126" stroke="#333333" stroke-width="1.25176" stroke-linecap="round" stroke-linejoin="round"/>
<path d="M1249.13 131.554L1254.35 128.75L1257.57 136.06L1252.88 139.715L1249.13 131.554Z" fill="white" stroke="#333333" stroke-width="1.66901" stroke-linecap="round" stroke-linejoin="round"/>
<path d="M1150.96 158.951C1150.96 158.951 1158.97 157.716 1162.52 158.233C1166.08 158.734 1206.74 152.141 1206.74 152.141L1249.14 131.562L1256.49 147.552L1210.81 177.56L1164.56 193.316L1150.97 158.968L1150.96 158.951Z" fill="white" stroke="#333333" stroke-width="1.66901" stroke-linecap="round" stroke-linejoin="round"/>
<path d="M1180.63 257.759L1187.72 266.037C1187.72 266.037 1227.91 273.715 1237.98 281.993C1248.03 290.271 1194.58 379.33 1194.58 379.33L1183.85 372.62L1193.57 310.032C1193.57 310.032 1168.81 307.996 1163.49 307.996C1158.17 307.996 1152.54 363.708 1149 369.032C1145.45 374.356 1107.76 440.949 1107.76 440.949L1093.01 435.592L1115.31 358.984L1112.07 282.577L1180.63 257.742V257.759Z" fill="white" stroke="#333333" stroke-width="1.66901" stroke-miterlimit="10" stroke-linecap="round"/>
<path d="M1109.58 178.063C1109.58 178.063 1078.66 200.662 1078.66 203.449C1078.66 206.236 1111.54 302.137 1113.12 303.339C1114.71 304.541 1165.01 302.588 1165.01 302.588L1164.21 291.84L1171.37 300.919C1171.37 300.919 1179.73 295.027 1183.7 291.055C1187.68 287.083 1197.57 269.158 1197.57 269.158C1197.57 269.158 1170.97 193.568 1168.58 183.621C1166.2 173.674 1156.11 158.553 1150.94 158.953C1145.77 159.354 1116.73 175.276 1116.73 175.276" fill="white"/>
<path d="M1109.58 178.063C1109.58 178.063 1078.66 200.662 1078.66 203.449C1078.66 206.236 1111.54 302.137 1113.12 303.339C1114.71 304.541 1165.01 302.588 1165.01 302.588L1164.21 291.84L1171.37 300.919C1171.37 300.919 1179.73 295.027 1183.7 291.055C1187.68 287.083 1197.57 269.158 1197.57 269.158C1197.57 269.158 1170.97 193.568 1168.58 183.621C1166.2 173.674 1156.11 158.553 1150.94 158.953C1145.77 159.354 1116.73 175.276 1116.73 175.276" stroke="#333333" stroke-width="1.66901" stroke-miterlimit="10" stroke-linecap="round"/>
<path d="M1108.06 168.949C1108.06 168.949 1106.04 178.563 1106.54 183.119C1107.04 187.676 1117.26 204.733 1117.26 204.733L1125.78 196.288L1138.5 196.371C1138.5 196.371 1133.9 175.025 1126.8 167.431C1119.71 159.837 1113.13 159.336 1113.13 159.336L1108.08 168.949H1108.06Z" fill="white" stroke="#333333" stroke-width="1.66901" stroke-miterlimit="10" stroke-linecap="round"/>
<path d="M1106.55 171.492C1106.55 171.492 1108.57 170.991 1109.58 178.068C1110.6 185.144 1123.25 201.367 1125.79 196.293C1128.33 191.236 1127.81 179.587 1126.81 174.012C1125.79 168.438 1121.75 156.805 1121.75 156.805C1121.75 156.805 1111.62 170.474 1106.56 171.492H1106.55Z" fill="white" stroke="#333333" stroke-width="1.66901" stroke-miterlimit="10" stroke-linecap="round"/>
<path d="M1089.04 150.057C1089.04 150.057 1100.54 174.792 1104.71 179.315C1108.88 183.838 1119.33 179.315 1121.08 173.74C1122.82 168.166 1125.6 159.454 1116.21 139.609C1106.81 119.748 1087.65 139.96 1089.04 150.057Z" fill="white" stroke="#333333" stroke-width="1.66901" stroke-miterlimit="10" stroke-linecap="round"/>
<path d="M1106.46 157.624C1107.43 157.624 1108.23 156.832 1108.23 155.855C1108.23 154.878 1107.43 154.086 1106.46 154.086C1105.48 154.086 1104.69 154.878 1104.69 155.855C1104.69 156.832 1105.48 157.624 1106.46 157.624Z" fill="#333333"/>
<path d="M1099.4 158.707C1099.4 159.691 1098.6 160.476 1097.63 160.476C1096.66 160.476 1095.86 159.675 1095.86 158.707C1095.86 157.739 1096.66 156.938 1097.63 156.938C1098.6 156.938 1099.4 157.739 1099.4 158.707Z" fill="#333333"/>
<path d="M1101.07 157.852L1102.79 164.711L1105.36 163.86" stroke="#333333" stroke-width="1.66901" stroke-linecap="round" stroke-linejoin="round"/>
<path d="M1104.23 169.019C1104.23 169.019 1108.23 169.302 1110.24 165.297" stroke="#333333" stroke-width="1.66901" stroke-linecap="round" stroke-linejoin="round"/>
<path d="M1093.34 155.261C1093.34 155.261 1093.34 151.539 1097.07 151.539" stroke="#333333" stroke-width="1.66901" stroke-linecap="round" stroke-linejoin="round"/>
<path d="M1101.92 150.698C1101.92 150.698 1103.64 147.544 1106.8 149.263" stroke="#333333" stroke-width="1.66901" stroke-linecap="round" stroke-linejoin="round"/>
<path d="M1096.59 122.803C1088.1 125.924 1077.85 133.668 1075.11 140.645C1071.98 148.656 1086.61 144.133 1086.61 144.133C1086.61 144.133 1078.25 152.495 1085.23 152.495C1092.2 152.495 1109.96 137.173 1109.96 137.173C1109.96 137.173 1106.47 142.397 1110.31 143.799C1114.15 145.184 1116.24 150.425 1117.97 148.322C1119.71 146.236 1121.46 145.885 1121.46 145.885C1121.46 145.885 1119.37 138.575 1120.08 132.3C1120.78 126.024 1120.78 121.501 1115.9 121.151C1111.03 120.8 1108.26 122.185 1108.24 122.202C1106.77 122.903 1103.49 121.284 1101.7 121.501C1100.15 121.701 1098.43 122.152 1096.63 122.82L1096.59 122.803Z" fill="#333333"/>
<path d="M1115.59 146.74C1115.59 146.74 1118.6 139.33 1120.72 142.134C1122.84 144.954 1124.51 150.646 1123.12 152.331C1121.74 154.017 1117.83 152.498 1117.83 152.498" fill="white"/>
<path d="M1115.59 146.74C1115.59 146.74 1118.6 139.33 1120.72 142.134C1122.84 144.954 1124.51 150.646 1123.12 152.331C1121.74 154.017 1117.83 152.498 1117.83 152.498" stroke="#333333" stroke-width="1.66901" stroke-miterlimit="10" stroke-linecap="round"/>
<path d="M1091.49 120.103C1104.72 114.528 1108.21 122.189 1108.21 122.189C1108.21 122.189 1081.74 118.701 1072.34 142.734" stroke="#333333" stroke-width="0.834505" stroke-miterlimit="10" stroke-linecap="round"/>
<path d="M1119.25 209.252L1144.21 239.027L1138.51 196.367" stroke="#333333" stroke-width="1.66901" stroke-linecap="round" stroke-linejoin="round"/>
<path d="M1144.21 239.031L1142.7 252.233L1160.1 285.48" stroke="#333333" stroke-width="1.66901" stroke-linecap="round" stroke-linejoin="round"/>
<path d="M1098.33 186.523C1098.33 186.523 1097.46 193.8 1100 201.928C1102.54 210.056 1108.13 219.203 1108.13 219.203L1117.79 216.148L1115.25 225.295C1115.25 225.295 1128.97 235.959 1138.64 236.978" stroke="#333333" stroke-width="1.66901" stroke-linecap="round" stroke-linejoin="round"/>
<path d="M1134.57 168.906C1134.57 168.906 1141.18 174.998 1145.23 180.089C1149.3 185.162 1152.34 193.808 1152.34 193.808L1145.73 201.936L1155.4 204.99C1155.4 204.99 1157.93 230.393 1146.75 246.148" stroke="#333333" stroke-width="1.66901" stroke-linecap="round" stroke-linejoin="round"/>
<path d="M1032.84 298.742C1032.84 298.742 1030.47 300.595 1029.94 300.595C1029.4 300.595 1022.94 301.379 1022.94 301.379C1022.94 301.379 1019.64 303.098 1017.94 303.616C1016.22 304.15 1014.9 305.201 1015.43 305.735C1015.97 306.269 1017.42 306.403 1018.47 305.869C1019.52 305.335 1024.14 304.684 1024.14 304.684L1018.07 309.691" fill="white"/>
<path d="M1032.84 298.742C1032.84 298.742 1030.47 300.595 1029.94 300.595C1029.4 300.595 1022.94 301.379 1022.94 301.379C1022.94 301.379 1019.64 303.098 1017.94 303.616C1016.22 304.15 1014.9 305.201 1015.43 305.735C1015.97 306.269 1017.42 306.403 1018.47 305.869C1019.52 305.335 1024.14 304.684 1024.14 304.684L1018.07 309.691" stroke="#333333" stroke-width="1.25176" stroke-linecap="round" stroke-linejoin="round"/>
<path d="M1011.71 310.739C1011.71 310.739 1010.13 309.287 1009.86 310.739C1009.59 312.191 1012.23 314.177 1014.75 314.962" fill="white"/>
<path d="M1011.71 310.739C1011.71 310.739 1010.13 309.287 1009.86 310.739C1009.59 312.191 1012.23 314.177 1014.75 314.962" stroke="#333333" stroke-width="1.25176" stroke-linecap="round" stroke-linejoin="round"/>
<path d="M1018.97 314.82C1017.79 314.687 1013.03 312.968 1011.85 311.649C1010.66 310.331 1012.9 310.865 1012.9 310.865" fill="white"/>
<path d="M1018.97 314.82C1017.79 314.687 1013.03 312.968 1011.85 311.649C1010.66 310.331 1012.9 310.865 1012.9 310.865" stroke="#333333" stroke-width="1.25176" stroke-linecap="round" stroke-linejoin="round"/>
<path d="M1020.42 311.407C1020.42 311.407 1013.3 309.037 1013.3 310.222C1013.3 311.407 1018.84 313.661 1020.56 313.661" fill="white"/>
<path d="M1020.42 311.407C1020.42 311.407 1013.3 309.037 1013.3 310.222C1013.3 311.407 1018.84 313.661 1020.56 313.661" stroke="#333333" stroke-width="1.25176" stroke-linecap="round" stroke-linejoin="round"/>
<path d="M1024 312.053C1024 312.053 1019.77 308.098 1019.24 309.55C1018.71 311.002 1021.88 314.307 1024.13 314.691C1026.37 315.091 1030.86 312.454 1033.11 310.468C1035.35 308.482 1036.28 302.156 1036.28 302.156" fill="white"/>
<path d="M1024 312.053C1024 312.053 1019.77 308.098 1019.24 309.55C1018.71 311.002 1021.88 314.307 1024.13 314.691C1026.37 315.091 1030.86 312.454 1033.11 310.468C1035.35 308.482 1036.28 302.156 1036.28 302.156" stroke="#333333" stroke-width="1.25176" stroke-linecap="round" stroke-linejoin="round"/>
<path d="M1033.11 302.43C1033.11 302.43 1030.2 303.214 1029.02 305.467C1027.83 307.704 1026.78 309.823 1026.78 309.823" fill="white"/>
<path d="M1033.11 302.43C1033.11 302.43 1030.2 303.214 1029.02 305.467C1027.83 307.704 1026.78 309.823 1026.78 309.823" stroke="#333333" stroke-width="0.834505" stroke-linecap="round" stroke-linejoin="round"/>
<path d="M1035.23 294.766L1031.51 298.738L1038.68 306.415L1043.44 299.94L1035.23 294.766Z" fill="white" stroke="#333333" stroke-width="1.66901" stroke-linecap="round" stroke-linejoin="round"/>
<path d="M1078.65 203.445L1071.03 253.749L1035.23 294.74L1047.33 310.729L1087.13 272.075C1090.25 269.054 1092.62 265.332 1094.08 261.243L1101.02 241.565C1101.02 241.565 1100.52 221.237 1092.89 213.109" fill="white"/>
<path d="M1078.65 203.445L1071.03 253.749L1035.23 294.74L1047.33 310.729L1087.13 272.075C1090.25 269.054 1092.62 265.332 1094.08 261.243L1101.02 241.565C1101.02 241.565 1100.52 221.237 1092.89 213.109" stroke="#333333" stroke-width="1.66901" stroke-linecap="round" stroke-linejoin="round"/>
<path d="M1269.12 123.203C1269.12 123.203 1271.31 123.637 1271.46 125.256C1271.61 126.858 1269.99 129.195 1269.99 129.195" stroke="#333333" stroke-width="1.25176" stroke-linecap="round" stroke-linejoin="round"/>
<path d="M1270.73 124.068C1270.73 124.068 1273.5 123.917 1273.8 125.236C1274.1 126.555 1272.63 129.175 1272.63 129.175" stroke="#333333" stroke-width="1.25176" stroke-linecap="round" stroke-linejoin="round"/>
<path d="M1107.74 440.968L1111.1 447.677C1111.1 447.677 1123.83 453.035 1121.15 455.054C1118.46 457.057 1101.7 449.029 1099.7 448.345C1097.7 447.677 1095.66 445.307 1095.66 445.307L1094.71 447.594L1090.32 445.675C1090.32 445.675 1090.5 440.317 1090.5 438.598C1090.5 436.879 1093.01 435.594 1093.01 435.594L1107.76 440.951L1107.74 440.968Z" fill="#333333"/>
<path d="M1194.57 379.327L1194.5 388.056C1194.5 388.056 1207.5 397.185 1204.4 398.453C1201.3 399.722 1191.5 393.229 1189.73 392.078C1187.96 390.91 1182.23 382.531 1182.23 382.531L1180.73 384.501L1176.96 381.53C1176.96 381.53 1178.51 376.406 1178.95 374.737C1179.38 373.068 1183.85 372.617 1183.85 372.617L1194.59 379.327H1194.57Z" fill="#333333"/>
<path d="M889.506 528.147L889.44 536.876C889.44 536.876 902.441 546.005 899.337 547.274C896.233 548.542 886.436 542.05 884.666 540.898C882.897 539.747 877.172 531.351 877.172 531.351L875.67 533.321L871.898 530.35C871.898 530.35 873.451 525.226 873.885 523.557C874.318 521.888 878.791 521.438 878.791 521.438L889.523 528.147H889.506Z" fill="#333333"/>
<path d="M763.561 562.413L763.494 571.141C763.494 571.141 776.496 580.271 773.392 581.539C770.287 582.808 760.49 576.315 758.721 575.164C756.952 573.995 751.227 565.617 751.227 565.617L749.725 567.586L745.953 564.616C745.953 564.616 747.505 559.492 747.939 557.823C748.373 556.154 752.846 555.703 752.846 555.703L763.578 562.413H763.561Z" fill="#333333"/>
<path d="M888.505 309.648C888.505 309.648 895.148 316.524 905.913 317.008C916.678 317.492 918.264 309.881 913.273 299.6C908.283 289.319 899.421 274.031 890.141 273.747C880.845 273.447 870.463 286.248 873.317 294.443C876.171 302.638 888.505 309.648 888.505 309.648Z" fill="white" stroke="#333333" stroke-width="1.66901" stroke-miterlimit="10" stroke-linecap="round"/>
<path d="M888.506 309.646C888.506 309.646 890.309 302.653 890.442 296.961C890.576 291.253 888.273 292.772 886.704 286.246C885.135 279.72 897.636 283.142 896.067 276.616C894.498 270.09 888.807 269.957 879.377 275.364C869.947 280.772 863.605 294.992 870.681 303.137C877.758 311.265 886.17 309.045 888.489 309.646H888.506Z" fill="#333333"/>
<path d="M827.199 452.219L831.689 471.646L814.398 523.085L752.828 555.714L763.56 562.407L842.053 536.537L882.961 472.063L827.199 452.219Z" fill="white" stroke="#333333" stroke-width="1.66901" stroke-miterlimit="10" stroke-linecap="round"/>
<path d="M886.701 438.411C886.701 438.411 970.419 426.444 970.419 442.901C970.419 459.357 890.69 528.371 890.69 528.371L875.502 521.377L910.518 467.001C910.518 467.001 829.17 487.747 826.183 457.104C823.863 433.254 832.158 433.187 832.158 433.187C832.158 433.187 850.1 407.768 865.789 413.009C881.477 418.249 886.718 438.428 886.718 438.428L886.701 438.411Z" fill="white" stroke="#333333" stroke-width="1.66901" stroke-miterlimit="10" stroke-linecap="round"/>
<path d="M893.414 305.852C893.414 305.852 879.361 304.199 881.197 308.689C883.049 313.179 888.223 317.585 893.581 312.511" fill="white"/>
<path d="M893.414 305.852C893.414 305.852 879.361 304.199 881.197 308.689C883.049 313.179 888.223 317.585 893.581 312.511" stroke="#333333" stroke-width="1.66901" stroke-miterlimit="10" stroke-linecap="round"/>
<path d="M903.827 289.891C904.128 290.725 903.677 291.643 902.843 291.943C902.008 292.227 901.09 291.793 900.79 290.959C900.506 290.124 900.94 289.206 901.775 288.906C902.609 288.605 903.527 289.056 903.827 289.891Z" fill="#333333"/>
<path d="M897.516 288.103C897.516 288.103 898.05 284.899 901.254 285.416" stroke="#333333" stroke-width="1.66901" stroke-linecap="round" stroke-linejoin="round"/>
<path d="M907.949 288.492C907.949 288.492 913.624 288.976 913.49 291.847C913.357 294.718 912.239 295.636 912.239 295.636" fill="white"/>
<path d="M907.949 288.492C907.949 288.492 913.624 288.976 913.49 291.847C913.357 294.718 912.239 295.636 912.239 295.636" stroke="#333333" stroke-width="1.66901" stroke-miterlimit="10" stroke-linecap="round"/>
<path d="M905.912 317.008C905.912 317.008 901.273 317.525 900.805 320.863C900.321 324.201 898.419 329.909 898.419 329.909C898.419 329.909 896.983 332.763 892.227 328.474" stroke="#333333" stroke-width="1.66901" stroke-miterlimit="10" stroke-linecap="round"/>
<path d="M882.079 302.698C882.079 302.698 877.652 304.18 877.897 307.542C878.126 310.907 877.467 316.888 877.467 316.888C877.467 316.888 876.665 319.98 871.112 316.788" stroke="#333333" stroke-width="1.66901" stroke-miterlimit="10" stroke-linecap="round"/>
<path d="M787.381 422.492L785.796 430.854L776.249 432.84L776.082 425.713L787.381 422.492Z" fill="white" stroke="#333333" stroke-width="1.66901" stroke-miterlimit="10" stroke-linecap="round"/>
<path d="M836.781 320.969C836.781 320.969 818.672 330.799 808.208 335.272C797.743 339.762 777.565 349.475 776.814 356.202C776.062 362.928 776.062 425.716 776.062 425.716L787.779 424.881L801.482 372.641L843.34 356.953C843.34 356.953 848.731 338.16 836.781 320.969Z" fill="white" stroke="#333333" stroke-width="1.66901" stroke-miterlimit="10" stroke-linecap="round"/>
<path d="M885.285 327.479C889.575 327.963 904.145 337.543 904.145 337.543L901.291 330.4C900.34 323.256 879.978 315.095 879.978 315.095C879.978 315.095 870.369 310.986 861.023 320.331" fill="white"/>
<path d="M885.285 327.479C889.575 327.963 904.145 337.543 904.145 337.543L901.291 330.4C900.34 323.256 879.978 315.095 879.978 315.095C879.978 315.095 870.369 310.986 861.023 320.331" stroke="#333333" stroke-width="1.66901" stroke-miterlimit="10" stroke-linecap="round"/>
<path d="M857.162 319.697C857.162 319.697 845.445 306.913 839.053 301.588C832.661 296.264 825.2 298.401 816.688 306.913C808.16 315.441 791.119 316.493 787.931 316.493C784.743 316.493 776.215 326.073 776.215 326.073L791.119 331.397C791.119 331.397 798.58 334.585 808.16 327.141C817.74 319.681 824.132 310.1 831.593 310.1C839.053 310.1 856.094 328.209 856.094 328.209" fill="#D5641D"/>
<path d="M881.464 325.558C881.464 325.558 839.772 315.727 836.785 320.968C833.797 326.192 820.178 374.143 818.676 396.574C817.174 419.006 814.938 451.885 814.938 451.885C814.938 451.885 827.639 457.86 842.593 457.109C847.917 456.842 855.728 454.288 863.556 451.117C867.979 450.083 873.37 448.43 877.726 445.893C886.688 440.669 904.63 435.429 904.63 435.429L900.892 429.454L891.445 421.359C892.012 414.132 893.548 404.602 897.153 392.836C901.008 380.318 903.061 371.239 904.163 364.963" fill="white"/>
<path d="M881.464 325.558C881.464 325.558 839.772 315.727 836.785 320.968C833.797 326.192 820.178 374.143 818.676 396.574C817.174 419.006 814.938 451.885 814.938 451.885C814.938 451.885 827.639 457.86 842.593 457.109C847.917 456.842 855.728 454.288 863.556 451.117C867.979 450.083 873.37 448.43 877.726 445.893C886.688 440.669 904.63 435.429 904.63 435.429L900.892 429.454L891.445 421.359C892.012 414.132 893.548 404.602 897.153 392.836C901.008 380.318 903.061 371.239 904.163 364.963" stroke="#333333" stroke-width="1.66901" stroke-miterlimit="10" stroke-linecap="round"/>
<path d="M898.887 335.156L916.512 348.959L937.958 362.828L976.513 334.672L984.607 344.202C984.607 344.202 945.553 389.449 941.263 390.867C936.974 392.303 892.211 367.051 892.211 367.051" fill="white"/>
<path d="M898.887 335.156L916.512 348.959L937.958 362.828L976.513 334.672L984.607 344.202C984.607 344.202 945.553 389.449 941.263 390.867C936.974 392.303 892.211 367.051 892.211 367.051" stroke="#333333" stroke-width="1.66901" stroke-miterlimit="10" stroke-linecap="round"/>
<path d="M987.023 325.185C987.023 325.185 991.997 313.686 992.298 316.172C992.615 318.659 991.98 322.698 991.98 322.698" fill="white"/>
<path d="M987.023 325.185C987.023 325.185 991.997 313.686 992.298 316.172C992.615 318.659 991.98 322.698 991.98 322.698" stroke="#333333" stroke-width="1.25176" stroke-linecap="round" stroke-linejoin="round"/>
<path d="M976.512 334.693L982.37 330.805L987.344 336.396L982.687 341.353L976.512 334.693Z" fill="white" stroke="#333333" stroke-width="1.66901" stroke-miterlimit="10" stroke-linecap="round"/>
<path d="M982.371 330.791L987.645 324.265L1003.8 316.804C1003.8 316.804 1008 314.979 1008.77 315.87" fill="white"/>
<path d="M982.371 330.791L987.645 324.265L1003.8 316.804C1003.8 316.804 1008 314.979 1008.77 315.87" stroke="#333333" stroke-width="1.25176" stroke-linecap="round" stroke-linejoin="round"/>
<path d="M1011.88 322.406L998.824 328.615C998.824 328.615 1009.07 325.511 1009.07 327.38C1009.07 329.249 996.654 332.354 995.719 332.354C994.785 332.354 990.746 336.075 987.324 336.393" fill="white"/>
<path d="M1011.88 322.406L998.824 328.615C998.824 328.615 1009.07 325.511 1009.07 327.38C1009.07 329.249 996.654 332.354 995.719 332.354C994.785 332.354 990.746 336.075 987.324 336.393" stroke="#333333" stroke-width="1.25176" stroke-linecap="round" stroke-linejoin="round"/>
<path d="M1009.09 318.047L994.789 323.638" stroke="#333333" stroke-width="1.25176" stroke-linecap="round" stroke-linejoin="round"/>
<path d="M1011.26 319.914C1011.26 319.914 997.591 324.888 996.355 325.505" stroke="#333333" stroke-width="1.25176" stroke-linecap="round" stroke-linejoin="round"/>
<path d="M785.793 430.852C785.793 430.852 790.165 438.412 790.165 440.799C790.165 443.186 782.605 450.746 780.619 448.76C778.633 446.774 784.991 441.199 784.991 441.199C784.991 441.199 782.605 442.001 781.003 438.412" stroke="#333333" stroke-width="1.25176" stroke-linecap="round" stroke-linejoin="round"/>
<path d="M776.244 432.844C776.244 432.844 773.057 440.004 773.057 441.206C773.057 442.407 772.656 451.954 775.043 452.755C777.429 453.556 785.391 451.954 787.777 450.368C790.164 448.783 789.363 443.208 789.363 443.208" stroke="#333333" stroke-width="1.25176" stroke-linecap="round" stroke-linejoin="round"/>
<path d="M781.252 444.531L775.711 446.384" stroke="#333333" stroke-width="1.25176" stroke-linecap="round" stroke-linejoin="round"/>
<path d="M778.352 446.383V452.458" stroke="#333333" stroke-width="0.834505" stroke-linecap="round" stroke-linejoin="round"/>
<path d="M783.106 449.016L782.055 451.92" stroke="#333333" stroke-width="0.834505" stroke-linecap="round" stroke-linejoin="round"/>
<path d="M786.275 446.383C786.275 446.383 786.275 449.02 786.008 450.338" stroke="#333333" stroke-width="0.834505" stroke-linecap="round" stroke-linejoin="round"/>
<path d="M780.734 440.305C780.734 440.305 780.2 445.579 777.562 446.113" stroke="#333333" stroke-width="0.834505" stroke-linecap="round" stroke-linejoin="round"/>
<path d="M1126.29 197.422L1121.49 202.128L1127.78 208.621C1127.78 208.621 1131.88 215.063 1119.73 216.782C1105.83 218.768 1092.7 197.856 1077.77 200.676C1062.85 203.497 1055.34 210.59 1048.1 212.41C1040.86 214.229 1034.35 213.578 1034.35 213.578L1024.63 221.339L1039.45 229.867C1039.45 229.867 1048.72 227.998 1056.29 222.941C1063.85 217.884 1071.32 208.771 1082.53 211.508C1093.75 214.245 1116.21 228.449 1124.14 222.157C1132.08 215.864 1129.83 207.82 1129.83 207.82L1133.35 197.472L1126.29 197.439V197.422Z" fill="#D5641D"/>
<path d="M895.898 279.073C895.898 279.073 899.052 276.369 898.602 270.962C898.151 265.554 891.392 260.597 885.083 263.752C878.774 266.906 884.632 268.258 881.027 270.511C877.422 272.764 872.014 275.919 870.662 280.425C869.311 284.931 871.564 288.987 871.564 288.987" fill="#333333"/>
<path d="M891.844 280.43C891.844 280.43 901.307 279.98 900.406 267.812" stroke="#333333" stroke-width="0.834505" stroke-miterlimit="10" stroke-linecap="round"/>
<path d="M882.833 270.509C882.833 270.509 882.382 268.256 875.172 270.509" stroke="#333333" stroke-width="0.834505" stroke-miterlimit="10" stroke-linecap="round"/>
<g style="mix-blend-mode:multiply">
<path d="M1100.72 237.898L1136.8 301.922L1158.92 303.09L1129.22 309.499L1125.74 362.457L1098.38 430.552L1096.06 431.136L1115.29 358.985L1113.12 303.34L1095.48 255.356C1095.48 255.356 1100.13 241.971 1100.72 237.898Z" fill="#F1813B"/>
</g>
<g style="mix-blend-mode:multiply">
<path d="M1191.88 280.172L1186.54 296.879C1186.54 296.879 1222.63 290.203 1220.62 298.214C1218.62 306.225 1189.88 373.72 1189.88 373.72L1183.84 372.635L1193.55 310.047L1163.48 308.011L1165.01 302.603L1165.81 294.208L1171.37 300.934C1171.37 300.934 1188.53 289.535 1191.87 280.172H1191.88Z" fill="#F1813B"/>
</g>
<g style="mix-blend-mode:multiply">
<path d="M1165.81 174.602L1202.56 171.264L1254.02 142.523L1256.47 147.53L1210.79 177.539L1170.5 193.311L1165.81 174.602Z" fill="#F1813B"/>
</g>
<g style="mix-blend-mode:multiply">
<path d="M1098.33 226.047C1098.33 226.047 1092.99 254.12 1092.99 256.122C1092.99 258.125 1043.54 304.24 1043.54 304.24L1047.33 310.749L1091.64 267.488L1101.02 241.585L1098.33 226.064V226.047Z" fill="#F1813B"/>
</g>
<g style="mix-blend-mode:multiply">
<path d="M868.457 322.942L847.745 345.658C847.745 345.658 875.818 334.292 877.153 340.984C878.488 347.66 848.413 396.446 841.069 408.479C833.725 420.513 856.441 452.574 856.441 452.574L880.491 443.895C880.491 443.895 865.787 451.907 863.117 456.597C860.446 461.27 889.17 456.597 907.212 455.929C925.254 455.261 944.631 443.895 943.296 454.594C941.961 465.292 886.5 524.091 886.5 524.091L873.865 523.574L910.483 467.028L882.945 472.085L843.723 490.027C843.723 490.027 830.354 526.778 827.684 528.114C825.013 529.449 755.516 556.186 755.516 556.186L814.398 523.123L832.357 467.979C832.357 467.979 827.934 463.69 826.131 457.147L814.916 451.923L818.654 396.612L819.656 387.8L823.661 363.75L787.577 367.088L782.236 423.216L776.061 425.753L776.896 360.395C776.896 360.395 776.896 356.389 781.569 351.032C786.242 345.691 822.326 328.984 822.326 328.984L836.763 321.006C836.763 321.006 844.991 319.538 851.066 319.638C857.142 319.738 868.441 322.976 868.441 322.976L868.457 322.942Z" fill="#F1813B"/>
</g>
<path d="M638.85 548.441L595.156 582.138L521.502 560.925L436.016 652.987H492.161L530.248 595.874L597.659 613.348L655.073 559.673L670.061 574.644L696.281 514.727L620.124 534.705L638.85 548.441Z" fill="#333333"/>
<path d="M437.87 537.181L407.156 551.136L333.502 529.923L236.016 652.986H292.161L340.248 551.872L407.659 569.347L447.85 553.421L460.33 572.151L490.29 528.461L429.124 518.703L437.87 537.181Z" fill="#333333"/>
</g>
</svg>
