<svg width="348" height="594" viewBox="0 0 348 594" fill="none" xmlns="http://www.w3.org/2000/svg">
<path d="M0 17C0 7.61116 7.61116 0 17 0H331C340.389 0 348 7.61116 348 17V577C348 586.389 340.389 594 331 594H17C7.61117 594 0 586.389 0 577V17Z" fill="#161616"/>
<g clip-path="url(#clip0_5322_3867)">
<path d="M0 288H348V577C348 586.389 340.389 594 331 594H17C7.61117 594 0 586.389 0 577V288Z" fill="#161616"/>
<g clip-path="url(#clip1_5322_3867)">
<path d="M54.1077 247.442V593.984" stroke="url(#paint0_linear_5322_3867)" stroke-width="0.230598" stroke-miterlimit="10" stroke-linecap="round"/>
<path d="M21.7866 247.442V593.984" stroke="url(#paint1_linear_5322_3867)" stroke-width="0.230598" stroke-miterlimit="10" stroke-linecap="round"/>
<path d="M88.5408 247.442V593.984" stroke="url(#paint2_linear_5322_3867)" stroke-width="0.230598" stroke-miterlimit="10" stroke-linecap="round"/>
<path d="M122.974 247.442V593.984" stroke="url(#paint3_linear_5322_3867)" stroke-width="0.230598" stroke-miterlimit="10" stroke-linecap="round"/>
<path d="M157.395 247.442V593.984" stroke="url(#paint4_linear_5322_3867)" stroke-width="0.230598" stroke-miterlimit="10" stroke-linecap="round"/>
<path d="M191.828 247.442V593.984" stroke="url(#paint5_linear_5322_3867)" stroke-width="0.230598" stroke-miterlimit="10" stroke-linecap="round"/>
<path d="M226.253 247.442V593.984" stroke="url(#paint6_linear_5322_3867)" stroke-width="0.230598" stroke-miterlimit="10" stroke-linecap="round"/>
<path d="M260.685 247.442V593.984" stroke="url(#paint7_linear_5322_3867)" stroke-width="0.230598" stroke-miterlimit="10" stroke-linecap="round"/>
<path d="M295.118 247.442V593.984" stroke="url(#paint8_linear_5322_3867)" stroke-width="0.230598" stroke-miterlimit="10" stroke-linecap="round"/>
<path d="M329.543 247.442V593.984" stroke="url(#paint9_linear_5322_3867)" stroke-width="0.230598" stroke-miterlimit="10" stroke-linecap="round"/>
<path d="M348 315H0" stroke="#727272" stroke-width="0.230598" stroke-miterlimit="10" stroke-linecap="round"/>
<path d="M348 346H0" stroke="#727272" stroke-width="0.230598" stroke-miterlimit="10" stroke-linecap="round"/>
<path d="M348 377H0" stroke="#727272" stroke-width="0.230598" stroke-miterlimit="10" stroke-linecap="round"/>
<path d="M348 407H0" stroke="#727272" stroke-width="0.230598" stroke-miterlimit="10" stroke-linecap="round"/>
<path d="M348 438H0" stroke="#727272" stroke-width="0.230598" stroke-miterlimit="10" stroke-linecap="round"/>
<path d="M348 468H0" stroke="#727272" stroke-width="0.230598" stroke-miterlimit="10" stroke-linecap="round"/>
<path d="M348 499H0" stroke="#727272" stroke-width="0.230598" stroke-miterlimit="10" stroke-linecap="round"/>
<path d="M348 530H0" stroke="#727272" stroke-width="0.230598" stroke-miterlimit="10" stroke-linecap="round"/>
<path d="M348 561H0" stroke="#727272" stroke-width="0.230598" stroke-miterlimit="10" stroke-linecap="round"/>
<path d="M339 592L9 592" stroke="#727272" stroke-width="0.230598" stroke-miterlimit="10" stroke-linecap="round"/>
</g>
<path d="M313.487 318.007C313.487 318.007 315.018 317.924 315.184 318.652C315.35 319.381 314.538 320.829 314.538 320.829" stroke="#333333" stroke-width="0.691793" stroke-linecap="round" stroke-linejoin="round"/>
<path d="M179.896 415.785L174.922 419.93L177.685 422.417L182.659 419.101L183.765 417.443L181.83 415.233L179.896 415.785Z" fill="white"/>
<path d="M331.685 417.428L289.759 484.277L259.593 477.593L237.096 507.419L195.682 495.59L174.941 542.192L148.64 531.076L115.92 566.561L67.8529 562.447L14 596H66.5043L75.5225 586.611L121.54 592.787L156.309 558.332L185.451 571.699L205.906 522.331L239.65 534.16L265.725 495.075L291.801 504.335L338.843 421.542L345.488 426.165L346 402L324.528 414.852L331.685 417.428Z" fill="#333333"/>
<path d="M156.962 435.126L154.475 432.363L157.238 428.496L162.489 426.286L168.292 423.799C168.844 423.799 169.121 424.901 168.844 425.179C169.397 424.903 170.226 425.454 169.673 426.284C170.557 426.063 171.055 427.113 170.502 427.666L166.634 429.324L166.081 430.153L161.107 433.192L158.067 434.85L156.962 435.126Z" fill="white"/>
<path d="M98.1038 430.15L98.3801 428.492L108.052 432.637L109.157 438.993L105.841 444.519L98.1038 430.15Z" fill="white"/>
<path d="M304.437 320.596C304.437 320.596 310.903 317.045 311.226 316.879C311.549 316.713 315.266 314.619 315.672 314.942C316.078 315.265 313.495 316.796 312.6 317.524C311.715 318.253 311.069 319.378 311.069 320.19C311.069 321.002 312.766 321.325 313.412 321.159C314.058 320.993 314.463 321.398 314.62 321.721C314.786 322.044 314.62 322.69 313.809 322.69C312.997 322.69 311.549 322.45 310.977 322.69C310.414 322.93 309.28 324.147 308.468 323.981C307.656 323.815 306.448 322.69 306.448 322.69L305.636 323.013" fill="white"/>
<path d="M304.437 320.596C304.437 320.596 310.903 317.045 311.226 316.879C311.549 316.713 315.266 314.619 315.672 314.942C316.078 315.265 313.495 316.796 312.6 317.524C311.715 318.253 311.069 319.378 311.069 320.19C311.069 321.002 312.766 321.325 313.412 321.159C314.058 320.993 314.463 321.398 314.62 321.721C314.786 322.044 314.62 322.69 313.809 322.69C312.997 322.69 311.549 322.45 310.977 322.69C310.414 322.93 309.28 324.147 308.468 323.981C307.656 323.815 306.448 322.69 306.448 322.69L305.636 323.013" stroke="#333333" stroke-width="0.691793" stroke-linecap="round" stroke-linejoin="round"/>
<path d="M301.552 322.144L304.439 320.594L306.219 324.634L303.627 326.654L301.552 322.144Z" fill="white" stroke="#333333" stroke-width="0.922391" stroke-linecap="round" stroke-linejoin="round"/>
<path d="M247.296 337.285C247.296 337.285 251.724 336.602 253.689 336.888C255.653 337.165 278.123 333.522 278.123 333.522L301.561 322.149L305.619 330.985L280.373 347.57L254.814 356.277L247.306 337.294L247.296 337.285Z" fill="white" stroke="#333333" stroke-width="0.922391" stroke-linecap="round" stroke-linejoin="round"/>
<path d="M263.696 391.892L267.616 396.467C267.616 396.467 289.827 400.71 295.389 405.285C300.942 409.86 271.407 459.079 271.407 459.079L265.476 455.371L270.845 420.781C270.845 420.781 257.166 419.656 254.223 419.656C251.281 419.656 248.172 450.445 246.217 453.388C244.252 456.33 223.424 493.134 223.424 493.134L215.271 490.173L227.594 447.835L225.804 405.608L263.696 391.883V391.892Z" fill="white" stroke="#333333" stroke-width="0.922391" stroke-miterlimit="10" stroke-linecap="round"/>
<path d="M224.43 347.848C224.43 347.848 207.338 360.337 207.338 361.877C207.338 363.418 225.509 416.418 226.385 417.082C227.262 417.746 255.062 416.667 255.062 416.667L254.62 410.727L258.577 415.745C258.577 415.745 263.198 412.489 265.393 410.293C267.588 408.098 273.058 398.192 273.058 398.192C273.058 398.192 258.355 356.417 257.036 350.919C255.717 345.422 250.146 337.065 247.287 337.286C244.427 337.508 228.378 346.307 228.378 346.307" fill="white"/>
<path d="M224.43 347.848C224.43 347.848 207.338 360.337 207.338 361.877C207.338 363.418 225.509 416.418 226.385 417.082C227.262 417.746 255.062 416.667 255.062 416.667L254.62 410.727L258.577 415.745C258.577 415.745 263.198 412.489 265.393 410.293C267.588 408.098 273.058 398.192 273.058 398.192C273.058 398.192 258.355 356.417 257.036 350.919C255.717 345.422 250.146 337.065 247.287 337.286C244.427 337.508 228.378 346.307 228.378 346.307" stroke="#333333" stroke-width="0.922391" stroke-miterlimit="10" stroke-linecap="round"/>
<path d="M223.59 342.811C223.59 342.811 222.474 348.124 222.751 350.642C223.027 353.16 228.672 362.587 228.672 362.587L233.386 357.92L240.414 357.966C240.414 357.966 237.869 346.168 233.948 341.971C230.028 337.775 226.394 337.498 226.394 337.498L223.599 342.811H223.59Z" fill="white" stroke="#333333" stroke-width="0.922391" stroke-miterlimit="10" stroke-linecap="round"/>
<path d="M222.752 344.216C222.752 344.216 223.868 343.939 224.431 347.85C224.993 351.761 231.985 360.727 233.387 357.923C234.789 355.128 234.503 348.69 233.95 345.609C233.387 342.528 231.155 336.099 231.155 336.099C231.155 336.099 225.556 343.653 222.761 344.216H222.752Z" fill="white" stroke="#333333" stroke-width="0.922391" stroke-miterlimit="10" stroke-linecap="round"/>
<path d="M213.076 332.37C213.076 332.37 219.431 346.04 221.737 348.539C224.043 351.039 229.817 348.539 230.785 345.458C231.745 342.378 233.285 337.563 228.092 326.596C222.899 315.619 212.31 326.789 213.076 332.37Z" fill="white" stroke="#333333" stroke-width="0.922391" stroke-miterlimit="10" stroke-linecap="round"/>
<path d="M222.704 336.552C223.244 336.552 223.682 336.114 223.682 335.574C223.682 335.034 223.244 334.596 222.704 334.596C222.164 334.596 221.726 335.034 221.726 335.574C221.726 336.114 222.164 336.552 222.704 336.552Z" fill="#333333"/>
<path d="M218.804 337.15C218.804 337.694 218.361 338.128 217.826 338.128C217.291 338.128 216.849 337.685 216.849 337.15C216.849 336.615 217.291 336.172 217.826 336.172C218.361 336.172 218.804 336.615 218.804 337.15Z" fill="#333333"/>
<path d="M219.725 336.677L220.675 340.469L222.096 339.998" stroke="#333333" stroke-width="0.922391" stroke-linecap="round" stroke-linejoin="round"/>
<path d="M221.47 342.849C221.47 342.849 223.683 343.006 224.79 340.792" stroke="#333333" stroke-width="0.922391" stroke-linecap="round" stroke-linejoin="round"/>
<path d="M215.456 335.246C215.456 335.246 215.456 333.189 217.513 333.189" stroke="#333333" stroke-width="0.922391" stroke-linecap="round" stroke-linejoin="round"/>
<path d="M220.196 332.724C220.196 332.724 221.146 330.981 222.889 331.931" stroke="#333333" stroke-width="0.922391" stroke-linecap="round" stroke-linejoin="round"/>
<path d="M217.253 317.308C212.558 319.032 206.894 323.312 205.382 327.168C203.648 331.595 211.737 329.096 211.737 329.096C211.737 329.096 207.116 333.717 210.971 333.717C214.827 333.717 224.641 325.249 224.641 325.249C224.641 325.249 222.713 328.136 224.835 328.911C226.956 329.677 228.109 332.573 229.069 331.411C230.028 330.258 230.996 330.064 230.996 330.064C230.996 330.064 229.843 326.024 230.231 322.556C230.618 319.088 230.618 316.588 227.925 316.394C225.231 316.201 223.7 316.966 223.691 316.976C222.879 317.363 221.062 316.468 220.075 316.588C219.217 316.699 218.267 316.948 217.271 317.317L217.253 317.308Z" fill="#333333"/>
<path d="M227.752 330.537C227.752 330.537 229.412 326.441 230.584 327.991C231.755 329.55 232.678 332.695 231.912 333.627C231.146 334.558 228.988 333.719 228.988 333.719" fill="white"/>
<path d="M227.752 330.537C227.752 330.537 229.412 326.441 230.584 327.991C231.755 329.55 232.678 332.695 231.912 333.627C231.146 334.558 228.988 333.719 228.988 333.719" stroke="#333333" stroke-width="0.922391" stroke-miterlimit="10" stroke-linecap="round"/>
<path d="M214.431 315.815C221.746 312.734 223.674 316.968 223.674 316.968C223.674 316.968 209.045 315.04 203.852 328.323" stroke="#333333" stroke-width="0.461195" stroke-miterlimit="10" stroke-linecap="round"/>
<path d="M229.771 365.084L243.57 381.54L240.416 357.963" stroke="#333333" stroke-width="0.922391" stroke-linecap="round" stroke-linejoin="round"/>
<path d="M243.57 381.542L242.731 388.838L252.351 407.212" stroke="#333333" stroke-width="0.922391" stroke-linecap="round" stroke-linejoin="round"/>
<path d="M218.213 352.523C218.213 352.523 217.734 356.545 219.136 361.037C220.538 365.529 223.628 370.584 223.628 370.584L228.969 368.896L227.566 373.95C227.566 373.95 235.149 379.844 240.489 380.407" stroke="#333333" stroke-width="0.922391" stroke-linecap="round" stroke-linejoin="round"/>
<path d="M238.238 342.787C238.238 342.787 241.891 346.154 244.132 348.967C246.383 351.771 248.062 356.549 248.062 356.549L244.409 361.041L249.75 362.729C249.75 362.729 251.152 376.768 244.972 385.475" stroke="#333333" stroke-width="0.922391" stroke-linecap="round" stroke-linejoin="round"/>
<path d="M182.02 414.542C182.02 414.542 180.71 415.566 180.415 415.566C180.12 415.566 176.55 415.999 176.55 415.999C176.55 415.999 174.724 416.949 173.783 417.235C172.833 417.53 172.104 418.111 172.399 418.407C172.694 418.702 173.497 418.776 174.078 418.48C174.659 418.185 177.214 417.825 177.214 417.825L173.857 420.593" fill="white"/>
<path d="M182.02 414.542C182.02 414.542 180.71 415.566 180.415 415.566C180.12 415.566 176.55 415.999 176.55 415.999C176.55 415.999 174.724 416.949 173.783 417.235C172.833 417.53 172.104 418.111 172.399 418.407C172.694 418.702 173.497 418.776 174.078 418.48C174.659 418.185 177.214 417.825 177.214 417.825L173.857 420.593" stroke="#333333" stroke-width="0.691793" stroke-linecap="round" stroke-linejoin="round"/>
<path d="M170.341 421.172C170.341 421.172 169.465 420.369 169.317 421.172C169.17 421.974 170.627 423.072 172.02 423.506" fill="white"/>
<path d="M170.341 421.172C170.341 421.172 169.465 420.369 169.317 421.172C169.17 421.974 170.627 423.072 172.02 423.506" stroke="#333333" stroke-width="0.691793" stroke-linecap="round" stroke-linejoin="round"/>
<path d="M174.354 423.427C173.699 423.354 171.07 422.404 170.415 421.675C169.76 420.946 170.996 421.241 170.996 421.241" fill="white"/>
<path d="M174.354 423.427C173.699 423.354 171.07 422.404 170.415 421.675C169.76 420.946 170.996 421.241 170.996 421.241" stroke="#333333" stroke-width="0.691793" stroke-linecap="round" stroke-linejoin="round"/>
<path d="M175.155 421.541C175.155 421.541 171.217 420.231 171.217 420.886C171.217 421.541 174.279 422.786 175.229 422.786" fill="white"/>
<path d="M175.155 421.541C175.155 421.541 171.217 420.231 171.217 420.886C171.217 421.541 174.279 422.786 175.229 422.786" stroke="#333333" stroke-width="0.691793" stroke-linecap="round" stroke-linejoin="round"/>
<path d="M177.13 421.898C177.13 421.898 174.797 419.712 174.502 420.515C174.207 421.317 175.959 423.144 177.204 423.356C178.44 423.577 180.922 422.12 182.167 421.022C183.403 419.924 183.919 416.429 183.919 416.429" fill="white"/>
<path d="M177.13 421.898C177.13 421.898 174.797 419.712 174.502 420.515C174.207 421.317 175.959 423.144 177.204 423.356C178.44 423.577 180.922 422.12 182.167 421.022C183.403 419.924 183.919 416.429 183.919 416.429" stroke="#333333" stroke-width="0.691793" stroke-linecap="round" stroke-linejoin="round"/>
<path d="M182.166 416.58C182.166 416.58 180.561 417.013 179.906 418.258C179.251 419.494 178.67 420.666 178.67 420.666" fill="white"/>
<path d="M182.166 416.58C182.166 416.58 180.561 417.013 179.906 418.258C179.251 419.494 178.67 420.666 178.67 420.666" stroke="#333333" stroke-width="0.461195" stroke-linecap="round" stroke-linejoin="round"/>
<path d="M183.338 412.344L181.281 414.539L185.247 418.782L187.876 415.204L183.338 412.344Z" fill="white" stroke="#333333" stroke-width="0.922391" stroke-linecap="round" stroke-linejoin="round"/>
<path d="M207.339 361.875L203.124 389.676L183.338 412.33L190.026 421.166L212.025 399.804C213.75 398.134 215.059 396.077 215.862 393.818L219.699 382.943C219.699 382.943 219.422 371.708 215.207 367.216" fill="white"/>
<path d="M207.339 361.875L203.124 389.676L183.338 412.33L190.026 421.166L212.025 399.804C213.75 398.134 215.059 396.077 215.862 393.818L219.699 382.943C219.699 382.943 219.422 371.708 215.207 367.216" stroke="#333333" stroke-width="0.922391" stroke-linecap="round" stroke-linejoin="round"/>
<path d="M312.602 317.529C312.602 317.529 313.81 317.769 313.893 318.663C313.976 319.549 313.082 320.84 313.082 320.84" stroke="#333333" stroke-width="0.691793" stroke-linecap="round" stroke-linejoin="round"/>
<path d="M223.415 493.144L225.269 496.852C225.269 496.852 232.307 499.813 230.822 500.929C229.337 502.036 220.076 497.599 218.969 497.221C217.862 496.852 216.737 495.542 216.737 495.542L216.211 496.806L213.785 495.745C213.785 495.745 213.887 492.784 213.887 491.834C213.887 490.884 215.27 490.174 215.27 490.174L223.424 493.135L223.415 493.144Z" fill="#333333"/>
<path d="M271.398 459.077L271.361 463.902C271.361 463.902 278.546 468.947 276.831 469.648C275.115 470.349 269.701 466.761 268.723 466.124C267.745 465.479 264.581 460.848 264.581 460.848L263.751 461.937L261.667 460.295C261.667 460.295 262.525 457.463 262.764 456.541C263.004 455.618 265.476 455.369 265.476 455.369L271.407 459.077H271.398Z" fill="#333333"/>
<path d="M102.804 541.324L102.767 546.148C102.767 546.148 109.952 551.194 108.237 551.895C106.521 552.596 101.107 549.008 100.129 548.371C99.1513 547.735 95.9875 543.095 95.9875 543.095L95.1573 544.183L93.0728 542.542C93.0728 542.542 93.9306 539.71 94.1704 538.787C94.4102 537.865 96.8822 537.616 96.8822 537.616L102.813 541.324H102.804Z" fill="#333333"/>
<path d="M33.2005 560.261L33.1636 565.085C33.1636 565.085 40.349 570.131 38.6333 570.832C36.9177 571.533 31.5033 567.945 30.5255 567.308C29.5478 566.663 26.384 562.032 26.384 562.032L25.5539 563.121L23.4692 561.479C23.4692 561.479 24.3271 558.647 24.5669 557.725C24.8067 556.802 27.2787 556.553 27.2787 556.553L33.2097 560.261H33.2005Z" fill="#333333"/>
<path d="M102.25 420.569C102.25 420.569 105.921 424.369 111.87 424.636C117.82 424.904 118.696 420.698 115.938 415.016C113.18 409.334 108.282 400.885 103.154 400.728C98.0158 400.562 92.2786 407.637 93.8558 412.166C95.4331 416.695 102.25 420.569 102.25 420.569Z" fill="white" stroke="#333333" stroke-width="0.922391" stroke-miterlimit="10" stroke-linecap="round"/>
<path d="M102.25 420.568C102.25 420.568 103.246 416.703 103.32 413.557C103.394 410.403 102.121 411.242 101.254 407.636C100.387 404.029 107.295 405.92 106.428 402.314C105.561 398.707 102.416 398.633 97.2045 401.622C91.993 404.61 88.4879 412.469 92.3988 416.97C96.3097 421.462 100.959 420.236 102.241 420.568H102.25Z" fill="#333333"/>
<path d="M68.3703 499.362L70.8515 510.098L61.2956 538.526L27.2686 556.559L33.1995 560.258L76.5796 545.961L99.1874 510.329L68.3703 499.362Z" fill="white" stroke="#333333" stroke-width="0.922391" stroke-miterlimit="10" stroke-linecap="round"/>
<path d="M101.254 491.731C101.254 491.731 147.521 485.117 147.521 494.212C147.521 503.307 103.458 541.448 103.458 541.448L95.0645 537.583L114.416 507.531C114.416 507.531 69.4589 518.997 67.8078 502.062C66.5257 488.881 71.11 488.844 71.11 488.844C71.11 488.844 81.0257 474.796 89.6962 477.692C98.3667 480.588 101.263 491.74 101.263 491.74L101.254 491.731Z" fill="white" stroke="#333333" stroke-width="0.922391" stroke-miterlimit="10" stroke-linecap="round"/>
<path d="M104.962 418.471C104.962 418.471 97.1959 417.558 98.2106 420.039C99.2344 422.52 102.094 424.955 105.055 422.151" fill="white"/>
<path d="M104.962 418.471C104.962 418.471 97.1959 417.558 98.2106 420.039C99.2344 422.52 102.094 424.955 105.055 422.151" stroke="#333333" stroke-width="0.922391" stroke-miterlimit="10" stroke-linecap="round"/>
<path d="M110.718 409.65C110.884 410.111 110.635 410.618 110.174 410.784C109.713 410.941 109.206 410.701 109.04 410.24C108.883 409.779 109.123 409.272 109.584 409.106C110.045 408.94 110.552 409.189 110.718 409.65Z" fill="#333333"/>
<path d="M107.231 408.662C107.231 408.662 107.526 406.891 109.297 407.177" stroke="#333333" stroke-width="0.922391" stroke-linecap="round" stroke-linejoin="round"/>
<path d="M112.996 408.877C112.996 408.877 116.132 409.144 116.059 410.731C115.985 412.317 115.367 412.825 115.367 412.825" fill="white"/>
<path d="M112.996 408.877C112.996 408.877 116.132 409.144 116.059 410.731C115.985 412.317 115.367 412.825 115.367 412.825" stroke="#333333" stroke-width="0.922391" stroke-miterlimit="10" stroke-linecap="round"/>
<path d="M111.871 424.636C111.871 424.636 109.306 424.922 109.048 426.767C108.781 428.612 107.729 431.767 107.729 431.767C107.729 431.767 106.936 433.344 104.307 430.973" stroke="#333333" stroke-width="0.922391" stroke-miterlimit="10" stroke-linecap="round"/>
<path d="M98.6989 416.728C98.6989 416.728 96.2523 417.547 96.388 419.405C96.5146 421.265 96.1505 424.57 96.1505 424.57C96.1505 424.57 95.7069 426.279 92.6381 424.515" stroke="#333333" stroke-width="0.922391" stroke-miterlimit="10" stroke-linecap="round"/>
<path d="M46.3635 482.933L45.4872 487.554L40.2111 488.652L40.1189 484.713L46.3635 482.933Z" fill="white" stroke="#333333" stroke-width="0.922391" stroke-miterlimit="10" stroke-linecap="round"/>
<path d="M73.6647 426.825C73.6647 426.825 63.6568 432.258 57.8734 434.73C52.09 437.211 40.9383 442.58 40.5232 446.297C40.1082 450.014 40.1082 484.715 40.1082 484.715L46.5833 484.253L54.1562 455.383L77.2897 446.712C77.2897 446.712 80.2691 436.326 73.6647 426.825Z" fill="white" stroke="#333333" stroke-width="0.922391" stroke-miterlimit="10" stroke-linecap="round"/>
<path d="M100.47 430.423C102.841 430.691 110.893 435.985 110.893 435.985L109.316 432.037C108.79 428.09 97.5368 423.579 97.5368 423.579C97.5368 423.579 92.2266 421.309 87.0615 426.473" fill="white"/>
<path d="M100.47 430.423C102.841 430.691 110.893 435.985 110.893 435.985L109.316 432.037C108.79 428.09 97.5368 423.579 97.5368 423.579C97.5368 423.579 92.2266 421.309 87.0615 426.473" stroke="#333333" stroke-width="0.922391" stroke-miterlimit="10" stroke-linecap="round"/>
<path d="M84.9284 426.123C84.9284 426.123 78.4532 419.057 74.9204 416.115C71.3876 413.172 67.2646 414.353 62.5604 419.057C57.8469 423.771 48.4293 424.352 46.6676 424.352C44.9058 424.352 40.1924 429.646 40.1924 429.646L48.4293 432.589C48.4293 432.589 52.5524 434.35 57.8469 430.237C63.1415 426.113 66.6742 420.819 70.7973 420.819C74.9204 420.819 84.338 430.827 84.338 430.827" fill="#D5641D"/>
<path d="M98.3583 429.362C98.3583 429.362 75.317 423.929 73.6659 426.825C72.0148 429.712 64.4881 456.212 63.658 468.609C62.8278 481.006 61.5918 499.177 61.5918 499.177C61.5918 499.177 68.6112 502.479 76.8758 502.064C79.8182 501.917 84.1351 500.506 88.4611 498.753C90.9054 498.181 93.8847 497.268 96.2922 495.866C101.245 492.979 111.161 490.083 111.161 490.083L109.095 486.78L103.874 482.307C104.188 478.313 105.036 473.046 107.029 466.543C109.16 459.625 110.294 454.607 110.903 451.139" fill="white"/>
<path d="M98.3583 429.362C98.3583 429.362 75.317 423.929 73.6659 426.825C72.0148 429.712 64.4881 456.212 63.658 468.609C62.8278 481.006 61.5918 499.177 61.5918 499.177C61.5918 499.177 68.6112 502.479 76.8758 502.064C79.8182 501.917 84.1351 500.506 88.4611 498.753C90.9054 498.181 93.8847 497.268 96.2922 495.866C101.245 492.979 111.161 490.083 111.161 490.083L109.095 486.78L103.874 482.307C104.188 478.313 105.036 473.046 107.029 466.543C109.16 459.625 110.294 454.607 110.903 451.139" stroke="#333333" stroke-width="0.922391" stroke-miterlimit="10" stroke-linecap="round"/>
<path d="M107.988 434.666L117.728 442.294L129.581 449.959L150.888 434.399L155.362 439.665C155.362 439.665 133.778 464.671 131.407 465.455C129.037 466.249 104.298 452.293 104.298 452.293" fill="white"/>
<path d="M107.988 434.666L117.728 442.294L129.581 449.959L150.888 434.399L155.362 439.665C155.362 439.665 133.778 464.671 131.407 465.455C129.037 466.249 104.298 452.293 104.298 452.293" stroke="#333333" stroke-width="0.922391" stroke-miterlimit="10" stroke-linecap="round"/>
<path d="M156.698 429.156C156.698 429.156 159.447 422.8 159.613 424.175C159.788 425.549 159.438 427.781 159.438 427.781" fill="white"/>
<path d="M156.698 429.156C156.698 429.156 159.447 422.8 159.613 424.175C159.788 425.549 159.438 427.781 159.438 427.781" stroke="#333333" stroke-width="0.691793" stroke-linecap="round" stroke-linejoin="round"/>
<path d="M150.888 434.411L154.126 432.261L156.874 435.351L154.301 438.091L150.888 434.411Z" fill="white" stroke="#333333" stroke-width="0.922391" stroke-miterlimit="10" stroke-linecap="round"/>
<path d="M154.126 432.254L157.041 428.647L165.97 424.524C165.97 424.524 168.292 423.515 168.719 424.007" fill="white"/>
<path d="M154.126 432.254L157.041 428.647L165.97 424.524C165.97 424.524 168.292 423.515 168.719 424.007" stroke="#333333" stroke-width="0.691793" stroke-linecap="round" stroke-linejoin="round"/>
<path d="M170.432 427.62L163.219 431.051C163.219 431.051 168.883 429.335 168.883 430.368C168.883 431.402 162.02 433.117 161.503 433.117C160.987 433.117 158.755 435.174 156.864 435.349" fill="white"/>
<path d="M170.432 427.62L163.219 431.051C163.219 431.051 168.883 429.335 168.883 430.368C168.883 431.402 162.02 433.117 161.503 433.117C160.987 433.117 158.755 435.174 156.864 435.349" stroke="#333333" stroke-width="0.691793" stroke-linecap="round" stroke-linejoin="round"/>
<path d="M168.893 425.211L160.988 428.301" stroke="#333333" stroke-width="0.691793" stroke-linecap="round" stroke-linejoin="round"/>
<path d="M170.092 426.243C170.092 426.243 162.538 428.991 161.855 429.333" stroke="#333333" stroke-width="0.691793" stroke-linecap="round" stroke-linejoin="round"/>
<path d="M45.4856 487.553C45.4856 487.553 47.9023 491.731 47.9023 493.05C47.9023 494.37 43.7238 498.548 42.6262 497.45C41.5286 496.353 45.0429 493.272 45.0429 493.272C45.0429 493.272 43.7238 493.715 42.8383 491.731" stroke="#333333" stroke-width="0.691793" stroke-linecap="round" stroke-linejoin="round"/>
<path d="M40.2098 488.654C40.2098 488.654 38.4481 492.611 38.4481 493.275C38.4481 493.939 38.2267 499.215 39.5457 499.658C40.8647 500.101 45.2645 499.215 46.5836 498.339C47.9026 497.463 47.4598 494.382 47.4598 494.382" stroke="#333333" stroke-width="0.691793" stroke-linecap="round" stroke-linejoin="round"/>
<path d="M42.9774 495.113L39.915 496.137" stroke="#333333" stroke-width="0.691793" stroke-linecap="round" stroke-linejoin="round"/>
<path d="M41.3721 496.136V499.494" stroke="#333333" stroke-width="0.461195" stroke-linecap="round" stroke-linejoin="round"/>
<path d="M44.002 497.592L43.4209 499.197" stroke="#333333" stroke-width="0.461195" stroke-linecap="round" stroke-linejoin="round"/>
<path d="M45.7531 496.136C45.7531 496.136 45.7531 497.594 45.6055 498.323" stroke="#333333" stroke-width="0.461195" stroke-linecap="round" stroke-linejoin="round"/>
<path d="M42.6908 492.777C42.6908 492.777 42.3956 495.692 40.9382 495.987" stroke="#333333" stroke-width="0.461195" stroke-linecap="round" stroke-linejoin="round"/>
<path d="M233.664 358.546L231.008 361.147L234.485 364.736C234.485 364.736 236.754 368.296 230.039 369.246C222.356 370.344 215.096 358.786 206.85 360.345C198.604 361.904 194.453 365.824 190.45 366.829C186.447 367.835 182.85 367.475 182.85 367.475L177.481 371.764L185.672 376.478C185.672 376.478 190.791 375.444 194.979 372.65C199.157 369.855 203.28 364.819 209.479 366.331C215.677 367.844 228.093 375.694 232.474 372.216C236.865 368.739 235.62 364.293 235.62 364.293L237.566 358.574L233.664 358.555V358.546Z" fill="#D5641D"/>
<path d="M106.336 403.671C106.336 403.671 108.08 402.177 107.83 399.189C107.581 396.2 103.846 393.461 100.359 395.204C96.8724 396.947 100.11 397.694 98.1176 398.94C96.1253 400.185 93.1367 401.928 92.3896 404.419C91.6425 406.909 92.8877 409.15 92.8877 409.15" fill="#333333"/>
<path d="M104.095 404.421C104.095 404.421 109.325 404.172 108.827 397.448" stroke="#333333" stroke-width="0.461195" stroke-miterlimit="10" stroke-linecap="round"/>
<path d="M99.1144 398.939C99.1144 398.939 98.8653 397.693 94.8806 398.939" stroke="#333333" stroke-width="0.461195" stroke-miterlimit="10" stroke-linecap="round"/>
<g style="mix-blend-mode:multiply">
<path d="M219.532 380.916L239.474 416.299L251.696 416.945L235.287 420.487L233.359 449.754L218.241 487.388L216.959 487.71L227.585 447.835L226.386 417.083L216.636 390.564C216.636 390.564 219.209 383.167 219.532 380.916Z" fill="#F1813B"/>
</g>
<g style="mix-blend-mode:multiply">
<path d="M269.913 404.279L266.962 413.512C266.962 413.512 286.904 409.822 285.797 414.25C284.69 418.677 268.807 455.979 268.807 455.979L265.468 455.379L270.836 420.789L254.214 419.664L255.063 416.676L255.506 412.036L258.577 415.753C258.577 415.753 268.059 409.453 269.904 404.279H269.913Z" fill="#F1813B"/>
</g>
<g style="mix-blend-mode:multiply">
<path d="M255.505 345.935L275.816 344.09L304.254 328.206L305.61 330.973L280.364 347.558L258.097 356.275L255.505 345.935Z" fill="#F1813B"/>
</g>
<g style="mix-blend-mode:multiply">
<path d="M218.213 374.366C218.213 374.366 215.262 389.881 215.262 390.988C215.262 392.094 187.931 417.58 187.931 417.58L190.025 421.177L214.514 397.269L219.698 382.953L218.213 374.375V374.366Z" fill="#F1813B"/>
</g>
<g style="mix-blend-mode:multiply">
<path d="M91.1721 427.916L79.7252 440.47C79.7252 440.47 95.2399 434.188 95.9778 437.887C96.7157 441.577 80.0942 468.538 76.0357 475.189C71.9772 481.839 84.5309 499.558 84.5309 499.558L97.8225 494.762C97.8225 494.762 89.6963 499.189 88.2205 501.781C86.7446 504.364 102.619 501.781 112.59 501.412C122.561 501.043 133.27 494.762 132.532 500.674C131.794 506.587 101.143 539.083 101.143 539.083L94.1607 538.797L114.398 507.546L99.1785 510.341L77.5023 520.257C77.5023 520.257 70.1139 540.568 68.6381 541.306C67.1623 542.044 28.7539 556.82 28.7539 556.82L61.2959 538.548L71.2208 508.072C71.2208 508.072 68.7764 505.701 67.7803 502.086L61.5818 499.199L63.648 468.63L64.2014 463.76L66.4151 450.469L46.473 452.313L43.5214 483.333L40.1085 484.735L40.5697 448.615C40.5697 448.615 40.5697 446.401 43.1524 443.44C45.7351 440.488 65.6772 431.255 65.6772 431.255L73.6559 426.846C73.6559 426.846 78.2033 426.034 81.5608 426.09C84.9183 426.145 91.1629 427.935 91.1629 427.935L91.1721 427.916Z" fill="#F1813B"/>
</g>
<path d="M6.27788 516.539L-17.8703 535.163L-58.5754 523.439L-105.82 574.318H-74.7911L-53.7421 542.754L-16.4867 552.411L15.2435 522.747L23.5266 531.021L38.0174 497.907L-4.07135 508.948L6.27788 516.539Z" fill="#333333"/>
</g>
<defs>
<linearGradient id="paint0_linear_5322_3867" x1="54.6077" y1="247.442" x2="54.6077" y2="593.984" gradientUnits="userSpaceOnUse">
<stop stop-color="#161616"/>
<stop offset="1" stop-color="#727272"/>
</linearGradient>
<linearGradient id="paint1_linear_5322_3867" x1="21.7867" y1="247.442" x2="21.7867" y2="593.984" gradientUnits="userSpaceOnUse">
<stop stop-color="#161616"/>
<stop offset="1" stop-color="#727272"/>
</linearGradient>
<linearGradient id="paint2_linear_5322_3867" x1="89.0408" y1="247.442" x2="89.0408" y2="593.984" gradientUnits="userSpaceOnUse">
<stop stop-color="#161616"/>
<stop offset="1" stop-color="#727272"/>
</linearGradient>
<linearGradient id="paint3_linear_5322_3867" x1="123.474" y1="247.442" x2="123.474" y2="593.984" gradientUnits="userSpaceOnUse">
<stop stop-color="#161616"/>
<stop offset="1" stop-color="#727272"/>
</linearGradient>
<linearGradient id="paint4_linear_5322_3867" x1="157.895" y1="247.442" x2="157.895" y2="593.984" gradientUnits="userSpaceOnUse">
<stop stop-color="#161616"/>
<stop offset="1" stop-color="#727272"/>
</linearGradient>
<linearGradient id="paint5_linear_5322_3867" x1="192.328" y1="247.442" x2="192.328" y2="593.984" gradientUnits="userSpaceOnUse">
<stop stop-color="#161616"/>
<stop offset="1" stop-color="#727272"/>
</linearGradient>
<linearGradient id="paint6_linear_5322_3867" x1="226.753" y1="247.442" x2="226.753" y2="593.984" gradientUnits="userSpaceOnUse">
<stop stop-color="#161616"/>
<stop offset="1" stop-color="#727272"/>
</linearGradient>
<linearGradient id="paint7_linear_5322_3867" x1="261.185" y1="247.442" x2="261.185" y2="593.984" gradientUnits="userSpaceOnUse">
<stop stop-color="#161616"/>
<stop offset="1" stop-color="#727272"/>
</linearGradient>
<linearGradient id="paint8_linear_5322_3867" x1="295.618" y1="247.442" x2="295.618" y2="593.984" gradientUnits="userSpaceOnUse">
<stop stop-color="#161616"/>
<stop offset="1" stop-color="#727272"/>
</linearGradient>
<linearGradient id="paint9_linear_5322_3867" x1="330.043" y1="247.442" x2="330.043" y2="593.984" gradientUnits="userSpaceOnUse">
<stop stop-color="#161616"/>
<stop offset="1" stop-color="#727272"/>
</linearGradient>
<clipPath id="clip0_5322_3867">
<path d="M0 288H348V577C348 586.389 340.389 594 331 594H17C7.61117 594 0 586.389 0 577V288Z" fill="white"/>
</clipPath>
<clipPath id="clip1_5322_3867">
<rect width="376.187" height="347" fill="white" transform="translate(-14.0935 247)"/>
</clipPath>
</defs>
</svg>
