<svg width="72" height="72" viewBox="0 0 72 72" fill="none" xmlns="http://www.w3.org/2000/svg">
<circle opacity="0.04" cx="36" cy="36" r="36" fill="black"/>
<path d="M12.012 27.9574C12.2188 27.7145 12.3847 27.3971 12.6469 27.2528C12.8801 27.1241 13.3034 27.0688 13.4874 27.1999C13.6774 27.3345 13.8397 27.8805 13.7363 27.9935C12.9607 28.8448 12.8813 29.9619 12.4509 30.9347C12.1358 31.6466 12.1575 32.1673 12.3907 32.8202C12.7683 33.8736 13.0761 34.9522 13.4609 36.0031C13.5487 36.2424 13.8085 36.4336 14.0201 36.6104C14.3832 36.9134 14.8233 37.1407 15.1312 37.4894C15.3741 37.7647 15.5941 37.8633 15.9416 37.8417C17.4399 37.7515 18.9406 37.6914 20.4389 37.5868C20.6589 37.5711 20.8742 37.386 21.075 37.2537C21.188 37.1791 21.2481 37.0228 21.3612 36.9507C22.1247 36.4649 22.8318 35.8841 23.5821 35.4079C24.3252 34.9365 25.3004 34.7189 26.1987 34.6239C28.8225 34.3425 31.4571 34.0503 34.0917 34.0022C37.0678 33.9481 40.0535 34.0816 43.0248 34.2776C44.5483 34.3786 46.0611 34.7514 47.5605 35.0832C48.4203 35.2732 49.1574 35.6893 49.0083 36.8076C48.9927 36.9194 49.1682 37.1058 49.2981 37.1815C50.61 37.9439 51.0056 38.8133 50.7218 40.2863C50.6797 40.504 50.7062 40.7721 50.7976 40.9729C51.6742 42.9041 52.5652 44.8292 53.4743 46.7448C53.5741 46.9564 53.7857 47.1572 53.9961 47.2678C54.9389 47.7609 55.4427 48.5328 55.4571 49.5778C55.4728 50.6312 54.9533 51.3923 54.0322 51.9082C53.8338 52.02 53.6366 52.2497 53.5705 52.4649C53.0306 54.2241 52.5135 55.9906 52.0145 57.7606C51.9519 57.9842 51.97 58.2752 52.0602 58.4881C52.5111 59.5559 52.3572 60.5082 51.6381 61.4065C51.5094 61.5676 51.4625 61.8297 51.4601 62.0462C51.4541 62.4851 51.5179 62.924 51.5275 63.3641C51.5359 63.7705 51.3014 64.011 50.9094 64.0363C50.5066 64.0615 50.2108 63.8823 50.1519 63.441C50.0989 63.0454 50.0557 62.6486 49.9871 62.0871C49.7406 62.2578 49.5194 62.3456 49.3979 62.5079C49.1598 62.8266 48.9867 63.1945 48.7666 63.5276C48.5201 63.9028 48.1497 64.005 47.7746 63.7862C47.3958 63.5649 47.3128 63.1981 47.5353 62.7989C47.7277 62.4514 47.9321 62.1099 48.0367 61.6506C47.7926 61.843 47.5425 62.0281 47.3044 62.229C46.8427 62.6186 46.3701 62.6606 46.0911 62.2915C45.752 61.8406 45.9456 61.469 46.3304 61.1527C46.5156 61 46.6839 60.8209 46.8847 60.6934C47.2623 60.4541 47.3068 60.1547 47.0904 59.7471C46.9088 59.7855 46.6936 59.9034 46.5348 59.8505C46.245 59.7531 45.8374 59.6076 45.7616 59.3851C45.6871 59.1651 45.9504 58.8212 46.0923 58.5446C46.1272 58.4761 46.2679 58.4628 46.3593 58.4207C47.3116 57.9818 48.2664 57.5502 49.2103 57.0944C49.327 57.0379 49.4183 56.8623 49.4592 56.7241C49.9607 55.0586 50.4585 53.3908 50.931 51.717C50.9804 51.5414 50.9118 51.2853 50.8096 51.1242C50.1903 50.1502 50.1579 49.1822 50.7362 48.1781C50.8324 48.011 50.9046 47.7392 50.8361 47.5829C50.1218 45.9788 49.3775 44.3891 48.4985 42.7959C48.3818 43.4043 48.2772 44.0152 48.1473 44.62C47.2888 48.6315 45.9528 52.4433 43.4084 55.7332C41.9426 57.6283 40.175 59.1494 37.8013 59.7555C34.7314 60.5395 32.1617 59.4657 29.942 57.3974C27.507 55.1284 26.0448 52.2437 24.9349 49.1629C24.0835 46.8013 23.5364 44.3627 23.231 41.8724C23.1901 41.5393 23.0639 41.4251 22.738 41.3301C22.2702 41.193 21.77 41.003 21.4165 40.6867C21.0641 40.3705 20.7443 40.2683 20.3006 40.2947C18.7013 40.3885 17.1008 40.4486 15.5027 40.5497C15.2911 40.5629 15.0566 40.7048 14.8895 40.8515C13.8445 41.7629 12.4905 41.8243 11.4312 40.985C10.4776 40.231 10.2564 38.9071 10.8444 37.7142C10.9454 37.5086 10.9718 37.2056 10.9045 36.9879C10.4512 35.5366 9.97137 34.0948 9.47596 32.6579C9.41223 32.4739 9.24148 32.2887 9.07073 32.1865C7.83098 31.447 7.39448 30.4141 7.73598 29.0408C7.78889 28.8268 7.76845 28.5695 7.70232 28.3566C7.52315 27.7843 7.3055 27.2239 7.09266 26.6624C6.91951 26.2066 6.96159 25.8074 7.45581 25.6198C7.938 25.437 8.26267 25.6715 8.43823 26.1369C8.49835 26.2944 8.56569 26.4495 8.67872 26.7225C8.67872 26.2403 8.67752 25.8928 8.67872 25.5441C8.68112 25.1136 8.83624 24.7961 9.31242 24.748C9.82347 24.6951 10.0507 25.0078 10.1109 25.4491C10.171 25.894 10.177 26.3461 10.3273 26.8018C10.4427 26.4074 10.5618 26.013 10.6736 25.6174C10.7987 25.1761 11.0548 24.8863 11.5406 25.0017C12.0565 25.1244 12.1587 25.5272 12.054 25.9902C11.953 26.4387 11.7955 26.8752 11.7198 27.3261C11.6849 27.5329 11.7871 27.7626 11.8268 27.9827C11.8893 27.9754 11.9518 27.9682 12.0144 27.961L12.012 27.9574ZM23.6519 37.1972C23.6771 37.5892 23.7168 37.9824 23.7252 38.3768C23.7986 41.8664 24.419 45.2585 25.5445 48.5569C26.5823 51.5991 28.0012 54.4297 30.3364 56.7108C33.6504 59.9467 37.6654 60.091 41.084 57.0896C42.9539 55.447 44.2489 53.386 45.2626 51.1398C47.0375 47.2041 47.8924 43.0496 48.1401 38.758C48.1702 38.2349 48.1437 37.7082 48.1437 37.2128C44.1034 38.3672 40.0054 38.485 35.899 38.4802C31.7781 38.4754 27.6609 38.372 23.6519 37.1984V37.1972Z" fill="black"/>
<path d="M36.3488 14.4799C37.6487 14.837 38.8993 15.0631 40.0573 15.5224C43.4518 16.868 45.959 19.2308 47.6064 22.4895C47.7735 22.8202 47.9467 22.9392 48.3218 22.9537C50.0185 23.0234 51.3051 24.4231 51.2787 26.1186C51.2534 27.7527 49.9536 29.0598 48.2954 29.1464C48.0789 29.1572 47.7831 29.2209 47.6689 29.37C46.4977 30.9068 44.8563 31.6427 43.0622 32.1093C39.9671 32.9149 36.8094 32.963 33.6397 32.8512C31.2083 32.7658 28.8082 32.5049 26.5199 31.6078C25.327 31.1401 24.2893 30.4571 23.4764 29.4374C23.3261 29.2498 22.975 29.1668 22.7056 29.1404C21.2867 28.9973 20.1432 28.016 19.881 26.6717C19.6081 25.2732 20.2706 23.8976 21.5597 23.2675C21.894 23.104 22.2848 22.9585 22.6455 22.9693C23.1554 22.9837 23.3538 22.7528 23.5762 22.344C26.0293 17.8624 29.704 15.1508 34.871 14.635C34.9672 14.6254 35.061 14.6037 35.2161 14.5773C35.2161 13.8858 35.2378 13.2089 35.1993 12.5343C35.1909 12.384 34.9949 12.2156 34.8482 12.105C34.2097 11.6216 33.9403 10.9061 34.1591 10.2087C34.3852 9.48841 35.055 8.98819 35.7789 9.00021C36.5196 9.01224 37.1641 9.50284 37.3878 10.2243C37.5994 10.9061 37.3144 11.6336 36.6855 12.1218C36.5352 12.2385 36.3741 12.4441 36.3645 12.6184C36.326 13.2557 36.3488 13.8967 36.3488 14.4787V14.4799ZM35.5324 32.0924C36.2731 32.0924 37.015 32.1249 37.7533 32.0864C40.0981 31.9638 42.4273 31.7329 44.6086 30.7637C47.3178 29.5588 48.3182 27.4629 47.5811 24.6155C46.274 19.5615 40.2833 14.6362 34.1652 15.4671C29.4419 16.1092 24.8064 19.9631 23.5522 24.5181C23.0544 26.3254 23.1457 28.0593 24.5743 29.4903C25.4773 30.3945 26.6113 30.8924 27.8077 31.2531C30.3269 32.0131 32.9266 32.1153 35.5312 32.0924H35.5324Z" fill="black"/>
<path d="M36.0436 67.5481C38.9212 67.6791 41.777 67.8222 44.5499 68.6423C44.966 68.765 45.376 68.955 45.744 69.1858C46.3416 69.561 46.356 70.1105 45.7367 70.4568C45.1692 70.7743 44.5391 71.0268 43.9066 71.1783C40.8102 71.9178 37.661 72.0477 34.4901 71.9635C32.1645 71.9022 29.8533 71.7399 27.5903 71.1771C27.0131 71.0328 26.4347 70.8296 25.908 70.5566C25.1048 70.1418 25.0783 69.4179 25.9177 69.1065C27.1622 68.6447 28.4609 68.2395 29.7704 68.0615C31.847 67.7802 33.9514 67.708 36.0449 67.5469L36.0436 67.5481Z" fill="black" fill-opacity="0.05"/>
<path d="M23.6484 37.1965C27.6575 38.3701 31.7735 38.4735 35.8956 38.4783C40.002 38.4832 44.1 38.3653 48.1403 37.2109C48.1403 37.7064 48.1668 38.233 48.1367 38.7561C47.8902 43.0477 47.034 47.2023 45.2592 51.1379C44.2455 53.3841 42.9517 55.4464 41.0806 57.0877C37.6632 60.0891 33.6482 59.9448 30.333 56.709C27.9966 54.4279 26.5789 51.5973 25.5411 48.555C24.4156 45.2567 23.7951 41.8645 23.7218 38.3749C23.7134 37.9805 23.6737 37.5861 23.6484 37.1953V37.1965ZM35.7874 42.9203C33.5652 42.913 31.8577 44.5989 31.8457 46.8115C31.8336 48.9939 33.5604 50.7183 35.7717 50.7315C37.9109 50.7435 39.6593 48.9867 39.6545 46.8307C39.6497 44.6482 37.9482 42.9275 35.7874 42.9215V42.9203Z" fill="white"/>
<path d="M35.5305 32.0847C32.9247 32.1088 30.3262 32.0053 27.807 31.2454C26.6094 30.8846 25.4754 30.3868 24.5736 29.4826C23.1451 28.0516 23.0537 26.3189 23.5515 24.5104C24.8057 19.9554 29.4412 16.1003 34.1645 15.4594C40.2814 14.6285 46.2733 19.5538 47.5804 24.6078C48.3175 27.4564 47.3171 29.5523 44.6079 30.756C42.4266 31.7264 40.0975 31.9572 37.7526 32.0787C37.0143 32.1172 36.2724 32.0847 35.5317 32.0847H35.5305ZM35.7734 28.6168V28.6192C38.0376 28.6192 40.3031 28.6228 42.5673 28.6156C42.8451 28.6156 43.1325 28.5963 43.397 28.5206C44.644 28.1659 45.4881 26.9105 45.3282 25.6828C45.1322 24.1833 44.0307 23.2141 42.4904 23.2105C39.1836 23.2033 35.8768 23.2033 32.57 23.2021C31.388 23.2021 30.2035 23.1792 29.0227 23.2189C27.409 23.2742 26.2402 24.4599 26.2775 25.9677C26.316 27.5754 27.6784 28.6805 29.161 28.6348C31.3639 28.5663 33.5692 28.6168 35.7746 28.6168H35.7734Z" fill="white"/>
<path d="M35.7894 42.9231C37.949 42.9303 39.6517 44.651 39.6565 46.8323C39.6614 48.9884 37.913 50.7452 35.7738 50.7331C33.5624 50.7199 31.8357 48.9968 31.8477 46.8131C31.8597 44.6005 33.5672 42.9147 35.7894 42.9219V42.9231ZM38.7655 46.8011C38.7583 45.1657 37.3322 43.7456 35.7317 43.7805C34.0879 43.8165 32.7363 45.1994 32.7363 46.8443C32.7363 48.4725 34.0927 49.8349 35.7124 49.8349C37.4296 49.8349 38.7727 48.5001 38.7655 46.8011Z" fill="black"/>
<path d="M35.7713 28.6249C33.5672 28.6249 31.3607 28.5744 29.1578 28.6429C27.6751 28.6886 26.3127 27.5835 26.2743 25.9758C26.2382 24.4691 27.407 23.2823 29.0195 23.227C30.2003 23.1861 31.3847 23.2102 32.5668 23.2102C35.8736 23.2102 39.1803 23.2102 42.4871 23.2186C44.0263 23.2222 45.129 24.1902 45.325 25.6908C45.4849 26.9198 44.642 28.1751 43.3938 28.5287C43.1292 28.6032 42.8419 28.6225 42.5641 28.6237C40.2998 28.6309 38.0344 28.6273 35.7701 28.6273V28.6249H35.7713ZM41.3484 24.7637C40.8049 24.7553 40.4682 25.0607 40.4489 25.5802C40.4273 26.1466 40.7496 26.5181 41.2835 26.541C41.7945 26.5638 42.2106 26.1802 42.2262 25.6716C42.243 25.1185 41.9087 24.7722 41.3484 24.7625V24.7637ZM30.2604 26.5434C30.804 26.5506 31.1659 26.1995 31.1755 25.656C31.1851 25.1016 30.8448 24.7601 30.2857 24.7601C29.7722 24.7601 29.4079 25.1052 29.3935 25.6055C29.3778 26.1394 29.7458 26.5374 30.2604 26.5446V26.5434Z" fill="black"/>
<path d="M38.7675 46.7947C38.7747 48.4938 37.4315 49.8285 35.7144 49.8285C34.0947 49.8285 32.7383 48.4649 32.7383 46.838C32.7383 45.193 34.0899 43.8101 35.7336 43.7741C37.3341 43.7392 38.7602 45.1593 38.7675 46.7947ZM35.6915 49.0625C36.9613 49.0902 38.0075 48.0813 38.0171 46.8211C38.0255 45.603 37.0058 44.5833 35.7565 44.5617C34.5877 44.5412 33.5271 45.5681 33.4886 46.7562C33.4489 47.9719 34.4662 49.0361 35.6915 49.0625Z" fill="white"/>
<path d="M41.3497 24.7578C41.91 24.7674 42.2443 25.1137 42.2275 25.6669C42.2119 26.1755 41.7958 26.5579 41.2848 26.5363C40.7509 26.5122 40.4286 26.1419 40.4502 25.5755C40.4707 25.056 40.8074 24.7506 41.3497 24.759V24.7578Z" fill="white"/>
<path d="M30.2621 26.5423C29.7462 26.5363 29.3783 26.137 29.3951 25.6031C29.4095 25.1041 29.7739 24.759 30.2873 24.7578C30.8465 24.7578 31.1868 25.0993 31.1771 25.6537C31.1675 26.1972 30.8056 26.5483 30.2621 26.5411V26.5423Z" fill="white"/>
<path d="M35.6884 49.0636C34.4631 49.0372 33.4458 47.973 33.4855 46.7573C33.524 45.5693 34.5858 44.5424 35.7534 44.5628C37.0027 44.5844 38.0224 45.6041 38.014 46.8222C38.0044 48.0824 36.9582 49.0913 35.6884 49.0636Z" fill="black"/>
</svg>
