<svg width="195" height="41" viewBox="0 0 195 41" fill="none" xmlns="http://www.w3.org/2000/svg">
<path fill-rule="evenodd" clip-rule="evenodd" d="M16.9504 0.641374C12.9442 1.26065 9.12083 3.09144 6.41307 5.6871C2.61095 9.33187 0.634055 13.4014 0.0925015 18.6979C-0.562038 25.1005 2.29891 31.9231 7.34691 35.9976C12.0562 39.7988 18.6237 41.2151 24.5754 39.7129C26.5636 39.2113 29.2797 38.1627 29.3821 37.8575C29.4716 37.59 27.2863 35.2598 26.9458 35.2598C26.8039 35.2598 26.1962 35.4246 25.5957 35.6258C22.3692 36.7071 18.752 36.8852 15.7533 36.1103C7.99349 34.1054 3.01891 26.9468 3.76596 18.8602C3.92837 17.1029 4.70676 14.2914 5.42424 12.8709C6.95057 9.84853 9.63496 7.21861 12.8102 5.63452C16.6957 3.69618 22.2545 3.68468 26.4347 5.60609L27.7916 6.22992L28.3704 5.38075C28.6888 4.91376 29.14 4.30105 29.373 4.01909C29.6061 3.73739 29.7969 3.43988 29.7969 3.35836C29.7969 3.02787 26.5328 1.65446 24.5419 1.14716C22.1855 0.546712 18.9547 0.331608 16.9504 0.641374ZM38.8726 0.81237C34.544 1.90078 31.3139 4.73632 29.7063 8.85894L29.4328 9.56037L28.8302 9.10312C26.8637 7.61078 24.3411 6.43137 22.3259 6.06183C17.7364 5.22037 12.8666 6.64648 9.70358 9.75867C7.65478 11.7744 6.22854 14.4321 5.63707 17.3362C5.26967 19.14 5.36383 22.834 5.81831 24.4557C6.29047 26.1401 7.49819 28.416 8.63337 29.7606C11.5566 33.2236 15.1141 34.8883 19.604 34.8945C21.9221 34.8977 23.7344 34.4816 25.9422 33.4396C26.7786 33.0448 27.5268 32.7218 27.6048 32.7218C27.6828 32.7218 28.4743 33.4634 29.3639 34.37C32.7966 37.868 35.7882 39.5084 40.0706 40.2404C42.0892 40.5854 42.9347 40.5862 45.052 40.2446C52.2202 39.0881 56.945 33.9028 56.945 27.1925C56.945 21.0974 53.1274 16.4777 47.0697 15.2421C46.1378 15.0521 44.6962 14.9557 42.785 14.9557C39.5214 14.9557 38.9279 14.7851 38.3297 13.6754C37.9115 12.8994 37.9141 12.3407 38.3412 11.4205C39.0475 9.89756 40.2486 9.28662 42.5522 9.27828C43.8018 9.27373 44.2692 9.3531 44.9719 9.68928C45.9909 10.1765 46.8493 11.1352 47.1468 12.1177C47.417 13.01 47.8647 13.1799 49.6405 13.0642C50.4022 13.0146 51.0981 12.9711 51.1868 12.9677C51.4817 12.9564 51.1199 11.2643 50.5751 10.1058C49.0052 6.76818 44.471 4.8488 40.4077 5.80211C37.1155 6.57419 35.2136 8.41154 34.5982 11.4144C33.9725 14.4667 35.2179 16.6977 38.3216 18.0848C39.0678 18.4182 39.6739 18.4854 42.9166 18.5944C45.9788 18.6974 46.8362 18.7858 47.6736 19.0851C50.4031 20.0608 52.5021 22.3241 53.11 24.9473C53.3827 26.1245 53.3414 28.3296 53.0238 29.5428C52.611 31.1196 51.9024 32.3056 50.5722 33.6456C48.5573 35.676 45.8672 36.71 42.6007 36.71C39.7135 36.71 37.1146 35.8807 34.8739 34.2444C33.9133 33.543 30.8809 30.3906 30.5184 29.7171C30.3211 29.35 30.3607 29.2173 30.8528 28.5989C31.589 27.6744 32.576 25.688 33.0833 24.1106C33.3842 23.1739 33.5125 22.2482 33.5726 20.5756C33.6434 18.6172 33.5903 18.0181 33.1835 16.1648C32.2456 11.8944 32.7643 9.48631 35.1544 7.01577C37.0932 5.01171 38.8449 4.2735 42.0055 4.12892C45.4783 3.97031 47.8694 4.83477 50.1283 7.06531C51.5994 8.51796 52.2978 9.77661 52.5994 11.5175C52.7111 12.1622 52.8865 12.7945 52.9895 12.9228C53.1224 13.0884 53.6314 13.1409 54.7432 13.1042L56.3098 13.0521L56.2822 11.5112C56.2348 8.853 55.1226 6.58594 52.7993 4.41215C51.1767 2.89365 49.5027 1.90344 47.2899 1.1531C45.7011 0.614327 45.3416 0.561752 42.9166 0.512842C40.7731 0.469872 40.01 0.526238 38.8726 0.81237ZM22.0466 9.79494C25.773 10.7606 28.6469 13.66 29.5168 17.331C29.8745 18.8413 29.8716 21.4145 29.5107 22.801C29.1724 24.0994 28.2504 25.9898 27.8878 26.1282C27.5971 26.2393 26.8541 25.4828 25.8379 24.0419C25.4597 23.5055 24.8821 22.7816 24.554 22.4335C23.9903 21.8347 23.9052 21.8046 22.9885 21.8802C22.3872 21.9299 21.8057 22.1114 21.4567 22.3587C20.2488 23.2143 20.2742 25.1338 21.5026 25.855C21.8394 26.0525 22.3307 26.4956 22.5942 26.8394C22.8576 27.1831 23.4774 27.9236 23.9711 28.4851C24.4649 29.0465 24.8187 29.5871 24.7571 29.6862C24.6957 29.7852 24.1439 30.0915 23.5311 30.367C19.6141 32.1274 14.9455 31.1185 11.9317 27.8605C7.94142 23.547 8.06452 16.7987 12.2085 12.6895C12.9125 11.9916 13.9393 11.1788 14.4905 10.8834C16.8303 9.62925 19.7719 9.20561 22.0466 9.79494ZM35.2126 20.6533C35.0986 23.4634 34.717 24.9625 33.4868 27.4332L32.645 29.1245L32.9976 29.79C33.1914 30.1562 34.0061 31.1177 34.8079 31.9271C35.9533 33.0831 36.5728 33.5444 37.6999 34.0804C40.6732 35.4942 43.8434 35.5804 46.8635 34.3296C50.2487 32.9275 52.3164 29.3056 51.6834 25.8871C51.1524 23.0198 49.3101 21.0297 46.4972 20.2845C45.9017 20.1269 44.5542 20.0351 42.8104 20.0339C39.5354 20.0314 38.4094 19.8333 36.6396 18.9486L35.3089 18.2835L35.2126 20.6533ZM42.5522 23.6357C45.7813 23.7806 46.2232 23.8991 47.1415 24.865C48.1507 25.9259 48.2983 27.379 47.549 28.8749C46.6486 30.6727 45.1126 31.5273 42.8255 31.5027C40.6402 31.479 38.6254 30.643 37.2759 29.1997C36.8871 28.7842 36.8549 28.656 37.0305 28.2287C37.8097 26.3323 38.2106 25.2413 38.4667 24.3207C38.7303 23.3723 38.802 23.2742 39.1533 23.3811C39.3691 23.4467 40.8986 23.5614 42.5522 23.6357Z" fill="#161616"/>
<path fill-rule="evenodd" clip-rule="evenodd" d="M16.9504 0.641374C12.9442 1.26065 9.12083 3.09144 6.41307 5.6871C2.61095 9.33187 0.634055 13.4014 0.0925015 18.6979C-0.562038 25.1005 2.29891 31.9231 7.34691 35.9976C12.0562 39.7988 18.6237 41.2151 24.5754 39.7129C26.5636 39.2113 29.2797 38.1627 29.3821 37.8575C29.4716 37.59 27.2863 35.2598 26.9458 35.2598C26.8039 35.2598 26.1962 35.4246 25.5957 35.6258C22.3692 36.7071 18.752 36.8852 15.7533 36.1103C7.99349 34.1054 3.01891 26.9468 3.76596 18.8602C3.92837 17.1029 4.70676 14.2914 5.42424 12.8709C6.95057 9.84853 9.63496 7.21861 12.8102 5.63452C16.6957 3.69618 22.2545 3.68468 26.4347 5.60609L27.7916 6.22992L28.3704 5.38075C28.6888 4.91376 29.14 4.30105 29.373 4.01909C29.6061 3.73739 29.7969 3.43988 29.7969 3.35836C29.7969 3.02787 26.5328 1.65446 24.5419 1.14716C22.1855 0.546712 18.9547 0.331608 16.9504 0.641374ZM38.8726 0.81237C34.544 1.90078 31.3139 4.73632 29.7063 8.85894L29.4328 9.56037L28.8302 9.10312C26.8637 7.61078 24.3411 6.43137 22.3259 6.06183C17.7364 5.22037 12.8666 6.64648 9.70358 9.75867C7.65478 11.7744 6.22854 14.4321 5.63707 17.3362C5.26967 19.14 5.36383 22.834 5.81831 24.4557C6.29047 26.1401 7.49819 28.416 8.63337 29.7606C11.5566 33.2236 15.1141 34.8883 19.604 34.8945C21.9221 34.8977 23.7344 34.4816 25.9422 33.4396C26.7786 33.0448 27.5268 32.7218 27.6048 32.7218C27.6828 32.7218 28.4743 33.4634 29.3639 34.37C32.7966 37.868 35.7882 39.5084 40.0706 40.2404C42.0892 40.5854 42.9347 40.5862 45.052 40.2446C52.2202 39.0881 56.945 33.9028 56.945 27.1925C56.945 21.0974 53.1274 16.4777 47.0697 15.2421C46.1378 15.0521 44.6962 14.9557 42.785 14.9557C39.5214 14.9557 38.9279 14.7851 38.3297 13.6754C37.9115 12.8994 37.9141 12.3407 38.3412 11.4205C39.0475 9.89756 40.2486 9.28662 42.5522 9.27828C43.8018 9.27373 44.2692 9.3531 44.9719 9.68928C45.9909 10.1765 46.8493 11.1352 47.1468 12.1177C47.417 13.01 47.8647 13.1799 49.6405 13.0642C50.4022 13.0146 51.0981 12.9711 51.1868 12.9677C51.4817 12.9564 51.1199 11.2643 50.5751 10.1058C49.0052 6.76818 44.471 4.8488 40.4077 5.80211C37.1155 6.57419 35.2136 8.41154 34.5982 11.4144C33.9725 14.4667 35.2179 16.6977 38.3216 18.0848C39.0678 18.4182 39.6739 18.4854 42.9166 18.5944C45.9788 18.6974 46.8362 18.7858 47.6736 19.0851C50.4031 20.0608 52.5021 22.3241 53.11 24.9473C53.3827 26.1245 53.3414 28.3296 53.0238 29.5428C52.611 31.1196 51.9024 32.3056 50.5722 33.6456C48.5573 35.676 45.8672 36.71 42.6007 36.71C39.7135 36.71 37.1146 35.8807 34.8739 34.2444C33.9133 33.543 30.8809 30.3906 30.5184 29.7171C30.3211 29.35 30.3607 29.2173 30.8528 28.5989C31.589 27.6744 32.576 25.688 33.0833 24.1106C33.3842 23.1739 33.5125 22.2482 33.5726 20.5756C33.6434 18.6172 33.5903 18.0181 33.1835 16.1648C32.2456 11.8944 32.7643 9.48631 35.1544 7.01577C37.0932 5.01171 38.8449 4.2735 42.0055 4.12892C45.4783 3.97031 47.8694 4.83477 50.1283 7.06531C51.5994 8.51796 52.2978 9.77661 52.5994 11.5175C52.7111 12.1622 52.8865 12.7945 52.9895 12.9228C53.1224 13.0884 53.6314 13.1409 54.7432 13.1042L56.3098 13.0521L56.2822 11.5112C56.2348 8.853 55.1226 6.58594 52.7993 4.41215C51.1767 2.89365 49.5027 1.90344 47.2899 1.1531C45.7011 0.614327 45.3416 0.561752 42.9166 0.512842C40.7731 0.469872 40.01 0.526238 38.8726 0.81237ZM22.0466 9.79494C25.773 10.7606 28.6469 13.66 29.5168 17.331C29.8745 18.8413 29.8716 21.4145 29.5107 22.801C29.1724 24.0994 28.2504 25.9898 27.8878 26.1282C27.5971 26.2393 26.8541 25.4828 25.8379 24.0419C25.4597 23.5055 24.8821 22.7816 24.554 22.4335C23.9903 21.8347 23.9052 21.8046 22.9885 21.8802C22.3872 21.9299 21.8057 22.1114 21.4567 22.3587C20.2488 23.2143 20.2742 25.1338 21.5026 25.855C21.8394 26.0525 22.3307 26.4956 22.5942 26.8394C22.8576 27.1831 23.4774 27.9236 23.9711 28.4851C24.4649 29.0465 24.8187 29.5871 24.7571 29.6862C24.6957 29.7852 24.1439 30.0915 23.5311 30.367C19.6141 32.1274 14.9455 31.1185 11.9317 27.8605C7.94142 23.547 8.06452 16.7987 12.2085 12.6895C12.9125 11.9916 13.9393 11.1788 14.4905 10.8834C16.8303 9.62925 19.7719 9.20561 22.0466 9.79494ZM35.2126 20.6533C35.0986 23.4634 34.717 24.9625 33.4868 27.4332L32.645 29.1245L32.9976 29.79C33.1914 30.1562 34.0061 31.1177 34.8079 31.9271C35.9533 33.0831 36.5728 33.5444 37.6999 34.0804C40.6732 35.4942 43.8434 35.5804 46.8635 34.3296C50.2487 32.9275 52.3164 29.3056 51.6834 25.8871C51.1524 23.0198 49.3101 21.0297 46.4972 20.2845C45.9017 20.1269 44.5542 20.0351 42.8104 20.0339C39.5354 20.0314 38.4094 19.8333 36.6396 18.9486L35.3089 18.2835L35.2126 20.6533ZM42.5522 23.6357C45.7813 23.7806 46.2232 23.8991 47.1415 24.865C48.1507 25.9259 48.2983 27.379 47.549 28.8749C46.6486 30.6727 45.1126 31.5273 42.8255 31.5027C40.6402 31.479 38.6254 30.643 37.2759 29.1997C36.8871 28.7842 36.8549 28.656 37.0305 28.2287C37.8097 26.3323 38.2106 25.2413 38.4667 24.3207C38.7303 23.3723 38.802 23.2742 39.1533 23.3811C39.3691 23.4467 40.8986 23.5614 42.5522 23.6357Z" fill="url(#paint0_linear_4525_5354)"/>
<path fill-rule="evenodd" clip-rule="evenodd" d="M16.9504 0.641374C12.9442 1.26065 9.12083 3.09144 6.41307 5.6871C2.61095 9.33187 0.634055 13.4014 0.0925015 18.6979C-0.562038 25.1005 2.29891 31.9231 7.34691 35.9976C12.0562 39.7988 18.6237 41.2151 24.5754 39.7129C26.5636 39.2113 29.2797 38.1627 29.3821 37.8575C29.4716 37.59 27.2863 35.2598 26.9458 35.2598C26.8039 35.2598 26.1962 35.4246 25.5957 35.6258C22.3692 36.7071 18.752 36.8852 15.7533 36.1103C7.99349 34.1054 3.01891 26.9468 3.76596 18.8602C3.92837 17.1029 4.70676 14.2914 5.42424 12.8709C6.95057 9.84853 9.63496 7.21861 12.8102 5.63452C16.6957 3.69618 22.2545 3.68468 26.4347 5.60609L27.7916 6.22992L28.3704 5.38075C28.6888 4.91376 29.14 4.30105 29.373 4.01909C29.6061 3.73739 29.7969 3.43988 29.7969 3.35836C29.7969 3.02787 26.5328 1.65446 24.5419 1.14716C22.1855 0.546712 18.9547 0.331608 16.9504 0.641374ZM38.8726 0.81237C34.544 1.90078 31.3139 4.73632 29.7063 8.85894L29.4328 9.56037L28.8302 9.10312C26.8637 7.61078 24.3411 6.43137 22.3259 6.06183C17.7364 5.22037 12.8666 6.64648 9.70358 9.75867C7.65478 11.7744 6.22854 14.4321 5.63707 17.3362C5.26967 19.14 5.36383 22.834 5.81831 24.4557C6.29047 26.1401 7.49819 28.416 8.63337 29.7606C11.5566 33.2236 15.1141 34.8883 19.604 34.8945C21.9221 34.8977 23.7344 34.4816 25.9422 33.4396C26.7786 33.0448 27.5268 32.7218 27.6048 32.7218C27.6828 32.7218 28.4743 33.4634 29.3639 34.37C32.7966 37.868 35.7882 39.5084 40.0706 40.2404C42.0892 40.5854 42.9347 40.5862 45.052 40.2446C52.2202 39.0881 56.945 33.9028 56.945 27.1925C56.945 21.0974 53.1274 16.4777 47.0697 15.2421C46.1378 15.0521 44.6962 14.9557 42.785 14.9557C39.5214 14.9557 38.9279 14.7851 38.3297 13.6754C37.9115 12.8994 37.9141 12.3407 38.3412 11.4205C39.0475 9.89756 40.2486 9.28662 42.5522 9.27828C43.8018 9.27373 44.2692 9.3531 44.9719 9.68928C45.9909 10.1765 46.8493 11.1352 47.1468 12.1177C47.417 13.01 47.8647 13.1799 49.6405 13.0642C50.4022 13.0146 51.0981 12.9711 51.1868 12.9677C51.4817 12.9564 51.1199 11.2643 50.5751 10.1058C49.0052 6.76818 44.471 4.8488 40.4077 5.80211C37.1155 6.57419 35.2136 8.41154 34.5982 11.4144C33.9725 14.4667 35.2179 16.6977 38.3216 18.0848C39.0678 18.4182 39.6739 18.4854 42.9166 18.5944C45.9788 18.6974 46.8362 18.7858 47.6736 19.0851C50.4031 20.0608 52.5021 22.3241 53.11 24.9473C53.3827 26.1245 53.3414 28.3296 53.0238 29.5428C52.611 31.1196 51.9024 32.3056 50.5722 33.6456C48.5573 35.676 45.8672 36.71 42.6007 36.71C39.7135 36.71 37.1146 35.8807 34.8739 34.2444C33.9133 33.543 30.8809 30.3906 30.5184 29.7171C30.3211 29.35 30.3607 29.2173 30.8528 28.5989C31.589 27.6744 32.576 25.688 33.0833 24.1106C33.3842 23.1739 33.5125 22.2482 33.5726 20.5756C33.6434 18.6172 33.5903 18.0181 33.1835 16.1648C32.2456 11.8944 32.7643 9.48631 35.1544 7.01577C37.0932 5.01171 38.8449 4.2735 42.0055 4.12892C45.4783 3.97031 47.8694 4.83477 50.1283 7.06531C51.5994 8.51796 52.2978 9.77661 52.5994 11.5175C52.7111 12.1622 52.8865 12.7945 52.9895 12.9228C53.1224 13.0884 53.6314 13.1409 54.7432 13.1042L56.3098 13.0521L56.2822 11.5112C56.2348 8.853 55.1226 6.58594 52.7993 4.41215C51.1767 2.89365 49.5027 1.90344 47.2899 1.1531C45.7011 0.614327 45.3416 0.561752 42.9166 0.512842C40.7731 0.469872 40.01 0.526238 38.8726 0.81237ZM22.0466 9.79494C25.773 10.7606 28.6469 13.66 29.5168 17.331C29.8745 18.8413 29.8716 21.4145 29.5107 22.801C29.1724 24.0994 28.2504 25.9898 27.8878 26.1282C27.5971 26.2393 26.8541 25.4828 25.8379 24.0419C25.4597 23.5055 24.8821 22.7816 24.554 22.4335C23.9903 21.8347 23.9052 21.8046 22.9885 21.8802C22.3872 21.9299 21.8057 22.1114 21.4567 22.3587C20.2488 23.2143 20.2742 25.1338 21.5026 25.855C21.8394 26.0525 22.3307 26.4956 22.5942 26.8394C22.8576 27.1831 23.4774 27.9236 23.9711 28.4851C24.4649 29.0465 24.8187 29.5871 24.7571 29.6862C24.6957 29.7852 24.1439 30.0915 23.5311 30.367C19.6141 32.1274 14.9455 31.1185 11.9317 27.8605C7.94142 23.547 8.06452 16.7987 12.2085 12.6895C12.9125 11.9916 13.9393 11.1788 14.4905 10.8834C16.8303 9.62925 19.7719 9.20561 22.0466 9.79494ZM35.2126 20.6533C35.0986 23.4634 34.717 24.9625 33.4868 27.4332L32.645 29.1245L32.9976 29.79C33.1914 30.1562 34.0061 31.1177 34.8079 31.9271C35.9533 33.0831 36.5728 33.5444 37.6999 34.0804C40.6732 35.4942 43.8434 35.5804 46.8635 34.3296C50.2487 32.9275 52.3164 29.3056 51.6834 25.8871C51.1524 23.0198 49.3101 21.0297 46.4972 20.2845C45.9017 20.1269 44.5542 20.0351 42.8104 20.0339C39.5354 20.0314 38.4094 19.8333 36.6396 18.9486L35.3089 18.2835L35.2126 20.6533ZM42.5522 23.6357C45.7813 23.7806 46.2232 23.8991 47.1415 24.865C48.1507 25.9259 48.2983 27.379 47.549 28.8749C46.6486 30.6727 45.1126 31.5273 42.8255 31.5027C40.6402 31.479 38.6254 30.643 37.2759 29.1997C36.8871 28.7842 36.8549 28.656 37.0305 28.2287C37.8097 26.3323 38.2106 25.2413 38.4667 24.3207C38.7303 23.3723 38.802 23.2742 39.1533 23.3811C39.3691 23.4467 40.8986 23.5614 42.5522 23.6357Z" fill="#161616"/>
<path d="M74.7746 18.3607L70.5931 12.8854L71.9974 11.9545L76.1316 17.3824L74.7746 18.3607ZM71.2716 16.7828C70.4931 16.7828 69.7726 16.6408 69.1098 16.3568C68.4577 16.0727 67.8844 15.6782 67.39 15.1733C66.9061 14.658 66.5273 14.0583 66.2538 13.3745C65.9908 12.6803 65.8594 11.9229 65.8594 11.1024C65.8594 10.2818 65.9908 9.52971 66.2538 8.84598C66.5273 8.15175 66.9061 7.55207 67.39 7.04716C67.8844 6.53177 68.4577 6.13202 69.1098 5.84791C69.7726 5.56393 70.4931 5.42188 71.2716 5.42188C72.05 5.42188 72.7653 5.56393 73.4175 5.84791C74.0802 6.13202 74.6535 6.53177 75.1374 7.04716C75.6319 7.56255 76.0106 8.16742 76.2735 8.86177C76.547 9.54551 76.6837 10.2924 76.6837 11.1024C76.6837 11.9124 76.547 12.6645 76.2735 13.3587C76.0106 14.0425 75.6319 14.6422 75.1374 15.1576C74.6535 15.6731 74.0802 16.0727 73.4175 16.3568C72.7653 16.6408 72.05 16.7828 71.2716 16.7828ZM71.2716 15.126C71.8081 15.126 72.2972 15.0261 72.7391 14.8262C73.1914 14.6264 73.5806 14.3476 73.9067 13.9899C74.2328 13.6217 74.4853 13.1957 74.6641 12.7118C74.8535 12.2174 74.9481 11.6809 74.9481 11.1024C74.9481 10.5238 74.8535 9.99252 74.6641 9.50873C74.4853 9.01432 74.2328 8.58828 73.9067 8.23061C73.5806 7.86246 73.1914 7.57835 72.7391 7.37854C72.2972 7.1786 71.8081 7.07876 71.2716 7.07876C70.7351 7.07876 70.2407 7.1786 69.7884 7.37854C69.3465 7.57835 68.9573 7.85715 68.6207 8.21482C68.2947 8.57248 68.0421 8.99852 67.8633 9.49293C67.6845 9.97685 67.5951 10.5133 67.5951 11.1024C67.5951 11.8808 67.7529 12.575 68.0684 13.1852C68.384 13.7848 68.8154 14.2582 69.3623 14.6053C69.9198 14.9524 70.5563 15.126 71.2716 15.126Z" fill="#161616"/>
<path d="M74.7746 18.3607L70.5931 12.8854L71.9974 11.9545L76.1316 17.3824L74.7746 18.3607ZM71.2716 16.7828C70.4931 16.7828 69.7726 16.6408 69.1098 16.3568C68.4577 16.0727 67.8844 15.6782 67.39 15.1733C66.9061 14.658 66.5273 14.0583 66.2538 13.3745C65.9908 12.6803 65.8594 11.9229 65.8594 11.1024C65.8594 10.2818 65.9908 9.52971 66.2538 8.84598C66.5273 8.15175 66.9061 7.55207 67.39 7.04716C67.8844 6.53177 68.4577 6.13202 69.1098 5.84791C69.7726 5.56393 70.4931 5.42188 71.2716 5.42188C72.05 5.42188 72.7653 5.56393 73.4175 5.84791C74.0802 6.13202 74.6535 6.53177 75.1374 7.04716C75.6319 7.56255 76.0106 8.16742 76.2735 8.86177C76.547 9.54551 76.6837 10.2924 76.6837 11.1024C76.6837 11.9124 76.547 12.6645 76.2735 13.3587C76.0106 14.0425 75.6319 14.6422 75.1374 15.1576C74.6535 15.6731 74.0802 16.0727 73.4175 16.3568C72.7653 16.6408 72.05 16.7828 71.2716 16.7828ZM71.2716 15.126C71.8081 15.126 72.2972 15.0261 72.7391 14.8262C73.1914 14.6264 73.5806 14.3476 73.9067 13.9899C74.2328 13.6217 74.4853 13.1957 74.6641 12.7118C74.8535 12.2174 74.9481 11.6809 74.9481 11.1024C74.9481 10.5238 74.8535 9.99252 74.6641 9.50873C74.4853 9.01432 74.2328 8.58828 73.9067 8.23061C73.5806 7.86246 73.1914 7.57835 72.7391 7.37854C72.2972 7.1786 71.8081 7.07876 71.2716 7.07876C70.7351 7.07876 70.2407 7.1786 69.7884 7.37854C69.3465 7.57835 68.9573 7.85715 68.6207 8.21482C68.2947 8.57248 68.0421 8.99852 67.8633 9.49293C67.6845 9.97685 67.5951 10.5133 67.5951 11.1024C67.5951 11.8808 67.7529 12.575 68.0684 13.1852C68.384 13.7848 68.8154 14.2582 69.3623 14.6053C69.9198 14.9524 70.5563 15.126 71.2716 15.126Z" fill="#161616"/>
<path d="M81.4853 16.7855C80.8962 16.7855 80.3808 16.6488 79.939 16.3753C79.5077 16.1018 79.1711 15.7178 78.9292 15.2234C78.6977 14.729 78.582 14.1398 78.582 13.4561V8.34375H80.2072V13.0142C80.2072 13.7402 80.3755 14.3135 80.7122 14.7342C81.0593 15.1551 81.5379 15.3654 82.1481 15.3654C82.4532 15.3654 82.732 15.3181 82.9843 15.2234C83.2369 15.1182 83.4525 14.9762 83.6313 14.7974C83.8206 14.6186 83.9679 14.4028 84.0731 14.1504C84.1783 13.8979 84.2309 13.6244 84.2309 13.33V8.34375H85.8562V16.6277H84.2309V14.8921L84.515 14.7026C84.3887 15.0919 84.1731 15.4442 83.868 15.7598C83.5734 16.0754 83.2211 16.3279 82.8108 16.5172C82.4006 16.6961 81.9587 16.7855 81.4853 16.7855Z" fill="#161616"/>
<path d="M81.4853 16.7855C80.8962 16.7855 80.3808 16.6488 79.939 16.3753C79.5077 16.1018 79.1711 15.7178 78.9292 15.2234C78.6977 14.729 78.582 14.1398 78.582 13.4561V8.34375H80.2072V13.0142C80.2072 13.7402 80.3755 14.3135 80.7122 14.7342C81.0593 15.1551 81.5379 15.3654 82.1481 15.3654C82.4532 15.3654 82.732 15.3181 82.9843 15.2234C83.2369 15.1182 83.4525 14.9762 83.6313 14.7974C83.8206 14.6186 83.9679 14.4028 84.0731 14.1504C84.1783 13.8979 84.2309 13.6244 84.2309 13.33V8.34375H85.8562V16.6277H84.2309V14.8921L84.515 14.7026C84.3887 15.0919 84.1731 15.4442 83.868 15.7598C83.5734 16.0754 83.2211 16.3279 82.8108 16.5172C82.4006 16.6961 81.9587 16.7855 81.4853 16.7855Z" fill="#161616"/>
<path d="M93.044 16.6294V11.233C93.044 10.7702 92.8759 10.3967 92.5385 10.1127C92.2124 9.81815 91.7979 9.67091 91.2924 9.67091C90.8298 9.67091 90.409 9.76557 90.0298 9.95502C89.662 10.1443 89.3258 10.4336 89.02 10.8228L87.9631 9.76557C88.4575 9.22907 88.9884 8.82932 89.5571 8.56644C90.1347 8.30344 90.7565 8.17188 91.4188 8.17188C92.0494 8.17188 92.5966 8.27715 93.0592 8.48745C93.523 8.69788 93.8807 9.00815 94.1322 9.41852C94.385 9.81814 94.5113 10.3074 94.5113 10.886V16.6294H93.044ZM90.5669 16.7873C90.0298 16.7873 89.5508 16.682 89.1312 16.4717C88.7104 16.2613 88.3733 15.972 88.1208 15.6038C87.8789 15.2252 87.7578 14.7834 87.7578 14.2785C87.7578 13.8366 87.8368 13.4474 87.9945 13.1108C88.1524 12.7741 88.3838 12.4953 88.6889 12.2745C89.0048 12.0536 89.3941 11.8853 89.8567 11.7695C90.3293 11.6539 90.8715 11.596 91.4819 11.596H93.7859L93.6431 12.8899H91.2772C90.9612 12.8899 90.6769 12.9214 90.4241 12.9845C90.1827 13.0371 89.9717 13.1265 89.7935 13.2527C89.6254 13.3685 89.499 13.5104 89.4143 13.6788C89.3309 13.8366 89.2879 14.0259 89.2879 14.2469C89.2879 14.4783 89.3461 14.6834 89.4623 14.8622C89.5774 15.0306 89.7353 15.162 89.935 15.2567C90.1347 15.3513 90.3672 15.3987 90.6301 15.3987C91.008 15.3987 91.3657 15.3357 91.7031 15.2094C92.0494 15.0727 92.3552 14.8885 92.6181 14.6571C92.8911 14.4257 93.1022 14.168 93.2488 13.8839L93.6279 14.9411C93.4068 15.3092 93.1338 15.6301 92.8077 15.9036C92.4816 16.1771 92.129 16.3927 91.7499 16.5506C91.3707 16.7084 90.9764 16.7873 90.5669 16.7873Z" fill="#161616"/>
<path d="M93.044 16.6294V11.233C93.044 10.7702 92.8759 10.3967 92.5385 10.1127C92.2124 9.81815 91.7979 9.67091 91.2924 9.67091C90.8298 9.67091 90.409 9.76557 90.0298 9.95502C89.662 10.1443 89.3258 10.4336 89.02 10.8228L87.9631 9.76557C88.4575 9.22907 88.9884 8.82932 89.5571 8.56644C90.1347 8.30344 90.7565 8.17188 91.4188 8.17188C92.0494 8.17188 92.5966 8.27715 93.0592 8.48745C93.523 8.69788 93.8807 9.00815 94.1322 9.41852C94.385 9.81814 94.5113 10.3074 94.5113 10.886V16.6294H93.044ZM90.5669 16.7873C90.0298 16.7873 89.5508 16.682 89.1312 16.4717C88.7104 16.2613 88.3733 15.972 88.1208 15.6038C87.8789 15.2252 87.7578 14.7834 87.7578 14.2785C87.7578 13.8366 87.8368 13.4474 87.9945 13.1108C88.1524 12.7741 88.3838 12.4953 88.6889 12.2745C89.0048 12.0536 89.3941 11.8853 89.8567 11.7695C90.3293 11.6539 90.8715 11.596 91.4819 11.596H93.7859L93.6431 12.8899H91.2772C90.9612 12.8899 90.6769 12.9214 90.4241 12.9845C90.1827 13.0371 89.9717 13.1265 89.7935 13.2527C89.6254 13.3685 89.499 13.5104 89.4143 13.6788C89.3309 13.8366 89.2879 14.0259 89.2879 14.2469C89.2879 14.4783 89.3461 14.6834 89.4623 14.8622C89.5774 15.0306 89.7353 15.162 89.935 15.2567C90.1347 15.3513 90.3672 15.3987 90.6301 15.3987C91.008 15.3987 91.3657 15.3357 91.7031 15.2094C92.0494 15.0727 92.3552 14.8885 92.6181 14.6571C92.8911 14.4257 93.1022 14.168 93.2488 13.8839L93.6279 14.9411C93.4068 15.3092 93.1338 15.6301 92.8077 15.9036C92.4816 16.1771 92.129 16.3927 91.7499 16.5506C91.3707 16.7084 90.9764 16.7873 90.5669 16.7873Z" fill="#161616"/>
<path d="M96.5625 16.6295V8.34553H98.1878V10.0497L97.9034 10.239C98.0096 9.87085 98.2143 9.53417 98.5189 9.22908C98.8248 8.9135 99.1875 8.66111 99.6083 8.47179C100.029 8.27185 100.46 8.17188 100.902 8.17188C101.533 8.17188 102.059 8.29813 102.48 8.55065C102.901 8.79255 103.217 9.16601 103.426 9.67091C103.637 10.1758 103.742 10.8123 103.742 11.5802V16.6295H102.117V11.6906C102.117 11.2173 102.054 10.8281 101.927 10.523C101.801 10.2074 101.606 9.98131 101.344 9.84456C101.081 9.6972 100.755 9.63413 100.365 9.65511C100.049 9.65511 99.7613 9.70782 99.4971 9.81297C99.2342 9.90763 99.003 10.0444 98.8033 10.2232C98.6137 10.402 98.462 10.6125 98.3458 10.8544C98.2409 11.0858 98.1878 11.3383 98.1878 11.6118V16.6295H97.3827C97.2462 16.6295 97.1097 16.6295 96.9732 16.6295C96.8368 16.6295 96.699 16.6295 96.5625 16.6295Z" fill="#161616"/>
<path d="M96.5625 16.6295V8.34553H98.1878V10.0497L97.9034 10.239C98.0096 9.87085 98.2143 9.53417 98.5189 9.22908C98.8248 8.9135 99.1875 8.66111 99.6083 8.47179C100.029 8.27185 100.46 8.17188 100.902 8.17188C101.533 8.17188 102.059 8.29813 102.48 8.55065C102.901 8.79255 103.217 9.16601 103.426 9.67091C103.637 10.1758 103.742 10.8123 103.742 11.5802V16.6295H102.117V11.6906C102.117 11.2173 102.054 10.8281 101.927 10.523C101.801 10.2074 101.606 9.98131 101.344 9.84456C101.081 9.6972 100.755 9.63413 100.365 9.65511C100.049 9.65511 99.7613 9.70782 99.4971 9.81297C99.2342 9.90763 99.003 10.0444 98.8033 10.2232C98.6137 10.402 98.462 10.6125 98.3458 10.8544C98.2409 11.0858 98.1878 11.3383 98.1878 11.6118V16.6295H97.3827C97.2462 16.6295 97.1097 16.6295 96.9732 16.6295C96.8368 16.6295 96.699 16.6295 96.5625 16.6295Z" fill="#161616"/>
<path d="M106.974 16.6327V6.23438H108.599V16.6327H106.974ZM105.254 9.92666V8.34877H110.524V9.92666H105.254Z" fill="#161616"/>
<path d="M106.974 16.6327V6.23438H108.599V16.6327H106.974ZM105.254 9.92666V8.34877H110.524V9.92666H105.254Z" fill="#161616"/>
<path d="M114.907 16.7855C114.318 16.7855 113.802 16.6488 113.361 16.3753C112.93 16.1018 112.593 15.7178 112.351 15.2234C112.12 14.729 112.004 14.1398 112.004 13.4561V8.34375H113.629V13.0142C113.629 13.7402 113.797 14.3135 114.135 14.7342C114.481 15.1551 114.96 15.3654 115.57 15.3654C115.875 15.3654 116.154 15.3181 116.406 15.2234C116.659 15.1182 116.875 14.9762 117.053 14.7974C117.242 14.6186 117.39 14.4028 117.495 14.1504C117.6 13.8979 117.653 13.6244 117.653 13.33V8.34375H119.279V16.6277H117.653V14.8921L117.936 14.7026C117.811 15.0919 117.595 15.4442 117.291 15.7598C116.995 16.0754 116.643 16.3279 116.233 16.5172C115.822 16.6961 115.381 16.7855 114.907 16.7855Z" fill="#161616"/>
<path d="M114.907 16.7855C114.318 16.7855 113.802 16.6488 113.361 16.3753C112.93 16.1018 112.593 15.7178 112.351 15.2234C112.12 14.729 112.004 14.1398 112.004 13.4561V8.34375H113.629V13.0142C113.629 13.7402 113.797 14.3135 114.135 14.7342C114.481 15.1551 114.96 15.3654 115.57 15.3654C115.875 15.3654 116.154 15.3181 116.406 15.2234C116.659 15.1182 116.875 14.9762 117.053 14.7974C117.242 14.6186 117.39 14.4028 117.495 14.1504C117.6 13.8979 117.653 13.6244 117.653 13.33V8.34375H119.279V16.6277H117.653V14.8921L117.936 14.7026C117.811 15.0919 117.595 15.4442 117.291 15.7598C116.995 16.0754 116.643 16.3279 116.233 16.5172C115.822 16.6961 115.381 16.7855 114.907 16.7855Z" fill="#161616"/>
<path d="M121.527 16.6291V8.34518H123.169V10.1124L122.87 10.3017C122.953 10.0282 123.084 9.76522 123.264 9.51284C123.453 9.26032 123.68 9.03941 123.943 8.85008C124.216 8.65027 124.505 8.49242 124.81 8.37665C125.125 8.26101 125.446 8.20312 125.773 8.20312C126.245 8.20312 126.661 8.28199 127.019 8.43984C127.376 8.59757 127.671 8.83428 127.902 9.14986C128.133 9.46544 128.303 9.85988 128.408 10.3333L128.155 10.2703L128.266 10.0019C128.381 9.76004 128.539 9.53382 128.739 9.32339C128.95 9.1026 129.186 8.90797 129.449 8.73963C129.712 8.57128 129.991 8.43984 130.286 8.34518C130.58 8.25052 130.87 8.20312 131.153 8.20312C131.773 8.20312 132.284 8.32938 132.683 8.5819C133.094 8.83428 133.399 9.21824 133.598 9.73376C133.809 10.2491 133.914 10.8908 133.914 11.6587V16.6291H132.274V11.7534C132.274 11.0486 132.137 10.5331 131.863 10.2071C131.6 9.8705 131.184 9.70216 130.617 9.70216C130.322 9.70216 130.043 9.75473 129.78 9.85988C129.527 9.95467 129.307 10.0914 129.118 10.2703C128.928 10.449 128.78 10.6594 128.676 10.9014C128.571 11.1328 128.518 11.3905 128.518 11.6745V16.6291H126.877V11.7219C126.877 11.0696 126.734 10.57 126.451 10.2229C126.177 9.87568 125.778 9.70216 125.252 9.70216C124.957 9.70216 124.683 9.75473 124.432 9.85988C124.179 9.95467 123.958 10.0914 123.768 10.2703C123.579 10.4385 123.432 10.6436 123.327 10.8856C123.221 11.117 123.169 11.3694 123.169 11.643V16.6291H121.527Z" fill="#161616"/>
<path d="M121.527 16.6291V8.34518H123.169V10.1124L122.87 10.3017C122.953 10.0282 123.084 9.76522 123.264 9.51284C123.453 9.26032 123.68 9.03941 123.943 8.85008C124.216 8.65027 124.505 8.49242 124.81 8.37665C125.125 8.26101 125.446 8.20312 125.773 8.20312C126.245 8.20312 126.661 8.28199 127.019 8.43984C127.376 8.59757 127.671 8.83428 127.902 9.14986C128.133 9.46544 128.303 9.85988 128.408 10.3333L128.155 10.2703L128.266 10.0019C128.381 9.76004 128.539 9.53382 128.739 9.32339C128.95 9.1026 129.186 8.90797 129.449 8.73963C129.712 8.57128 129.991 8.43984 130.286 8.34518C130.58 8.25052 130.87 8.20312 131.153 8.20312C131.773 8.20312 132.284 8.32938 132.683 8.5819C133.094 8.83428 133.399 9.21824 133.598 9.73376C133.809 10.2491 133.914 10.8908 133.914 11.6587V16.6291H132.274V11.7534C132.274 11.0486 132.137 10.5331 131.863 10.2071C131.6 9.8705 131.184 9.70216 130.617 9.70216C130.322 9.70216 130.043 9.75473 129.78 9.85988C129.527 9.95467 129.307 10.0914 129.118 10.2703C128.928 10.449 128.78 10.6594 128.676 10.9014C128.571 11.1328 128.518 11.3905 128.518 11.6745V16.6291H126.877V11.7219C126.877 11.0696 126.734 10.57 126.451 10.2229C126.177 9.87568 125.778 9.70216 125.252 9.70216C124.957 9.70216 124.683 9.75473 124.432 9.85988C124.179 9.95467 123.958 10.0914 123.768 10.2703C123.579 10.4385 123.432 10.6436 123.327 10.8856C123.221 11.117 123.169 11.3694 123.169 11.643V16.6291H121.527Z" fill="#161616"/>
<path d="M140.981 16.79C140.214 16.79 139.509 16.6532 138.867 16.3797C138.225 16.1062 137.667 15.717 137.195 15.2121C136.721 14.6966 136.353 14.0917 136.09 13.3975C135.837 12.7031 135.711 11.9405 135.711 11.1096C135.711 10.3205 135.847 9.58941 136.122 8.91617C136.406 8.23243 136.794 7.63287 137.289 7.11735C137.784 6.60196 138.357 6.20221 139.01 5.91823C139.662 5.63412 140.366 5.49219 141.124 5.49219C141.66 5.49219 142.181 5.57636 142.686 5.74458C143.2 5.90243 143.664 6.12853 144.074 6.42313C144.495 6.70711 144.837 7.03331 145.1 7.40146L143.964 8.58492C143.511 8.12197 143.049 7.77493 142.575 7.54339C142.102 7.31198 141.618 7.19634 141.124 7.19634C140.608 7.19634 140.124 7.29619 139.672 7.49612C139.229 7.68545 138.84 7.95363 138.504 8.30081C138.178 8.64798 137.92 9.06353 137.731 9.54732C137.541 10.0208 137.447 10.5415 137.447 11.1096C137.447 11.7091 137.536 12.2561 137.715 12.7505C137.905 13.2344 138.168 13.65 138.504 13.997C138.84 14.3442 139.241 14.6124 139.703 14.8018C140.176 14.9807 140.697 15.07 141.265 15.07C141.613 15.07 141.954 15.0228 142.29 14.928C142.628 14.8333 142.944 14.6966 143.238 14.5177C143.533 14.3389 143.801 14.1286 144.042 13.8866L144.894 15.2751C144.653 15.5591 144.321 15.817 143.901 16.0484C143.49 16.2798 143.027 16.4639 142.512 16.6007C142.007 16.7268 141.497 16.79 140.981 16.79Z" fill="#161616"/>
<path d="M140.981 16.79C140.214 16.79 139.509 16.6532 138.867 16.3797C138.225 16.1062 137.667 15.717 137.195 15.2121C136.721 14.6966 136.353 14.0917 136.09 13.3975C135.837 12.7031 135.711 11.9405 135.711 11.1096C135.711 10.3205 135.847 9.58941 136.122 8.91617C136.406 8.23243 136.794 7.63287 137.289 7.11735C137.784 6.60196 138.357 6.20221 139.01 5.91823C139.662 5.63412 140.366 5.49219 141.124 5.49219C141.66 5.49219 142.181 5.57636 142.686 5.74458C143.2 5.90243 143.664 6.12853 144.074 6.42313C144.495 6.70711 144.837 7.03331 145.1 7.40146L143.964 8.58492C143.511 8.12197 143.049 7.77493 142.575 7.54339C142.102 7.31198 141.618 7.19634 141.124 7.19634C140.608 7.19634 140.124 7.29619 139.672 7.49612C139.229 7.68545 138.84 7.95363 138.504 8.30081C138.178 8.64798 137.92 9.06353 137.731 9.54732C137.541 10.0208 137.447 10.5415 137.447 11.1096C137.447 11.7091 137.536 12.2561 137.715 12.7505C137.905 13.2344 138.168 13.65 138.504 13.997C138.84 14.3442 139.241 14.6124 139.703 14.8018C140.176 14.9807 140.697 15.07 141.265 15.07C141.613 15.07 141.954 15.0228 142.29 14.928C142.628 14.8333 142.944 14.6966 143.238 14.5177C143.533 14.3389 143.801 14.1286 144.042 13.8866L144.894 15.2751C144.653 15.5591 144.321 15.817 143.901 16.0484C143.49 16.2798 143.027 16.4639 142.512 16.6007C142.007 16.7268 141.497 16.79 140.981 16.79Z" fill="#161616"/>
<path d="M146.797 16.6295V8.34553H148.437V10.949L148.279 10.3179C148.396 9.91812 148.59 9.55527 148.863 9.22908C149.148 8.90301 149.469 8.64531 149.826 8.45599C150.194 8.26666 150.573 8.17188 150.962 8.17188C151.141 8.17188 151.309 8.18767 151.467 8.21927C151.635 8.25086 151.766 8.28765 151.861 8.32973L151.435 10.097C151.309 10.0444 151.167 10.0023 151.009 9.97069C150.863 9.92861 150.715 9.90763 150.567 9.90763C150.284 9.90763 150.01 9.96551 149.747 10.0812C149.495 10.1864 149.269 10.339 149.068 10.5388C148.88 10.7281 148.727 10.9543 148.61 11.2173C148.495 11.4697 148.437 11.7485 148.437 12.0536V16.6295H146.797Z" fill="#161616"/>
<path d="M146.797 16.6295V8.34553H148.437V10.949L148.279 10.3179C148.396 9.91812 148.59 9.55527 148.863 9.22908C149.148 8.90301 149.469 8.64531 149.826 8.45599C150.194 8.26666 150.573 8.17188 150.962 8.17188C151.141 8.17188 151.309 8.18767 151.467 8.21927C151.635 8.25086 151.766 8.28765 151.861 8.32973L151.435 10.097C151.309 10.0444 151.167 10.0023 151.009 9.97069C150.863 9.92861 150.715 9.90763 150.567 9.90763C150.284 9.90763 150.01 9.96551 149.747 10.0812C149.495 10.1864 149.269 10.339 149.068 10.5388C148.88 10.7281 148.727 10.9543 148.61 11.2173C148.495 11.4697 148.437 11.7485 148.437 12.0536V16.6295H146.797Z" fill="#161616"/>
<path d="M157.715 16.6294V11.233C157.715 10.7702 157.547 10.3967 157.211 10.1127C156.885 9.81815 156.469 9.67091 155.965 9.67091C155.501 9.67091 155.08 9.76557 154.702 9.95502C154.334 10.1443 153.997 10.4336 153.692 10.8228L152.634 9.76557C153.129 9.22907 153.661 8.82932 154.228 8.56644C154.807 8.30344 155.427 8.17188 156.091 8.17188C156.722 8.17188 157.269 8.27715 157.731 8.48745C158.194 8.69788 158.552 9.00815 158.804 9.41852C159.057 9.81814 159.184 10.3074 159.184 10.886V16.6294H157.715ZM155.238 16.7873C154.702 16.7873 154.223 16.682 153.802 16.4717C153.381 16.2613 153.045 15.972 152.792 15.6038C152.551 15.2252 152.43 14.7834 152.43 14.2785C152.43 13.8366 152.508 13.4474 152.666 13.1108C152.824 12.7741 153.055 12.4953 153.361 12.2745C153.676 12.0536 154.065 11.8853 154.528 11.7695C155.002 11.6539 155.544 11.596 156.153 11.596H158.457L158.315 12.8899H155.948C155.632 12.8899 155.349 12.9214 155.096 12.9845C154.855 13.0371 154.644 13.1265 154.466 13.2527C154.296 13.3685 154.17 13.5104 154.087 13.6788C154.002 13.8366 153.96 14.0259 153.96 14.2469C153.96 14.4783 154.018 14.6834 154.133 14.8622C154.25 15.0306 154.408 15.162 154.607 15.2567C154.807 15.3513 155.038 15.3987 155.301 15.3987C155.68 15.3987 156.038 15.3357 156.374 15.2094C156.722 15.0727 157.026 14.8885 157.289 14.6571C157.563 14.4257 157.773 14.168 157.921 13.8839L158.299 14.9411C158.079 15.3092 157.805 15.6301 157.479 15.9036C157.153 16.1771 156.8 16.3927 156.422 16.5506C156.043 16.7084 155.649 16.7873 155.238 16.7873Z" fill="#161616"/>
<path d="M157.715 16.6294V11.233C157.715 10.7702 157.547 10.3967 157.211 10.1127C156.885 9.81815 156.469 9.67091 155.965 9.67091C155.501 9.67091 155.08 9.76557 154.702 9.95502C154.334 10.1443 153.997 10.4336 153.692 10.8228L152.634 9.76557C153.129 9.22907 153.661 8.82932 154.228 8.56644C154.807 8.30344 155.427 8.17188 156.091 8.17188C156.722 8.17188 157.269 8.27715 157.731 8.48745C158.194 8.69788 158.552 9.00815 158.804 9.41852C159.057 9.81814 159.184 10.3074 159.184 10.886V16.6294H157.715ZM155.238 16.7873C154.702 16.7873 154.223 16.682 153.802 16.4717C153.381 16.2613 153.045 15.972 152.792 15.6038C152.551 15.2252 152.43 14.7834 152.43 14.2785C152.43 13.8366 152.508 13.4474 152.666 13.1108C152.824 12.7741 153.055 12.4953 153.361 12.2745C153.676 12.0536 154.065 11.8853 154.528 11.7695C155.002 11.6539 155.544 11.596 156.153 11.596H158.457L158.315 12.8899H155.948C155.632 12.8899 155.349 12.9214 155.096 12.9845C154.855 13.0371 154.644 13.1265 154.466 13.2527C154.296 13.3685 154.17 13.5104 154.087 13.6788C154.002 13.8366 153.96 14.0259 153.96 14.2469C153.96 14.4783 154.018 14.6834 154.133 14.8622C154.25 15.0306 154.408 15.162 154.607 15.2567C154.807 15.3513 155.038 15.3987 155.301 15.3987C155.68 15.3987 156.038 15.3357 156.374 15.2094C156.722 15.0727 157.026 14.8885 157.289 14.6571C157.563 14.4257 157.773 14.168 157.921 13.8839L158.299 14.9411C158.079 15.3092 157.805 15.6301 157.479 15.9036C157.153 16.1771 156.8 16.3927 156.422 16.5506C156.043 16.7084 155.649 16.7873 155.238 16.7873Z" fill="#161616"/>
<path d="M162.138 16.6294V7.41452C162.138 6.94109 162.243 6.52036 162.453 6.1522C162.664 5.78392 162.953 5.49463 163.321 5.28433C163.689 5.0739 164.115 4.96875 164.599 4.96875C164.936 4.96875 165.251 5.03182 165.546 5.15807C165.84 5.28433 166.078 5.45255 166.256 5.66297L165.704 6.90949C165.567 6.78336 165.414 6.68339 165.246 6.60971C165.088 6.52554 164.936 6.48346 164.789 6.48346C164.567 6.48346 164.378 6.52036 164.221 6.59391C164.073 6.65711 163.963 6.76226 163.889 6.90949C163.815 7.04624 163.779 7.21458 163.779 7.41452V16.6294H162.959C162.822 16.6294 162.684 16.6294 162.548 16.6294C162.411 16.6294 162.275 16.6294 162.138 16.6294ZM160.812 9.98642V8.48739H165.735V9.98642H160.812Z" fill="#161616"/>
<path d="M162.138 16.6294V7.41452C162.138 6.94109 162.243 6.52036 162.453 6.1522C162.664 5.78392 162.953 5.49463 163.321 5.28433C163.689 5.0739 164.115 4.96875 164.599 4.96875C164.936 4.96875 165.251 5.03182 165.546 5.15807C165.84 5.28433 166.078 5.45255 166.256 5.66297L165.704 6.90949C165.567 6.78336 165.414 6.68339 165.246 6.60971C165.088 6.52554 164.936 6.48346 164.789 6.48346C164.567 6.48346 164.378 6.52036 164.221 6.59391C164.073 6.65711 163.963 6.76226 163.889 6.90949C163.815 7.04624 163.779 7.21458 163.779 7.41452V16.6294H162.959C162.822 16.6294 162.684 16.6294 162.548 16.6294C162.411 16.6294 162.275 16.6294 162.138 16.6294ZM160.812 9.98642V8.48739H165.735V9.98642H160.812Z" fill="#161616"/>
<path d="M168.501 16.6327V6.23438H170.127V16.6327H168.501ZM166.781 9.92666V8.34877H172.051V9.92666H166.781Z" fill="#161616"/>
<path d="M168.501 16.6327V6.23438H170.127V16.6327H168.501ZM166.781 9.92666V8.34877H172.051V9.92666H166.781Z" fill="#161616"/>
<path d="M177.32 16.7873C176.468 16.7873 175.711 16.6085 175.047 16.2509C174.395 15.8827 173.881 15.383 173.502 14.7518C173.134 14.1207 172.949 13.3948 172.949 12.5744C172.949 11.9221 173.054 11.3277 173.265 10.7913C173.475 10.2548 173.764 9.7919 174.132 9.40277C174.511 9.00302 174.959 8.69793 175.474 8.4875C176 8.26671 176.568 8.15625 177.178 8.15625C177.714 8.15625 178.214 8.2614 178.677 8.47183C179.139 8.67164 179.54 8.95044 179.876 9.30811C180.224 9.66577 180.487 10.0918 180.665 10.5862C180.854 11.07 180.944 11.6013 180.933 12.1798L180.918 12.8741H174.149L173.786 11.5802H179.514L179.276 11.8485V11.4698C179.244 11.1226 179.129 10.8123 178.93 10.5388C178.73 10.2653 178.477 10.0497 178.171 9.89187C177.867 9.73415 177.536 9.65516 177.178 9.65516C176.609 9.65516 176.132 9.76561 175.742 9.98653C175.353 10.197 175.059 10.5125 174.859 10.9333C174.658 11.3435 174.558 11.8537 174.558 12.4639C174.558 13.0425 174.679 13.5474 174.922 13.9786C175.163 14.3995 175.506 14.7255 175.947 14.9569C176.389 15.1883 176.899 15.3041 177.478 15.3041C177.888 15.3041 178.266 15.2357 178.614 15.099C178.971 14.9622 179.356 14.715 179.765 14.3574L180.587 15.5092C180.334 15.7616 180.023 15.9825 179.655 16.172C179.297 16.3613 178.913 16.5139 178.504 16.6295C178.103 16.7348 177.709 16.7873 177.32 16.7873Z" fill="#161616"/>
<path d="M177.32 16.7873C176.468 16.7873 175.711 16.6085 175.047 16.2509C174.395 15.8827 173.881 15.383 173.502 14.7518C173.134 14.1207 172.949 13.3948 172.949 12.5744C172.949 11.9221 173.054 11.3277 173.265 10.7913C173.475 10.2548 173.764 9.7919 174.132 9.40277C174.511 9.00302 174.959 8.69793 175.474 8.4875C176 8.26671 176.568 8.15625 177.178 8.15625C177.714 8.15625 178.214 8.2614 178.677 8.47183C179.139 8.67164 179.54 8.95044 179.876 9.30811C180.224 9.66577 180.487 10.0918 180.665 10.5862C180.854 11.07 180.944 11.6013 180.933 12.1798L180.918 12.8741H174.149L173.786 11.5802H179.514L179.276 11.8485V11.4698C179.244 11.1226 179.129 10.8123 178.93 10.5388C178.73 10.2653 178.477 10.0497 178.171 9.89187C177.867 9.73415 177.536 9.65516 177.178 9.65516C176.609 9.65516 176.132 9.76561 175.742 9.98653C175.353 10.197 175.059 10.5125 174.859 10.9333C174.658 11.3435 174.558 11.8537 174.558 12.4639C174.558 13.0425 174.679 13.5474 174.922 13.9786C175.163 14.3995 175.506 14.7255 175.947 14.9569C176.389 15.1883 176.899 15.3041 177.478 15.3041C177.888 15.3041 178.266 15.2357 178.614 15.099C178.971 14.9622 179.356 14.715 179.765 14.3574L180.587 15.5092C180.334 15.7616 180.023 15.9825 179.655 16.172C179.297 16.3613 178.913 16.5139 178.504 16.6295C178.103 16.7348 177.709 16.7873 177.32 16.7873Z" fill="#161616"/>
<path d="M182.703 16.6295V8.34553H184.344V10.949L184.187 10.3179C184.302 9.91812 184.497 9.55527 184.769 9.22908C185.054 8.90301 185.375 8.64531 185.733 8.45599C186.1 8.26666 186.479 8.17188 186.869 8.17188C187.047 8.17188 187.216 8.18767 187.373 8.21927C187.542 8.25086 187.674 8.28765 187.769 8.32973L187.343 10.097C187.216 10.0444 187.073 10.0023 186.915 9.97069C186.769 9.92861 186.621 9.90763 186.474 9.90763C186.19 9.90763 185.917 9.96551 185.654 10.0812C185.401 10.1864 185.175 10.339 184.975 10.5388C184.786 10.7281 184.633 10.9543 184.518 11.2173C184.402 11.4697 184.344 11.7485 184.344 12.0536V16.6295H182.703Z" fill="#161616"/>
<path d="M182.703 16.6295V8.34553H184.344V10.949L184.187 10.3179C184.302 9.91812 184.497 9.55527 184.769 9.22908C185.054 8.90301 185.375 8.64531 185.733 8.45599C186.1 8.26666 186.479 8.17188 186.869 8.17188C187.047 8.17188 187.216 8.18767 187.373 8.21927C187.542 8.25086 187.674 8.28765 187.769 8.32973L187.343 10.097C187.216 10.0444 187.073 10.0023 186.915 9.97069C186.769 9.92861 186.621 9.90763 186.474 9.90763C186.19 9.90763 185.917 9.96551 185.654 10.0812C185.401 10.1864 185.175 10.339 184.975 10.5388C184.786 10.7281 184.633 10.9543 184.518 11.2173C184.402 11.4697 184.344 11.7485 184.344 12.0536V16.6295H182.703Z" fill="#161616"/>
<path d="M191.828 16.7873C191.134 16.7873 190.509 16.6663 189.951 16.4243C189.393 16.1824 188.93 15.8248 188.562 15.3513L189.667 14.4046C189.983 14.7729 190.324 15.0411 190.692 15.2094C191.071 15.3671 191.497 15.446 191.971 15.446C192.159 15.446 192.334 15.425 192.492 15.3829C192.66 15.3303 192.801 15.2567 192.918 15.162C193.044 15.0673 193.139 14.9569 193.201 14.8306C193.264 14.6939 193.296 14.5466 193.296 14.3888C193.296 14.1153 193.196 13.8945 192.996 13.7262C192.891 13.6525 192.723 13.5736 192.492 13.4894C192.271 13.3948 191.981 13.3001 191.623 13.2055C191.013 13.0476 190.514 12.8688 190.125 12.669C189.735 12.469 189.436 12.2429 189.225 11.9904C189.067 11.7906 188.952 11.5749 188.878 11.3435C188.804 11.1016 188.767 10.8386 188.767 10.5546C188.767 10.0918 188.899 9.6814 189.162 9.32373C189.424 8.96619 189.777 8.68739 190.219 8.48745C190.672 8.27715 191.176 8.17188 191.733 8.17188C192.123 8.17188 192.507 8.22458 192.886 8.32973C193.275 8.43488 193.633 8.58743 193.959 8.78736C194.285 8.98718 194.558 9.22389 194.779 9.49738L193.848 10.523C193.648 10.3232 193.427 10.1495 193.186 10.0023C192.954 9.84456 192.718 9.72348 192.475 9.63931C192.234 9.55527 192.013 9.51318 191.813 9.51318C191.592 9.51318 191.392 9.53416 191.213 9.57624C191.035 9.61833 190.882 9.6814 190.755 9.76557C190.64 9.84974 190.551 9.95502 190.487 10.0811C190.424 10.2074 190.393 10.3495 190.393 10.5072C190.403 10.6439 190.434 10.7755 190.487 10.9018C190.551 11.0174 190.635 11.1174 190.74 11.2015C190.855 11.2857 191.029 11.3751 191.261 11.4697C191.492 11.5644 191.787 11.6539 192.144 11.738C192.67 11.8748 193.101 12.0273 193.438 12.1955C193.785 12.3534 194.059 12.5374 194.259 12.7478C194.468 12.9476 194.616 13.1792 194.701 13.4421C194.784 13.7051 194.826 13.9997 194.826 14.3257C194.826 14.7992 194.69 15.2252 194.417 15.6038C194.154 15.972 193.796 16.2613 193.344 16.4717C192.891 16.682 192.386 16.7873 191.828 16.7873Z" fill="#161616"/>
<path d="M191.828 16.7873C191.134 16.7873 190.509 16.6663 189.951 16.4243C189.393 16.1824 188.93 15.8248 188.562 15.3513L189.667 14.4046C189.983 14.7729 190.324 15.0411 190.692 15.2094C191.071 15.3671 191.497 15.446 191.971 15.446C192.159 15.446 192.334 15.425 192.492 15.3829C192.66 15.3303 192.801 15.2567 192.918 15.162C193.044 15.0673 193.139 14.9569 193.201 14.8306C193.264 14.6939 193.296 14.5466 193.296 14.3888C193.296 14.1153 193.196 13.8945 192.996 13.7262C192.891 13.6525 192.723 13.5736 192.492 13.4894C192.271 13.3948 191.981 13.3001 191.623 13.2055C191.013 13.0476 190.514 12.8688 190.125 12.669C189.735 12.469 189.436 12.2429 189.225 11.9904C189.067 11.7906 188.952 11.5749 188.878 11.3435C188.804 11.1016 188.767 10.8386 188.767 10.5546C188.767 10.0918 188.899 9.6814 189.162 9.32373C189.424 8.96619 189.777 8.68739 190.219 8.48745C190.672 8.27715 191.176 8.17188 191.733 8.17188C192.123 8.17188 192.507 8.22458 192.886 8.32973C193.275 8.43488 193.633 8.58743 193.959 8.78736C194.285 8.98718 194.558 9.22389 194.779 9.49738L193.848 10.523C193.648 10.3232 193.427 10.1495 193.186 10.0023C192.954 9.84456 192.718 9.72348 192.475 9.63931C192.234 9.55527 192.013 9.51318 191.813 9.51318C191.592 9.51318 191.392 9.53416 191.213 9.57624C191.035 9.61833 190.882 9.6814 190.755 9.76557C190.64 9.84974 190.551 9.95502 190.487 10.0811C190.424 10.2074 190.393 10.3495 190.393 10.5072C190.403 10.6439 190.434 10.7755 190.487 10.9018C190.551 11.0174 190.635 11.1174 190.74 11.2015C190.855 11.2857 191.029 11.3751 191.261 11.4697C191.492 11.5644 191.787 11.6539 192.144 11.738C192.67 11.8748 193.101 12.0273 193.438 12.1955C193.785 12.3534 194.059 12.5374 194.259 12.7478C194.468 12.9476 194.616 13.1792 194.701 13.4421C194.784 13.7051 194.826 13.9997 194.826 14.3257C194.826 14.7992 194.69 15.2252 194.417 15.6038C194.154 15.972 193.796 16.2613 193.344 16.4717C192.891 16.682 192.386 16.7873 191.828 16.7873Z" fill="#161616"/>
<path d="M70.0562 36.4702C69.1516 36.4702 68.3521 36.2914 67.6578 35.9337C66.9741 35.5761 66.385 35.0396 65.8906 34.3242L67.0583 32.9831C67.5737 33.7194 68.0681 34.2296 68.5415 34.5136C69.0148 34.7977 69.5776 34.9396 70.2299 34.9396C70.6296 34.9396 70.9925 34.8765 71.3185 34.7503C71.6447 34.624 71.9024 34.4505 72.0917 34.2296C72.2811 34.0087 72.3757 33.7563 72.3757 33.4722C72.3757 33.2828 72.3443 33.104 72.2811 32.9357C72.218 32.7675 72.118 32.6149 71.9813 32.4782C71.855 32.3414 71.6868 32.2152 71.4764 32.0994C71.2764 31.9838 71.0398 31.8838 70.7664 31.7996C70.4927 31.7049 70.1772 31.6261 69.8196 31.5629C69.2515 31.4473 68.7571 31.2947 68.3364 31.1054C67.9155 30.9161 67.5632 30.6793 67.2792 30.3952C66.9951 30.1113 66.7848 29.7905 66.648 29.4328C66.5113 29.0645 66.4429 28.6543 66.4429 28.202C66.4429 27.6024 66.6111 27.0712 66.9478 26.6083C67.2844 26.1455 67.7367 25.7826 68.3048 25.5196C68.8834 25.2461 69.5303 25.1094 70.2455 25.1094C71.0976 25.1094 71.8392 25.2776 72.4704 25.6143C73.1122 25.9403 73.6171 26.419 73.9852 27.0501L72.786 28.2336C72.4704 27.7182 72.0917 27.3236 71.6499 27.0501C71.2187 26.7766 70.7348 26.6399 70.1983 26.6399C69.788 26.6399 69.4304 26.7029 69.1253 26.8292C68.8202 26.9555 68.5783 27.1343 68.3995 27.3657C68.2311 27.5866 68.1469 27.8496 68.1469 28.1547C68.1469 28.3756 68.189 28.5807 68.2732 28.7701C68.3574 28.9489 68.4836 29.1119 68.652 29.2592C68.8308 29.3959 69.0674 29.5222 69.362 29.6379C69.6565 29.7431 70.0089 29.8378 70.4192 29.9219C70.9978 30.0482 71.5132 30.2112 71.9655 30.411C72.4178 30.6005 72.8018 30.8266 73.1173 31.0896C73.4329 31.3526 73.6696 31.6471 73.8275 31.9733C73.9957 32.2993 74.0799 32.6517 74.0799 33.0305C74.0799 33.7352 73.9168 34.3454 73.5908 34.8607C73.2647 35.3763 72.8018 35.776 72.2022 36.06C71.6026 36.3335 70.8873 36.4702 70.0562 36.4702Z" fill="#161616"/>
<path d="M70.0562 36.4702C69.1516 36.4702 68.3521 36.2914 67.6578 35.9337C66.9741 35.5761 66.385 35.0396 65.8906 34.3242L67.0583 32.9831C67.5737 33.7194 68.0681 34.2296 68.5415 34.5136C69.0148 34.7977 69.5776 34.9396 70.2299 34.9396C70.6296 34.9396 70.9925 34.8765 71.3185 34.7503C71.6447 34.624 71.9024 34.4505 72.0917 34.2296C72.2811 34.0087 72.3757 33.7563 72.3757 33.4722C72.3757 33.2828 72.3443 33.104 72.2811 32.9357C72.218 32.7675 72.118 32.6149 71.9813 32.4782C71.855 32.3414 71.6868 32.2152 71.4764 32.0994C71.2764 31.9838 71.0398 31.8838 70.7664 31.7996C70.4927 31.7049 70.1772 31.6261 69.8196 31.5629C69.2515 31.4473 68.7571 31.2947 68.3364 31.1054C67.9155 30.9161 67.5632 30.6793 67.2792 30.3952C66.9951 30.1113 66.7848 29.7905 66.648 29.4328C66.5113 29.0645 66.4429 28.6543 66.4429 28.202C66.4429 27.6024 66.6111 27.0712 66.9478 26.6083C67.2844 26.1455 67.7367 25.7826 68.3048 25.5196C68.8834 25.2461 69.5303 25.1094 70.2455 25.1094C71.0976 25.1094 71.8392 25.2776 72.4704 25.6143C73.1122 25.9403 73.6171 26.419 73.9852 27.0501L72.786 28.2336C72.4704 27.7182 72.0917 27.3236 71.6499 27.0501C71.2187 26.7766 70.7348 26.6399 70.1983 26.6399C69.788 26.6399 69.4304 26.7029 69.1253 26.8292C68.8202 26.9555 68.5783 27.1343 68.3995 27.3657C68.2311 27.5866 68.1469 27.8496 68.1469 28.1547C68.1469 28.3756 68.189 28.5807 68.2732 28.7701C68.3574 28.9489 68.4836 29.1119 68.652 29.2592C68.8308 29.3959 69.0674 29.5222 69.362 29.6379C69.6565 29.7431 70.0089 29.8378 70.4192 29.9219C70.9978 30.0482 71.5132 30.2112 71.9655 30.411C72.4178 30.6005 72.8018 30.8266 73.1173 31.0896C73.4329 31.3526 73.6696 31.6471 73.8275 31.9733C73.9957 32.2993 74.0799 32.6517 74.0799 33.0305C74.0799 33.7352 73.9168 34.3454 73.5908 34.8607C73.2647 35.3763 72.8018 35.776 72.2022 36.06C71.6026 36.3335 70.8873 36.4702 70.0562 36.4702Z" fill="#161616"/>
<path d="M77.1104 36.3202V25.9219H78.7357V36.3202H77.1104ZM75.3906 29.6142V28.0363H80.6608V29.6142H75.3906Z" fill="#161616"/>
<path d="M77.1104 36.3202V25.9219H78.7357V36.3202H77.1104ZM75.3906 29.6142V28.0363H80.6608V29.6142H75.3906Z" fill="#161616"/>
<path d="M85.044 36.473C84.455 36.473 83.9394 36.3363 83.4976 36.0628C83.0664 35.7893 82.7297 35.4053 82.4878 34.9109C82.2564 34.4165 82.1406 33.8274 82.1406 33.1436V28.0312H83.7659V32.7019C83.7659 33.4277 83.9343 34.001 84.2708 34.4217C84.618 34.8426 85.0966 35.0529 85.7068 35.0529C86.0117 35.0529 86.2905 35.0056 86.5431 34.9109C86.7954 34.8057 87.0112 34.6637 87.1899 34.4849C87.3793 34.3061 87.5266 34.0905 87.6317 33.8379C87.737 33.5854 87.7896 33.3119 87.7896 33.0175V28.0312H89.4151V36.3152H87.7896V34.5796L88.0736 34.3902C87.9473 34.7794 87.7317 35.1319 87.4266 35.4474C87.1321 35.763 86.7796 36.0154 86.3694 36.2047C85.9592 36.3836 85.5173 36.473 85.044 36.473Z" fill="#161616"/>
<path d="M85.044 36.473C84.455 36.473 83.9394 36.3363 83.4976 36.0628C83.0664 35.7893 82.7297 35.4053 82.4878 34.9109C82.2564 34.4165 82.1406 33.8274 82.1406 33.1436V28.0312H83.7659V32.7019C83.7659 33.4277 83.9343 34.001 84.2708 34.4217C84.618 34.8426 85.0966 35.0529 85.7068 35.0529C86.0117 35.0529 86.2905 35.0056 86.5431 34.9109C86.7954 34.8057 87.0112 34.6637 87.1899 34.4849C87.3793 34.3061 87.5266 34.0905 87.6317 33.8379C87.737 33.5854 87.7896 33.3119 87.7896 33.0175V28.0312H89.4151V36.3152H87.7896V34.5796L88.0736 34.3902C87.9473 34.7794 87.7317 35.1319 87.4266 35.4474C87.1321 35.763 86.7796 36.0154 86.3694 36.2047C85.9592 36.3836 85.5173 36.473 85.044 36.473Z" fill="#161616"/>
<path d="M95.1484 36.4749C94.3901 36.4749 93.7126 36.2908 93.1123 35.9226C92.5234 35.544 92.0557 35.0338 91.7082 34.3921C91.3606 33.7399 91.1875 32.9982 91.1875 32.1673C91.1875 31.3362 91.3556 30.5999 91.6918 29.9582C92.0393 29.3059 92.5082 28.7957 93.0971 28.4276C93.6861 28.0489 94.3534 27.8596 95.1003 27.8596C95.5111 27.8596 95.9054 27.928 96.2845 28.0647C96.6738 28.1909 97.0201 28.3697 97.3259 28.6012C97.6305 28.822 97.8669 29.0692 98.035 29.3428C98.2144 29.6057 98.3041 29.874 98.3041 30.1475L97.8302 30.1791V24.6406H99.4555V36.3171H97.8302V34.3447H98.1462C98.1462 34.5972 98.0615 34.8496 97.8934 35.1021C97.7253 35.344 97.4991 35.5703 97.2147 35.7807C96.9417 35.991 96.6207 36.1593 96.2529 36.2856C95.8953 36.4118 95.5262 36.4749 95.1484 36.4749ZM95.3683 35.0705C95.8637 35.0705 96.2997 34.9443 96.6789 34.6919C97.0567 34.4394 97.3512 34.0975 97.5623 33.6663C97.7835 33.2245 97.8934 32.7247 97.8934 32.1673C97.8934 31.6097 97.7835 31.1152 97.5623 30.684C97.3512 30.2422 97.0567 29.895 96.6789 29.6426C96.2997 29.3901 95.8637 29.2639 95.3683 29.2639C94.8741 29.2639 94.4381 29.3901 94.0589 29.6426C93.681 29.895 93.3802 30.2422 93.1603 30.684C92.9493 31.1152 92.8444 31.6097 92.8444 32.1673C92.8444 32.7247 92.9493 33.2245 93.1603 33.6663C93.3802 34.0975 93.681 34.4394 94.0589 34.6919C94.4381 34.9443 94.8741 35.0705 95.3683 35.0705Z" fill="#161616"/>
<path d="M95.1484 36.4749C94.3901 36.4749 93.7126 36.2908 93.1123 35.9226C92.5234 35.544 92.0557 35.0338 91.7082 34.3921C91.3606 33.7399 91.1875 32.9982 91.1875 32.1673C91.1875 31.3362 91.3556 30.5999 91.6918 29.9582C92.0393 29.3059 92.5082 28.7957 93.0971 28.4276C93.6861 28.0489 94.3534 27.8596 95.1003 27.8596C95.5111 27.8596 95.9054 27.928 96.2845 28.0647C96.6738 28.1909 97.0201 28.3697 97.3259 28.6012C97.6305 28.822 97.8669 29.0692 98.035 29.3428C98.2144 29.6057 98.3041 29.874 98.3041 30.1475L97.8302 30.1791V24.6406H99.4555V36.3171H97.8302V34.3447H98.1462C98.1462 34.5972 98.0615 34.8496 97.8934 35.1021C97.7253 35.344 97.4991 35.5703 97.2147 35.7807C96.9417 35.991 96.6207 36.1593 96.2529 36.2856C95.8953 36.4118 95.5262 36.4749 95.1484 36.4749ZM95.3683 35.0705C95.8637 35.0705 96.2997 34.9443 96.6789 34.6919C97.0567 34.4394 97.3512 34.0975 97.5623 33.6663C97.7835 33.2245 97.8934 32.7247 97.8934 32.1673C97.8934 31.6097 97.7835 31.1152 97.5623 30.684C97.3512 30.2422 97.0567 29.895 96.6789 29.6426C96.2997 29.3901 95.8637 29.2639 95.3683 29.2639C94.8741 29.2639 94.4381 29.3901 94.0589 29.6426C93.681 29.895 93.3802 30.2422 93.1603 30.684C92.9493 31.1152 92.8444 31.6097 92.8444 32.1673C92.8444 32.7247 92.9493 33.2245 93.1603 33.6663C93.3802 34.0975 93.681 34.4394 94.0589 34.6919C94.4381 34.9443 94.8741 35.0705 95.3683 35.0705Z" fill="#161616"/>
<path d="M101.965 36.314V28.0301H103.59V36.314H101.965ZM102.753 26.1996C102.406 26.1996 102.138 26.1103 101.948 25.9315C101.759 25.7526 101.664 25.5001 101.664 25.174C101.664 24.869 101.759 24.6217 101.948 24.4324C102.148 24.2431 102.416 24.1484 102.753 24.1484C103.1 24.1484 103.369 24.2378 103.559 24.4166C103.747 24.5955 103.842 24.848 103.842 25.174C103.842 25.4791 103.742 25.7263 103.542 25.9157C103.353 26.105 103.09 26.1996 102.753 26.1996Z" fill="#161616"/>
<path d="M101.965 36.314V28.0301H103.59V36.314H101.965ZM102.753 26.1996C102.406 26.1996 102.138 26.1103 101.948 25.9315C101.759 25.7526 101.664 25.5001 101.664 25.174C101.664 24.869 101.759 24.6217 101.948 24.4324C102.148 24.2431 102.416 24.1484 102.753 24.1484C103.1 24.1484 103.369 24.2378 103.559 24.4166C103.747 24.5955 103.842 24.848 103.842 25.174C103.842 25.4791 103.742 25.7263 103.542 25.9157C103.353 26.105 103.09 26.1996 102.753 26.1996Z" fill="#161616"/>
<path d="M109.811 36.4747C109.001 36.4747 108.274 36.2906 107.633 35.9224C107.001 35.5437 106.502 35.0335 106.134 34.3919C105.765 33.7396 105.582 32.998 105.582 32.167C105.582 31.3359 105.765 30.5996 106.134 29.958C106.502 29.3057 107.001 28.7955 107.633 28.4273C108.274 28.0487 109.001 27.8594 109.811 27.8594C110.61 27.8594 111.325 28.0487 111.957 28.4273C112.598 28.7955 113.103 29.3057 113.471 29.958C113.839 30.5996 114.023 31.3359 114.023 32.167C114.023 32.998 113.839 33.7396 113.471 34.3919C113.103 35.0335 112.598 35.5437 111.957 35.9224C111.325 36.2906 110.61 36.4747 109.811 36.4747ZM109.811 34.9915C110.305 34.9915 110.746 34.8705 111.135 34.6285C111.525 34.3761 111.83 34.0394 112.052 33.6187C112.272 33.1873 112.378 32.7035 112.366 32.167C112.378 31.62 112.272 31.1361 112.052 30.7154C111.83 30.284 111.525 29.9474 111.135 29.7055C110.746 29.4636 110.305 29.3426 109.811 29.3426C109.315 29.3426 108.869 29.4687 108.469 29.7213C108.079 29.9632 107.775 30.2998 107.554 30.7311C107.332 31.1519 107.228 31.6305 107.239 32.167C107.228 32.7035 107.332 33.1873 107.554 33.6187C107.775 34.0394 108.079 34.3761 108.469 34.6285C108.869 34.8705 109.315 34.9915 109.811 34.9915Z" fill="#161616"/>
<path d="M109.811 36.4747C109.001 36.4747 108.274 36.2906 107.633 35.9224C107.001 35.5437 106.502 35.0335 106.134 34.3919C105.765 33.7396 105.582 32.998 105.582 32.167C105.582 31.3359 105.765 30.5996 106.134 29.958C106.502 29.3057 107.001 28.7955 107.633 28.4273C108.274 28.0487 109.001 27.8594 109.811 27.8594C110.61 27.8594 111.325 28.0487 111.957 28.4273C112.598 28.7955 113.103 29.3057 113.471 29.958C113.839 30.5996 114.023 31.3359 114.023 32.167C114.023 32.998 113.839 33.7396 113.471 34.3919C113.103 35.0335 112.598 35.5437 111.957 35.9224C111.325 36.2906 110.61 36.4747 109.811 36.4747ZM109.811 34.9915C110.305 34.9915 110.746 34.8705 111.135 34.6285C111.525 34.3761 111.83 34.0394 112.052 33.6187C112.272 33.1873 112.378 32.7035 112.366 32.167C112.378 31.62 112.272 31.1361 112.052 30.7154C111.83 30.284 111.525 29.9474 111.135 29.7055C110.746 29.4636 110.305 29.3426 109.811 29.3426C109.315 29.3426 108.869 29.4687 108.469 29.7213C108.079 29.9632 107.775 30.2998 107.554 30.7311C107.332 31.1519 107.228 31.6305 107.239 32.167C107.228 32.7035 107.332 33.1873 107.554 33.6187C107.775 34.0394 108.079 34.3761 108.469 34.6285C108.869 34.8705 109.315 34.9915 109.811 34.9915Z" fill="#161616"/>
<defs>
<linearGradient id="paint0_linear_4525_5354" x1="26.3207" y1="-1.51788" x2="52.8285" y2="36.615" gradientUnits="userSpaceOnUse">
<stop stop-color="#F1813B"/>
<stop offset="0.502111" stop-color="#EA2D6E"/>
<stop offset="1" stop-color="#508BC6"/>
</linearGradient>
</defs>
</svg>
